<svg viewBox="0 0 1496 400" xmlns="http://www.w3.org/2000/svg"><g><g><g><g><g><line x1="40" y1="333.98158090368344" x2="35" y2="333.98158090368344" style="visibility: inherit;" fill="rgb(0, 0, 0)" stroke="rgb(204, 204, 204)" stroke-width="1px"></line><line x1="40" y1="249.49217977061767" x2="35" y2="249.49217977061767" style="visibility: inherit;" fill="rgb(0, 0, 0)" stroke="rgb(204, 204, 204)" stroke-width="1px"></line><line x1="40" y1="176.30413150542145" x2="35" y2="176.30413150542145" style="visibility: inherit;" fill="rgb(0, 0, 0)" stroke="rgb(204, 204, 204)" stroke-width="1px"></line><line x1="40" y1="111.74769777840874" x2="35" y2="111.74769777840874" style="visibility: inherit;" fill="rgb(0, 0, 0)" stroke="rgb(204, 204, 204)" stroke-width="1px"></line><line x1="40" y1="54.00000000000006" x2="35" y2="54.00000000000006" style="visibility: inherit;" fill="rgb(0, 0, 0)" stroke="rgb(204, 204, 204)" stroke-width="1px"></line></g><g transform="translate(30, 0)"><text x="0" y="333.98158090368344" dx="0em" dy="0.3em" style="text-anchor: end; visibility: inherit; font-family: &quot;Helvetica Neue&quot;, sans-serif; font-size: 12px; font-weight: 200;" fill="rgb(50, 49, 63)" stroke="none" stroke-width="1px">0.6</text><text x="0" y="249.49217977061767" dx="0em" dy="0.3em" style="text-anchor: end; visibility: inherit; font-family: &quot;Helvetica Neue&quot;, sans-serif; font-size: 12px; font-weight: 200;" fill="rgb(50, 49, 63)" stroke="none" stroke-width="1px">0.7</text><text x="0" y="176.30413150542145" dx="0em" dy="0.3em" style="text-anchor: end; visibility: inherit; font-family: &quot;Helvetica Neue&quot;, sans-serif; font-size: 12px; font-weight: 200;" fill="rgb(50, 49, 63)" stroke="none" stroke-width="1px">0.8</text><text x="0" y="111.74769777840874" dx="0em" dy="0.3em" style="text-anchor: end; visibility: inherit; font-family: &quot;Helvetica Neue&quot;, sans-serif; font-size: 12px; font-weight: 200;" fill="rgb(50, 49, 63)" stroke="none" stroke-width="1px">0.9</text><text x="0" y="54.00000000000006" dx="0em" dy="0.3em" style="text-anchor: end; visibility: inherit; font-family: &quot;Helvetica Neue&quot;, sans-serif; font-size: 12px; font-weight: 200;" fill="rgb(50, 49, 63)" stroke="none" stroke-width="1px">1</text></g><line x1="40" y1="0" x2="40" y2="378" fill="rgb(0, 0, 0)" stroke="rgb(204, 204, 204)" stroke-width="1px"></line></g></g><g transform="translate(40, 0)" clip-path="url(#clip_0)"><clipPath id="clip_0"><rect width="1456" height="378"></rect></clipPath><g><g><g><line x1="0" y1="0" x2="0" y2="378" fill="rgb(0, 0, 0)" stroke="rgb(60, 60, 60)" stroke-width="1px" opacity="0.25"></line><line x1="112" y1="0" x2="112" y2="378" fill="rgb(0, 0, 0)" stroke="rgb(60, 60, 60)" stroke-width="1px" opacity="0.25"></line><line x1="224" y1="0" x2="224" y2="378" fill="rgb(0, 0, 0)" stroke="rgb(60, 60, 60)" stroke-width="1px" opacity="0.25"></line><line x1="336" y1="0" x2="336" y2="378" fill="rgb(0, 0, 0)" stroke="rgb(60, 60, 60)" stroke-width="1px" opacity="0.25"></line><line x1="448" y1="0" x2="448" y2="378" fill="rgb(0, 0, 0)" stroke="rgb(60, 60, 60)" stroke-width="1px" opacity="0.25"></line><line x1="560" y1="0" x2="560" y2="378" fill="rgb(0, 0, 0)" stroke="rgb(60, 60, 60)" stroke-width="1px" opacity="0.25"></line><line x1="672" y1="0" x2="672" y2="378" fill="rgb(0, 0, 0)" stroke="rgb(60, 60, 60)" stroke-width="1px" opacity="0.25"></line><line x1="784" y1="0" x2="784" y2="378" fill="rgb(0, 0, 0)" stroke="rgb(60, 60, 60)" stroke-width="1px" opacity="0.25"></line><line x1="896" y1="0" x2="896" y2="378" fill="rgb(0, 0, 0)" stroke="rgb(60, 60, 60)" stroke-width="1px" opacity="0.25"></line><line x1="1008" y1="0" x2="1008" y2="378" fill="rgb(0, 0, 0)" stroke="rgb(60, 60, 60)" stroke-width="1px" opacity="0.25"></line><line x1="1120" y1="0" x2="1120" y2="378" fill="rgb(0, 0, 0)" stroke="rgb(60, 60, 60)" stroke-width="1px" opacity="0.25"></line><line x1="1232" y1="0" x2="1232" y2="378" fill="rgb(0, 0, 0)" stroke="rgb(60, 60, 60)" stroke-width="1px" opacity="0.25"></line><line x1="1344" y1="0" x2="1344" y2="378" fill="rgb(0, 0, 0)" stroke="rgb(60, 60, 60)" stroke-width="1px" opacity="0.25"></line><line x1="1456" y1="0" x2="1456" y2="378" fill="rgb(0, 0, 0)" stroke="rgb(60, 60, 60)" stroke-width="1px" opacity="0.25"></line></g><g><line x1="0" y1="333.98158090368344" x2="1456" y2="333.98158090368344" fill="rgb(0, 0, 0)" stroke="rgb(60, 60, 60)" stroke-width="1px" opacity="0.25"></line><line x1="0" y1="249.49217977061767" x2="1456" y2="249.49217977061767" fill="rgb(0, 0, 0)" stroke="rgb(60, 60, 60)" stroke-width="1px" opacity="0.25"></line><line x1="0" y1="176.30413150542145" x2="1456" y2="176.30413150542145" fill="rgb(0, 0, 0)" stroke="rgb(60, 60, 60)" stroke-width="1px" opacity="0.25"></line><line x1="0" y1="111.74769777840874" x2="1456" y2="111.74769777840874" fill="rgb(0, 0, 0)" stroke="rgb(60, 60, 60)" stroke-width="1px" opacity="0.25"></line><line x1="0" y1="54.00000000000006" x2="1456" y2="54.00000000000006" fill="rgb(0, 0, 0)" stroke="rgb(60, 60, 60)" stroke-width="1px" opacity="0.25"></line></g></g></g><g><g><line x1="112" y1="0" x2="112" y2="378" fill="rgb(0, 0, 0)" stroke="rgb(153, 153, 153)" stroke-width="1.5px"></line></g></g><g><g><g><g><g><path stroke="rgb(204, 51, 17)" stroke-width="2px" d="M117.60000000000001,195.31516924791455L123.2,255.84704733148507L128.8,214.1125228019323L134.4,199.42507310590418L140,169.04327125301282L145.6,163.8404466461234L151.20000000000002,147.265768845331L156.8,156.86970267243484L162.4,164.66164258970838L168,179.14019241423412L173.60000000000002,181.73676259972956L179.20000000000002,155.8839773743506L184.79999999999998,166.26147285550832L190.4,160.13492902513278L196,158.89265088825397L201.60000000000002,135.2659954143199L207.2,115.29455055927883L212.8,110.38182234873835L218.4,107.32657328864201L224,113.42469826136721L229.6,125.1980186412321L235.20000000000002,123.27906060374937L240.79999999999998,116.70935343294445L246.4,102.98456108819539L252,97.56213807606849L257.6,87.025972204999L263.2,85.97630933373881L268.8,87.01352257949537L274.4,97.11470717215667L280,90.10303923126338L285.6,90.50170755287598L291.2,94.9173495270245L296.8,89.56527015102046L302.40000000000003,87.88478479519773L308,83.03920615085121L313.6,87.13253219382153L319.2,84.15765341034569L324.8,79.15067042975738L330.4,81.7495915116437L336,90.52263361084414L341.6,85.64812920271515L347.20000000000005,83.93058802005629L352.8,83.11246213228884L358.40000000000003,83.52927284727889L364,85.18818341557721L369.59999999999997,90.83201668904542L375.19999999999993,94.19023262894564L380.8,85.93656098802927L386.4,93.90686509308972L392,90.03044042975046L397.59999999999997,92.48993549275104L403.20000000000005,86.70311745342656L408.8,78.14349764484058L414.4,73.18016414216527L419.99999999999994,76.67060730122938L425.6,74.23252439193152L431.2,82.2499195966459L436.8,79.6195607036841L442.4,83.33220538150215L448,85.87739644976517L453.6,82.13495951999829L459.2,86.45449194181288L464.79999999999995,87.82172811844492L470.40000000000003,90.60307505158136L476,83.55567781182248L481.59999999999997,86.5598562648239L487.2,94.91474467885524L492.8,87.64549074211709L498.40000000000003,98.17047751420478L504,91.50502142942287L509.59999999999997,83.96734177977584L515.2,88.26978425652743L520.8,82.12365419884662L526.4,74.78542994500907L532,75.67180222091389L537.6,75.32085652421608L543.2,75.05989863340619L548.8,79.68239933766893L554.4,78.20478898127357L560,74.17572334847307L565.6,69.5120672677935L571.2,75.7436545920483L576.8,77.82731848853905L582.4,75.13938003808488L588,78.24801120809491L593.6,83.25675387712334L599.1999999999999,75.61701571942876L604.8000000000001,76.52258987609923L610.4,73.45680460496118L616,69.91229350088867L621.6,76.65376776850638L627.2,75.60833790548713L632.8000000000001,76.65671529494011L638.4,72.08357999166662L644,77.0675067793062L649.6,72.32382842544513L655.2,68.82097763327829L660.8,66.48169675256031L666.4,73.76469205739835L672,71.5616607818693L677.6,71.09921833572241L683.2,66.67075949275505L688.8,69.2697209543469L694.4000000000001,72.07584942311132L700,69.26185851635364L705.6,73.90732275556519L711.1999999999999,72.84196082192653L716.8000000000001,73.9865829366936L722.4,78.05121278596283L728,73.7729363095491L733.6,71.43459783096307L739.1999999999999,70.8760891996751L744.8,77.27496508507215L750.3999999999999,76.84636684924538L756.0000000000001,80.86273972085206L761.6,79.51134241592979L767.2,73.56852762757302L772.8,89.0571027384961L778.4,86.27168208042957L784,82.51026221402032L789.5999999999999,80.21951712370208L795.1999999999999,78.39367300177503L800.8000000000001,83.64655904941134L806.4000000000001,77.1212855960552L812,73.91319864707754L817.6,77.82965107544192L823.1999999999999,77.7008706252987L828.8,74.47571471746846L834.4,69.1606445677059L839.9999999999999,68.50409639478312L845.6,69.3599444303693L851.2,73.8077038570251L856.8000000000001,75.0401309997875L862.4,72.37309565918491L868,69.86274057691878L873.6,82.25453074309354L879.1999999999999,76.02144983229459L884.8,75.97483698047466L890.4000000000001,78.76178558007865L896,79.26796339869281L901.6,81.57582626562811L907.2,80.08664314856048L912.8,80.25426360100283L918.4,76.0619836227155L924,78.21556663986678L929.5999999999999,71.91376559569767L935.2,74.05191225819254L940.8000000000001,73.53768952191615L946.4,74.7942892277083L952,71.73735627343808L957.6,74.67851054446294L963.1999999999999,72.44209212650554L968.8,69.46262794200226L974.4,66.02462478072596L980.0000000000001,70.47903513335609L985.6,69.63973584784554L991.2,65.59326701509565L996.8000000000001,70.68251581797546L1002.4,78.2328157131534L1008,73.1016201878486L1013.5999999999999,71.4487769929666L1019.1999999999999,76.14792881393606L1024.8000000000002,70.3922705474285L1030.4,73.0231716243909L1036,74.98878775533257L1041.6,74.06816281339985L1047.2,70.5793141745682L1052.8,69.14152958738856L1058.3999999999999,66.71915369545815L1064,71.77323665848525L1069.6000000000001,76.22531777081116L1075.2,78.64720367661056L1080.8,77.86618651921702L1086.4,78.148383898438L1092,89.26959334723517L1097.6,91.06266624467997L1103.2,88.7577706271415L1108.8,79.64771816561677L1114.3999999999999,76.76249023066606L1120,77.32659959065126L1125.6000000000001,74.19886617553357L1131.2,70.102242869993L1136.8,68.21575632536809L1142.4,69.02950439587534L1148,70.37449008177202L1153.6,70.21646305837021L1159.1999999999998,67.4066289155329L1164.8,75.09672404031733L1170.4,73.49886723968154L1176,75.87857370455828L1181.6,75.48533007285965L1187.2,72.53692942425346L1192.8,67.73144410552698L1198.3999999999999,71.37750669997735L1204,77.11094753390944L1209.6000000000001,84.14874580242292L1215.2,83.27452359190755L1220.8,87.02977003923439L1226.4,81.95783465630097L1232,78.21453243380131L1237.6,73.79902754440809L1243.2,70.92729653536264L1248.8,67.70754535849983L1254.4,81.24539946460311L1260,77.45886708119241L1265.6000000000001,81.09831196289372L1271.2,75.24667481363224L1276.8,70.31351584660075L1282.3999999999999,69.36057424575296L1288,70.62139227599096L1293.6,76.85520943091564L1299.2,73.17866945812085L1304.8,76.51718039755701L1310.4,71.26711472035265L1316,73.02560454045175L1321.6,71.01388982706771L1327.2,72.23046211028571L1332.8,68.10495409644403L1338.3999999999999,68.96461349329542L1344,69.8882218948226" style="fill: none;" fill="none"></path></g><g><path stroke="rgb(0, 119, 187)" stroke-width="2px" d="M117.60000000000001,235.38259952322645L123.2,324L128.8,319.6464379606565L134.4,263.3117429439852L140,247.99927487203257L145.6,236.82773561134948L151.20000000000002,238.2232374400017L156.8,236.86131177649435L162.4,220.108010831322L168,203.49389470621435L173.60000000000002,213.4236070340887L179.20000000000002,209.4761581642408L184.79999999999998,240.80982754987397L190.4,225.57422492287682L196,216.60760219046136L201.60000000000002,192.07908075595464L207.2,195.80580773109673L212.8,182.49086703372345L218.4,197.1438436100399L224,222.72615017458384L229.6,240.88237693676786L235.20000000000002,225.60581843453812L240.79999999999998,200.46767414018618L246.4,173.15019200522235L252,181.1522122214678L257.6,182.43553326340106L263.2,171.292885882032L268.8,175.82641500905336L274.4,176.37471847726246L280,180.2690666646335L285.6,160.16096985639297L291.2,158.89196773201957L296.8,155.44822467033214L302.40000000000003,137.7589932992278L308,135.13150825430495L313.6,146.03149958604726L319.2,148.29512828238268L324.8,154.03336981959603L330.4,180.60358140223795L336,165.70827983833132L341.6,172.33503419995387L347.20000000000005,152.96777466809624L352.8,157.9660838330779L358.40000000000003,160.59372508205627L364,156.86108244698042L369.59999999999997,159.6423259378505L375.19999999999993,144.01345380181402L380.8,136.08796676815314L386.4,123.79274018759207L392,115.42701113426358L397.59999999999997,124.61329682636398L403.20000000000005,126.6045472936539L408.8,133.36168272109524L414.4,130.51273242062678L419.99999999999994,135.35494629294752L425.6,136.57920496810172L431.2,126.79779665555523L436.8,127.62814234819618L442.4,150.29648243983257L448,136.0771589117458L453.6,125.7322745716414L459.2,109.47999445004871L464.79999999999995,105.0635862619792L470.40000000000003,94.79344793972876L476,88.79428185334928L481.59999999999997,81.51554217945841L487.2,101.47563172255082L492.8,95.67650869712708L498.40000000000003,104.89555709654991L504,106.1194928368609L509.59999999999997,100.7213840210211L515.2,97.10592531349232L520.8,92.7578702974505L526.4,91.88943253712932L532,96.83935368657143L537.6,87.70782861038037L543.2,87.09769109013104L548.8,84.33248364235317L554.4,78.69471180746382L560,75.41515091785362L565.6,80.17983643482177L571.2,75.02153681437659L576.8,73.3349316899911L582.4,85.27828720257753L588,87.56541227508484L593.6,88.26698712919648L599.1999999999999,83.89971150166502L604.8000000000001,76.08868103612434L610.4,84.32432662360628L616,85.75992864415662L621.6,93.08886797603157L627.2,92.28453465353425L632.8000000000001,84.62374016811123L638.4,85.9832610605875L644,86.22872633449197L649.6,81.62543924080632L655.2,80.41021014122066L660.8,79.83545235164775L666.4,73.7340410266878L672,81.20289366425078L677.6,77.58597535390135L683.2,72.37995697182481L688.8,69.58066838863954L694.4000000000001,67.50723387239867L700,73.84842430070239L705.6,71.03738972759584L711.1999999999999,67.93197646958953L716.8000000000001,72.68368481446379L722.4,67.83967319782789L728,65.50248857697073L733.6,69.2562031449612L739.1999999999999,65.86980115273519L744.8,67.28056761885989L750.3999999999999,63.84997675719285L756.0000000000001,61.31147586238541L761.6,61.48805071111258L767.2,64.37568508430854L772.8,62.88784668167415L778.4,66.83306186073577L784,64.81852895302535L789.5999999999999,65.4982440328738L795.1999999999999,64.9801953815732L800.8000000000001,62.14824902277189L806.4000000000001,61.28042283446774L812,60.55600760885295L817.6,67.82545586945236L823.1999999999999,72.15842955432322L828.8,67.45227310141536L834.4,65.27746484654455L839.9999999999999,66.90992639264556L845.6,63.57591613908164L851.2,62.73542506260435L856.8000000000001,60.48586341981763L862.4,61.03437622525087L868,59.90971642524272L873.6,58.39075019253079L879.1999999999999,57.835122297756584L884.8,60.28770637831127L890.4000000000001,58.67117146702782L896,57.471555109804L901.6,56.58074085697746L907.2,58.48499421536417L912.8,57.89381305825793L918.4,57.576208223777314L924,57.393312170272054L929.5999999999999,57.11026887203974L935.2,57.45448562144645L940.8000000000001,57.17867138387925L946.4,58.19635282372684L952,57.11902305403669L957.6,56.31886129014646L963.1999999999999,55.72429788009282L968.8,56.015354626432895L974.4,57.26025399977925L980.0000000000001,57.645350279268655L985.6,56.70982921355994L991.2,58.95665929640893L996.8000000000001,57.68347945634571L1002.4,57.379502015414516L1008,58.95863626767232L1013.5999999999999,57.68494690955356L1019.1999999999999,61.46003545208265L1024.8000000000002,59.54057540275676L1030.4,58.116845546214165L1036,57.05998469402675L1041.6,56.27500022135723L1047.2,55.69170028998229L1052.8,55.25812751824088L1058.3999999999999,56.295453413082555L1064,55.70690120584675L1069.6000000000001,55.26942801658123L1075.2,54.944174349026696L1080.8,54.702310779733864L1086.4,54.52243350147825L1092,54.38864309484234L1097.6,54.289124215656614L1103.2,55.9725029371545L1108.8,55.466865766655246L1114.3999999999999,55.09097410950676L1120,54.811477868394036L1125.6000000000001,54.60362509245226L1131.2,56.72789791757464L1136.8,56.02826205245265L1142.4,56.612947894290016L1148,55.94284603261792L1153.6,55.44482122266936L1159.1999999999998,55.074584128499566L1164.8,54.79928989250374L1170.4,55.81205597565088L1176,55.347598821158954L1181.6,55.002297861896295L1187.2,54.74553500738625L1192.8,54.55458144968884L1198.3999999999999,54.412555150961566L1204,54.30691145605141L1209.6000000000001,54.22832575544339L1215.2,54.16986530336084L1220.8,54.12637477201173L1226.4,54.09402005537555L1232,54.06994938524173L1237.6,54.05204149245543L1243.2,54.03871839980809L1248.8,54.02880622898226L1254.4,54.021431690183704L1260,54.01594509768944L1265.6000000000001,54.011863108505395L1271.2,54.577197590775825L1276.8,54.42937711140905L1282.3999999999999,54.957952186224134L1288,54.71255693516821L1293.6,54.530054121474905L1299.2,54.39431144220845L1304.8,54.2933406948477L1310.4,54.218230524647595L1316,54.1623552350095L1321.6,54.72867553701201L1327.2,55.11096728340118L1332.8,54.826345136865314L1338.3999999999999,54.614682107835336L1344,54.45725782738333" style="fill: none;" fill="none"></path></g><g><path stroke="rgb(255, 112, 67)" stroke-width="2px" d="M117.60000000000001,267.58279739617046L123.2,247.81621424788187L128.8,270.633903732111L134.4,269.15860389730943L140,267.99580146128676L145.6,237.67642176616562L151.20000000000002,266.1488040251927L156.8,222.31395007949746L162.4,191.1846276923941L168,184.03582240071123L173.60000000000002,150.62051788319528L179.20000000000002,139.11031643184307L184.79999999999998,131.35118432488534L190.4,125.506330738428L196,107.696281589129L201.60000000000002,93.31602697755767L207.2,82.91184648588705L212.8,84.56682936842452L218.4,76.54902195725822L224,71.27640773966385L229.6,66.7925495566738L235.20000000000002,63.48418423330651L240.79999999999998,61.03784559056487L246.4,59.22603633817431L252,57.88259224175374L257.6,56.88557015154822L263.2,56.14516407542601L268.8,55.59506260902805L274.4,55.18620721710511L280,54.88225095522711L285.6,54.65623583925196L291.2,54.488151569427885L296.8,54.36313613358544L302.40000000000003,54.270146370485236L308,54.20097400559388L313.6,54.14951641709342L319.2,54.111235652027176L324.8,54.082756799940455L330.4,54.06156966147688L336,54.04580705451127L341.6,54.03408002034132L347.20000000000005,54.02535529810797L352.8,54.01886421059254L358.40000000000003,54.014034900058164L364,54.010441925444525L369.59999999999997,54.00776877027937L375.19999999999993,54.005779952771036L380.8,54.0043002780439L386.4,54.00319940309072L392,54.00238035381062L397.59999999999997,54.00177098207877L403.20000000000005,54.00131761002655L408.8,54.000980301505535L414.4,54.00072934412401L419.99999999999994,54.00054263191964L425.6,54.00040371808814L431.2,54.000300366224224L436.8,54.00022347245249L442.4,54.000166263494464L448,54.00012370003424L453.6,54.000092032822465L459.2,54.00006847241815L464.79999999999995,54.00005094347813L470.40000000000003,54.00003790194722L476,54.00002819904836L481.59999999999997,54.000020980091904L487.2,54.00001560918827L492.8,54.0000116132361L498.40000000000003,54.000008640247586L504,54.00000642834419L509.59999999999997,54.00000478268811L515.2,54.000003558319975L520.8,54.00000264739003L526.4,54.00000196965823L532,54.00000146542567L537.6,54.000001090276726L543.2,54.00000081116582L548.8,54.000000603507374L554.4,54.00000044900952L560,54.00000033406309L565.6,54.00000024854296L571.2,54.00000018491596L576.8,54.0000001375775L582.4,54.00000010235772L588,54.00000007615404L593.6,54.00000005665862L599.1999999999999,54.00000004215411L604.8000000000001,54.00000003136256L610.4,54.00000002333377L616,54.00000001736038L621.6,54.00000001291602L627.2,54.00000000960955L632.8000000000001,54.00000000714948L638.4,54.00000000531924L644,54.00000000395755L649.6,54.00000000294443L655.2,54.00000000219069L660.8,54.00000000162993L666.4,54.00000000121264L672,54.000000000902276L677.6,54.00000000067121L683.2,54.00000000049948L688.8,54.000000000371585L694.4000000000001,54.00000000027643L700,54.000000000205716L705.6,54.000000000153136L711.1999999999999,54.00000000011386L716.8000000000001,54.00000000008481L722.4,54.00000000006304L728,54.00000000004695L733.6,54.0000000000349L739.1999999999999,54.00000000002598L744.8,54.000000000019384L750.3999999999999,54.00000000001444L756.0000000000001,54.00000000001074L761.6,54.000000000008015L767.2,54.00000000000597L772.8,54.00000000000449L778.4,54.0000000000033L784,54.00000000000256L789.5999999999999,54.00000000000193L795.1999999999999,54.00000000000142L800.8000000000001,54.000000000001194L806.4000000000001,54.000000000000796L812,54.000000000000625L817.6,54.0000000000004L823.1999999999999,54.000000000000284L828.8,54.000000000000284L834.4,54.00000000000017L839.9999999999999,54.00000000000017L845.6,54.00000000000006L851.2,54.00000000000006L856.8000000000001,54.00000000000006L862.4,54.00000000000006L868,54.00000000000006L873.6,54.00000000000006L879.1999999999999,54.00000000000006L884.8,54.00000000000006L890.4000000000001,54.00000000000006L896,54.00000000000006L901.6,54.00000000000006L907.2,54.00000000000006L912.8,54.00000000000006L918.4,54.00000000000006L924,54.00000000000006L929.5999999999999,54.00000000000006L935.2,54.00000000000006L940.8000000000001,54.00000000000006L946.4,54.00000000000006L952,54.00000000000006L957.6,54.00000000000006L963.1999999999999,54.00000000000006L968.8,54.00000000000006L974.4,54.00000000000006L980.0000000000001,54.00000000000006L985.6,54.00000000000006L991.2,54.00000000000006L996.8000000000001,54.00000000000006L1002.4,54.00000000000006L1008,54.00000000000006L1013.5999999999999,54.00000000000006L1019.1999999999999,54.00000000000006L1024.8000000000002,54.00000000000006L1030.4,54.00000000000006L1036,54.00000000000006L1041.6,54.00000000000006L1047.2,54.00000000000006L1052.8,54.00000000000006L1058.3999999999999,54.00000000000006L1064,54.00000000000006L1069.6000000000001,54.00000000000006L1075.2,54.00000000000006L1080.8,54.00000000000006L1086.4,54.00000000000006L1092,54.00000000000006L1097.6,54.00000000000006L1103.2,54.00000000000006L1108.8,54.00000000000006L1114.3999999999999,54.00000000000006L1120,54.00000000000006L1125.6000000000001,54.00000000000006L1131.2,54.00000000000006L1136.8,54.00000000000006L1142.4,54.00000000000006L1148,54.00000000000006L1153.6,54.00000000000006L1159.1999999999998,54.00000000000006L1164.8,54.00000000000006L1170.4,54.00000000000006L1176,54.00000000000006L1181.6,54.00000000000006L1187.2,54.00000000000006L1192.8,54.00000000000006L1198.3999999999999,54.00000000000006L1204,54.00000000000006L1209.6000000000001,54.00000000000006L1215.2,54.00000000000006L1220.8,54.00000000000006L1226.4,54.00000000000006L1232,54.00000000000006L1237.6,54.00000000000006L1243.2,54.00000000000006L1248.8,54.00000000000006L1254.4,54.00000000000006L1260,54.00000000000006L1265.6000000000001,54.00000000000006L1271.2,54.00000000000006L1276.8,54.00000000000006L1282.3999999999999,54.00000000000006L1288,54.00000000000006L1293.6,54.00000000000006L1299.2,54.00000000000006L1304.8,54.00000000000006L1310.4,54.00000000000006L1316,54.00000000000006L1321.6,54.00000000000006L1327.2,54.00000000000006L1332.8,54.00000000000006L1338.3999999999999,54.00000000000006L1344,54.00000000000006" style="fill: none;" fill="none"></path></g><g><path stroke="rgb(51, 187, 238)" stroke-width="2px" d="M117.60000000000001,54.00000000000006L123.2,54.00000000000006L128.8,54.00000000000006L134.4,54.00000000000006L140,54.00000000000006L145.6,54.00000000000006L151.20000000000002,54L156.8,54.00000000000006L162.4,54L168,54L173.60000000000002,54.00000000000006L179.20000000000002,54.00000000000006L184.79999999999998,55.86526483625153L190.4,55.379419514276435L196,55.02172122563218L201.60000000000002,54.75765224041487L207.2,54.56231278877988L212.8,54.41759983398492L218.4,54.31027443795864L224,54.2306123341815L229.6,54.17144746561871L235.20000000000002,54.1274860928163L240.79999999999998,55.853792738171364L246.4,55.37823102595604L252,55.024856225746646L257.6,54.76219020024587L263.2,54.56690201086684L268.8,55.322781050955825L274.4,54.983781036206665L280,54.73172951640919L285.6,54.54429414146415L291.2,54.404892530324105L296.8,54.30120556258157L302.40000000000003,54.22407785732719L308,54.16670336562686L313.6,54.12402145935465L319.2,54.677325041898314L324.8,54.50384781844929L330.4,54.37481739687337L336,54.27883903075423L341.6,54.20744234106809L347.20000000000005,54.15432940999665L352.8,54.72269984710823L358.40000000000003,54.537597504176404L364,54.39992209040304L369.59999999999997,54.297514116044L375.19999999999993,54.22133505140994L380.8,54.16466472698983L386.4,54.12250582402072L392,54.09114171349813L397.59999999999997,54.067807984911155L403.20000000000005,54.63544974383507L408.8,54.472704410952986L414.4,54.35165323778648L419.99999999999994,55.06436701497057L425.6,54.79169214144997L431.2,54.588910015222325L436.8,54.43808877614009L442.4,54.32590469563462L448,54.24245463540825L453.6,54.18037603330504L459.2,54.13419411491043L464.79999999999995,54.09983729218021L470.40000000000003,54.074277213320784L476,54.055261288004374L481.59999999999997,54.04111386761832L487.2,54.03058842377908L492.8,54.02275762470572L498.40000000000003,54.01693158278533L504,54.01259704777715L509.59999999999997,54.00937217597192L515.2,54.00697288365984L520.8,54.56227011037487L526.4,54.41827402208412L532,54.311165470429785L537.6,54.23149028522056L543.2,54.17221946065689L548.8,54.128126125100096L554.4,54.095322984622385L560,54.070918721733904L565.6,54.05276265507871L571.2,54.03925493166696L576.8,54.02920540141611L582.4,54.02172867045067L588,54.01616604878086L593.6,54.012027494884705L599.1999999999999,54.00894843105931L604.8000000000001,54.00665761879509L610.4,54.00495326068227L616,54.003685221684634L621.6,54.00274180257361L627.2,54.00203989980855L632.8000000000001,54.001517684734665L638.4,54.001129157042385L644,54.00084009261798L649.6,54.00062502878512L655.2,54.000465021348305L660.8,54.00034597584562L666.4,54.00025740600836L672,54.0001915100587L677.6,54.000142483477305L683.2,54.000106007703664L688.8,54.00007886972958L694.4000000000001,54.00005867907771L700,54.00004365723322L705.6,54.00003248098119L711.1999999999999,54.00002416584982L716.8000000000001,54.00001797939217L722.4,57.19824672329361L728,56.377716619669286L733.6,55.76803816718456L739.1999999999999,55.31487697445334L744.8,54.977967954257394L750.3999999999999,54.727441931037674L756.0000000000001,54.541124832973935L761.6,54.402545990614954L767.2,54.299466058550536L772.8,54.22278716424381L778.4,54.16574502567278L784,54.1233095256934L789.5999999999999,54.09173964510097L795.1999999999999,54.068252833602685L800.8000000000001,54.05077929877609L806.4000000000001,54.03777935026045L812,54.02810758860045L817.6,54.020911908648316L823.1999999999999,54.01555838405142L828.8,54.011575395675436L834.4,54.00861207110165L839.9999999999999,54.0064073680129L845.6,54.00476707466839L851.2,54.00354669960484L856.8000000000001,54.002638742320414L862.4,54.00196322307659L868,54.00146063729926L873.6,54.00108671378001L879.1999999999999,54.000808514847165L884.8,54.000601534932684L890.4000000000001,54.00044754192703L896,54.00033297115891L901.6,54.00024773052297L907.2,54.00018431149846L912.8,54.00013712774893L918.4,54.00010202304196L924,54.00007590514139L929.5999999999999,54.000056473424195L935.2,54.0000420162271L940.8000000000001,54.00003126007266L946.4,54.00002325749392L952,54.000017303575305L957.6,54.000012873860044L963.1999999999999,54.00000957815183L968.8,54.00000712614491L974.4,54.00000530185184L980.0000000000001,54.00000394457771L985.6,54.00000293476592L991.2,54.00000218346588L996.8000000000001,54.000001624498566L1002.4,54.000001208627L1008,54.00000089921849L1013.5999999999999,54.00000066901856L1019.1999999999999,54.000000497749795L1024.8000000000002,54.000000370325836L1030.4,54.00000027552244L1036,54.00000020498868L1041.6,54.00000015251163L1047.2,54.00000011346867L1052.8,54.00000008442066L1058.3999999999999,54.000000062808965L1064,54.00000004672984L1069.6000000000001,54.00000003476708L1075.2,54.000000025866655L1080.8,54.00000001924485L1086.4,54.00000001431812L1092,54.000000010652684L1097.6,54.000000007925564L1103.2,54.00000000589665L1108.8,54.000000004387175L1114.3999999999999,54.00000000326406L1120,54.00000000242841L1125.6000000000001,54.00000000180677L1131.2,54.000000001344176L1136.8,54.00000000100016L1142.4,54.000000000744194L1148,54.000000000553655L1153.6,54.000000000411944L1159.1999999999998,54.00000000030644L1164.8,54.000000000228L1170.4,54.00000000016968L1176,54.00000000012619L1181.6,54.00000000009396L1187.2,54.00000000006992L1192.8,54.00000000005207L1198.3999999999999,54.00000000003865L1204,54.00000000002882L1209.6000000000001,54.00000000002143L1215.2,54.00000000001586" style="fill: none;" fill="none"></path></g><g><path stroke="rgb(238, 51, 119)" stroke-width="2px" d="M117.60000000000001,165.66114514305914L123.2,124.80408458444163L128.8,120.13067107810895L134.4,148.9615917164695L140,139.1519730476501L145.6,111.46304076774095L151.20000000000002,111.46922098284261L156.8,121.01054189333013L162.4,108.30578598499835L168,101.1087938474111L173.60000000000002,97.95905518594782L179.20000000000002,94.22580546260548L184.79999999999998,97.34313265765184L190.4,88.18591405286759L196,86.72405824051322L201.60000000000002,78.08327055305534L207.2,71.77533051581202L212.8,67.14717312661668L218.4,63.739014597526705L224,61.788518429321186L229.6,59.7800653975803L235.20000000000002,58.29233288588654L240.79999999999998,57.18906458363659L246.4,56.37021825007736L252,55.76209139580868L257.6,55.31024935382749L263.2,54.97441270638723L268.8,54.72473474487043L274.4,54.539076354589156L280,54.401002932180745L285.6,54.29830751666054L291.2,54.221919395670284L296.8,54.165096188858854L302.40000000000003,54.12282501076612L308,54.09137818067251L313.6,54.06798335872173L319.2,54.05057850762273L324.8,54.03762979457309L330.4,54.02799622669477L336,54.020829004204586L341.6,54.01549667481282L347.20000000000005,54.01152946831917L352.8,54.008577892467656L358.40000000000003,54.006381934304216L364,54.004748149329316L369.59999999999997,54.003532617680264L375.19999999999993,54.00262826455349L380.8,54.00195542716693L386.4,54.001454836892776L392,54.00108239813932L397.59999999999997,54.00080530393399L403.20000000000005,54.00059914597091L408.8,54.00044576451603L414.4,54.00033164875225L419.99999999999994,54.00024674664513L425.6,54.000183579489374L431.2,54.00013658313196L436.8,54.000101617845644L442.4,54.000075603674816L448,54.00005624913268L453.6,54.00004184935392L459.2,54.0000311359189L464.79999999999995,54.00002316512348L470.40000000000003,54.000017234851725L476,54.00001282272956L481.59999999999997,54.00000954011085L487.2,54.0000070978424L492.8,54.00000528079477L498.40000000000003,54.00000392891127L504,54.00000292311L509.59999999999997,54.00000217479385L515.2,54.00000161804667L520.8,54.000001203826685L526.4,54.00000089564713L532,54.00000066636136L537.6,54.000000495772895L543.2,54.00000036885507L548.8,54.0000002744282L554.4,54.000000204174626L560,54.000000151905965L565.6,54.00000011301796L571.2,54.0000000840854L576.8,54.00000006255965L582.4,54.0000000465443L588,54.00000003462901L593.6,54.00000002576394L599.1999999999999,54.00000001916845L604.8000000000001,54.00000001426122L610.4,54.00000001061039L616,54.00000000789413L621.6,54.00000000587323L627.2,54.000000004369724L632.8000000000001,54.000000003251046L638.4,54.00000000241886L644,54.000000001799606L649.6,54.00000000133889L655.2,54.00000000099607L660.8,54.000000000741124L666.4,54.00000000055144L672,54.000000000410296L677.6,54.00000000030519L683.2,54.0000000002272L688.8,54.00000000016894L694.4000000000001,54.00000000012574L700,54.000000000093564L705.6,54.00000000006969L711.1999999999999,54.000000000051784L716.8000000000001,54.00000000003854L722.4,54.000000000028706L728,54.00000000002137L733.6,54.00000000001586L739.1999999999999,54.00000000001188L744.8,54.00000000000881L750.3999999999999,54.00000000000654L756.0000000000001,54.000000000004945L761.6,54.000000000003695L767.2,54.00000000000273L772.8,54.000000000002046L778.4,54.00000000000148L784,54.00000000000125L789.5999999999999,54.000000000000796L795.1999999999999,54.00000000000068L800.8000000000001,54.00000000000057L806.4000000000001,54.0000000000004L812,54.000000000000284L817.6,54.00000000000017L823.1999999999999,54.00000000000017L828.8,54.00000000000017L834.4,54.00000000000006L839.9999999999999,54.00000000000006L845.6,54.00000000000006L851.2,54.00000000000006L856.8000000000001,54.00000000000006L862.4,54.00000000000006L868,54.00000000000006L873.6,54.00000000000006L879.1999999999999,54.00000000000006L884.8,54.00000000000006L890.4000000000001,54.00000000000006L896,54.00000000000006L901.6,54.00000000000006L907.2,54.00000000000006L912.8,54.00000000000006L918.4,54.00000000000006L924,54.00000000000006L929.5999999999999,54.00000000000006L935.2,54.00000000000006L940.8000000000001,54.00000000000006L946.4,54.00000000000006L952,54.00000000000006L957.6,54.00000000000006L963.1999999999999,54.00000000000006L968.8,54.00000000000006L974.4,54.00000000000006L980.0000000000001,54.00000000000006L985.6,54.00000000000006L991.2,54.00000000000006L996.8000000000001,54.00000000000006L1002.4,54.00000000000006L1008,54.00000000000006L1013.5999999999999,54.00000000000006L1019.1999999999999,54.00000000000006L1024.8000000000002,54.00000000000006L1030.4,54.00000000000006L1036,54.00000000000006L1041.6,54.00000000000006L1047.2,54.00000000000006L1052.8,54.00000000000006L1058.3999999999999,54.00000000000006L1064,54.00000000000006L1069.6000000000001,54.00000000000006L1075.2,54.00000000000006L1080.8,54.00000000000006L1086.4,54.00000000000006L1092,54.00000000000006L1097.6,54.00000000000006L1103.2,54.00000000000006L1108.8,54.00000000000006L1114.3999999999999,54.00000000000006L1120,54.00000000000006L1125.6000000000001,54.00000000000006L1131.2,54.00000000000006L1136.8,54.00000000000006L1142.4,54.00000000000006L1148,54.00000000000006L1153.6,54.00000000000006L1159.1999999999998,54.00000000000006L1164.8,54.00000000000006L1170.4,54.00000000000006L1176,54.00000000000006L1181.6,54.00000000000006L1187.2,54.00000000000006L1192.8,54.00000000000006L1198.3999999999999,54.00000000000006L1204,54.00000000000006L1209.6000000000001,54.00000000000006L1215.2,54.00000000000006L1220.8,54.00000000000006L1226.4,54.00000000000006L1232,54.00000000000006L1237.6,54.00000000000006L1243.2,54.00000000000006L1248.8,54.00000000000006L1254.4,54.00000000000006L1260,54.00000000000006L1265.6000000000001,54.00000000000006L1271.2,54.00000000000006L1276.8,54.00000000000006L1282.3999999999999,54.00000000000006L1288,54.00000000000006L1293.6,54.00000000000006L1299.2,54.00000000000006L1304.8,54.00000000000006L1310.4,54.00000000000006L1316,54.00000000000006L1321.6,54.00000000000006L1327.2,54.00000000000006L1332.8,54.00000000000006L1338.3999999999999,54.00000000000006L1344,54.00000000000006" style="fill: none;" fill="none"></path></g></g></g></g><g opacity="0.2"><g><g><g><path stroke="rgb(204, 51, 17)" stroke-width="2px" d="M117.60000000000001,195.31516924791455L123.2,305.6603541559002L128.8,164.30413514210628L134.4,175.19576201560182L140,112.48787610945868L145.6,152.3433653751281L151.20000000000002,109.21608798923285L156.8,182.04339736827365L162.4,185.72720345839977L168,220.30906393644554L173.60000000000002,188.95518368365413L179.20000000000002,89.5166275631646L184.79999999999998,196.6601900148105L190.4,143.07599156602646L196,155.3552306851992L201.60000000000002,72.58132726319002L207.2,61.52545921609857L212.8,96.44003954057456L218.4,98.5852354978419L224,131.4756503437819L229.6,160.82412105727028L235.20000000000002,117.75099796473603L240.79999999999998,98.07874670333865L246.4,64.98425031844448L252,82.11366638152265L257.6,57.524738092396206L263.2,82.93847597449314L268.8,90.03807925072448L274.4,127.56643077584698L280,70.22388916311928L285.6,91.66182307734556L291.2,107.95462938475083L296.8,74.30219425826652L302.40000000000003,83.03019815066841L308,69.19571928638237L313.6,99.20489393286374L319.2,75.60265227738381L324.8,64.85374402676143L330.4,89.3733178928407L336,116.84631357501735L341.6,71.7229156721063L347.20000000000005,78.96934572804321L352.8,80.7417017212033L358.40000000000003,84.74242767173024L364,90.03807925072448L369.59999999999997,107.57217864413099L375.19999999999993,104.06848086778831L380.8,62.63161453818344L386.4,117.75099796473603L392,78.91775274624968L397.59999999999997,99.70113268383056L403.20000000000005,70.22388916311928L408.8,54.00000000000006L414.4,59.005474700205866L419.99999999999994,86.94273442462566L425.6,67.20779227529704L431.2,106.23913059998034L436.8,72.04596234910923L442.4,94.26706174606642L448,93.3421620148518L453.6,71.40134075541681L459.2,99.20489393286374L464.79999999999995,91.81472803885003L470.40000000000003,98.7674152670894L476,63.573990633596054L481.59999999999997,95.38539648924512L487.2,119.94508771439303L492.8,67.05052517204604L498.40000000000003,129.95854397728425L504,72.58132726319002L509.59999999999997,62.63161453818344L515.2,100.96895077618353L520.8,64.64298666724926L526.4,54.00000000000006L532,78.2559881674706L537.6,74.30219425826652L543.2,74.30219425826652L548.8,93.3421620148518L554.4,73.93295772632592L560,62.63161453818344L565.6,56.179303469298645L571.2,94.26706174606642L576.8,83.92832228509207L582.4,67.40156054141238L588,87.3838577279601L593.6,98.07874670333865L599.1999999999999,54.00000000000006L604.8000000000001,79.16293963331708L610.4,64.64298666724926L616,59.7392906225752L621.6,96.73041720420304L627.2,72.58132726319002L632.8000000000001,79.71499436620957L638.4,59.005474700205866L644,91.81472803885003L649.6,58.766074632427205L655.2,58.766074632427205L660.8,59.7392906225752L666.4,95.49737318702256L672,65.20890989288233L677.6,69.75745547647404L683.2,54.00000000000006L688.8,76.89366804903614L694.4000000000001,80.31367038061182L700,61.16476075228303L705.6,87.6360926416408L711.1999999999999,69.75745547647404L716.8000000000001,77.32677410418364L722.4,90.03807925072448L728,61.52545921609857L733.6,64.69488555850137L739.1999999999999,69.2561465061761L744.8,96.30733055375987L750.3999999999999,75.60265227738381L756.0000000000001,92.70521673179593L761.6,75.60265227738381L767.2,56.654212474068515L772.8,136.72702380071877L778.4,78.2559881674706L784,71.7229156721063L789.5999999999999,73.6158738505444L795.1999999999999,73.12157953233447L800.8000000000001,99.20489393286374L806.4000000000001,58.58660141416351L812,64.69488555850137L817.6,89.3733178928407L823.1999999999999,77.32677410418364L828.8,65.20890989288233L834.4,54.00000000000006L839.9999999999999,66.60045531731225L845.6,71.85486555674709L851.2,86.94273442462566L856.8000000000001,78.63768316364593L862.4,64.69488555850137L868,62.63161453818344L873.6,119.94508771439303L879.1999999999999,58.29881572630774L884.8,75.8393908773441L890.4000000000001,86.94273442462566L896,80.7417017212033L901.6,88.33874609960185L907.2,75.78153088364377L912.8,80.7417017212033L918.4,64.05708341334781L924,84.5228820340239L929.5999999999999,54.00000000000006L935.2,80.31367038061182L940.8000000000001,72.04596234910923L946.4,78.46272086063163L952,62.948714546843576L957.6,83.31693323105054L963.1999999999999,65.99382398708184L968.8,60.894376053939084L974.4,56.15362227055965L980.0000000000001,83.63402556994515L985.6,67.20779227529704L991.2,54.00000000000006L996.8000000000001,85.74717146110407L1002.4,100.78539745332358L1008,58.45609437466311L1013.5999999999999,66.6733015661917L1019.1999999999999,90.03807925072448L1024.8000000000002,54.00000000000006L1030.4,80.7417017212033L1036,80.7417017212033L1041.6,71.40134075541681L1047.2,60.5641126202662L1052.8,64.98425031844448L1058.3999999999999,59.7392906225752L1064,86.73187729109037L1069.6000000000001,89.3733178928407L1075.2,85.74717146110407L1080.8,75.60265227738381L1086.4,78.96934572804321L1092,122.9337267136041L1097.6,96.30733055375987L1103.2,82.11366638152265L1108.8,54.00000000000006L1114.3999999999999,68.46249130048426L1120,78.96934572804321L1125.6000000000001,65.20890989288233L1131.2,58.36733967295265L1136.8,62.769725690312725L1142.4,71.40134075541681L1148,74.30219425826652L1153.6,69.75745547647404L1159.1999999999998,59.321373805965834L1164.8,98.07874670333865L1170.4,68.88136339956753L1176,82.85382826960085L1181.6,74.34406467356524L1187.2,64.05708341334781L1192.8,54.00000000000006L1198.3999999999999,82.11366638152265L1204,94.12250475497649L1209.6000000000001,105.13076440346731L1215.2,80.7417017212033L1220.8,98.09181127182683L1226.4,67.47846425939775L1232,67.47846425939775L1237.6,61.16476075228303L1243.2,62.66573248969405L1248.8,58.45609437466311L1254.4,122.6014381026744L1260,66.60045531731225L1265.6000000000001,91.81472803885003L1271.2,58.58660141416351L1276.8,56.22351862041336L1282.3999999999999,66.60045531731225L1288,74.30219425826652L1293.6,95.38539648924512L1299.2,62.63161453818344L1304.8,86.33677765858266L1310.4,56.288502997453634L1316,78.168475580696L1321.6,65.20890989288233L1327.2,75.78153088364377L1332.8,56.288502997453634L1338.3999999999999,71.47067946530694L1344,72.58132726319002" style="fill: none;" fill="none"></path></g><g><path stroke="rgb(0, 119, 187)" stroke-width="2px" d="M117.60000000000001,235.38259952322645L123.2,400.68320795782597L128.8,314.048593662833L134.4,178.68198829948759L140,218.37525074835773L145.6,212.56074860747995L151.20000000000002,241.6057601825049L156.8,233.41780436696158L162.4,178.29360128594405L168,160.95029942489L173.60000000000002,241.75105816553062L179.20000000000002,198.59577672726905L184.79999999999998,340.3456016324858L190.4,184.42421488215098L196,191.74447265818665L201.60000000000002,127.1880482651963L207.2,206.68498621021428L212.8,145.76934173278727L218.4,241.86900882179856L224,304.34754950679763L229.6,297.1827980327119L235.20000000000002,183.5637702929932L240.79999999999998,133.43780132260892L246.4,100.78539745332358L252,205.07380715648773L257.6,186.18001769806494L263.2,140.15280779025113L268.8,189.21430043943465L274.4,177.97094062291663L280,191.74447265818665L285.6,105.5972227595513L291.2,155.2209027058883L296.8,145.56170229161938L302.40000000000003,89.3733178928407L308,127.56643077584698L313.6,178.99747595438345L319.2,154.92720934002952L324.8,171.05916425667795L330.4,266.0522304547327L336,124.5842634445844L341.6,192.06156176545028L347.20000000000005,100.28032046357089L352.8,172.7565777801298L358.40000000000003,168.30257750970674L364,146.1552108285166L369.59999999999997,167.80634585214395L375.19999999999993,100.96895077618353L380.8,113.68444992177257L386.4,89.54988132013739L392,91.81472803885003L397.59999999999997,152.21962169766604L403.20000000000005,132.43302293329128L408.8,153.48612829553008L414.4,122.3160500046111L419.99999999999994,149.67543747774326L425.6,140.15280779025113L431.2,99.32301203026748L436.8,130.04849948646628L442.4,222.05685357763727L448,96.73041720420304L453.6,96.73041720420304L459.2,64.8109263374464L464.79999999999995,92.42677480833606L470.40000000000003,65.99382398708184L476,71.7229156721063L481.59999999999997,60.894376053939084L487.2,163.9868483428259L492.8,79.16293963331708L498.40000000000003,132.6037328865156L504,109.69214918389952L509.59999999999997,85.32832453498634L515.2,86.73187729109037L520.8,80.31367038061182L526.4,89.3733178928407L532,111.48413620946252L537.6,62.00154449856569L543.2,85.32832453498634L548.8,76.37439213647286L554.4,62.63161453818344L560,65.99382398708184L565.6,94.26706174606642L571.2,60.30003847286099L576.8,68.46249130048426L582.4,121.54332422872176L588,94.26706174606642L593.6,90.31105137906661L599.1999999999999,71.40134075541681L604.8000000000001,54.00000000000006L610.4,108.98651911062171L616,89.95361874480568L621.6,114.96235704444143L627.2,89.95361874480568L632.8000000000001,62.948714546843576L638.4,89.95361874480568L644,86.94273442462566L649.6,68.46249130048426L655.2,76.89366804903614L660.8,78.168475580696L666.4,56.37787319962547L672,103.50548075512427L677.6,67.20779227529704L683.2,57.524738092396206L688.8,61.52545921609857L694.4000000000001,61.52545921609857L700,92.70521673179593L705.6,62.948714546843576L711.1999999999999,59.005474700205866L716.8000000000001,86.73187729109037L722.4,54.00000000000006L728,58.766074632427205L733.6,80.31367038061182L739.1999999999999,56.14519332712962L744.8,71.40134075541681L750.3999999999999,54.00000000000006L756.0000000000001,54.00000000000006L761.6,62.00154449856569L767.2,72.85527525591607L772.8,58.58660141416351L778.4,78.46272086063163L784,59.005474700205866L789.5999999999999,67.47846425939775L795.1999999999999,63.47738991358932L800.8000000000001,54.00000000000006L806.4000000000001,58.766074632427205L812,58.45609437466311L817.6,89.5166275631646L823.1999999999999,84.94913312496675L828.8,54.00000000000006L834.4,59.005474700205866L839.9999999999999,71.68205477131107L845.6,54.00000000000006L851.2,60.30003847286099L856.8000000000001,54.00000000000006L862.4,62.63161453818344L868,56.654212474068515L873.6,54.00000000000006L879.1999999999999,56.22351862041336L884.8,67.47846425939775L890.4000000000001,54.00000000000006L896,54.00000000000006L901.6,54.00000000000006L907.2,64.05708341334781L912.8,56.179303469298645L918.4,56.654212474068515L924,56.86211668200235L929.5999999999999,56.288502997453634L935.2,58.45609437466311L940.8000000000001,56.37787319962547L946.4,61.16476075228303L952,54.00000000000006L957.6,54.00000000000006L963.1999999999999,54.00000000000006L968.8,56.86211668200235L974.4,60.894376053939084L980.0000000000001,58.766074632427205L985.6,54.00000000000006L991.2,65.5392823603371L996.8000000000001,54.00000000000006L1002.4,56.49702332350569L1008,63.573990633596054L1013.5999999999999,54.00000000000006L1019.1999999999999,72.58132726319002L1024.8000000000002,54.00000000000006L1030.4,54.00000000000006L1036,54.00000000000006L1041.6,54.00000000000006L1047.2,54.00000000000006L1052.8,54.00000000000006L1058.3999999999999,59.321373805965834L1064,54.00000000000006L1069.6000000000001,54.00000000000006L1075.2,54.00000000000006L1080.8,54.00000000000006L1086.4,54.00000000000006L1092,54.00000000000006L1097.6,54.00000000000006L1103.2,60.894376053939084L1108.8,54.00000000000006L1114.3999999999999,54.00000000000006L1120,54.00000000000006L1125.6000000000001,54.00000000000006L1131.2,62.948714546843576L1136.8,54.00000000000006L1142.4,58.31574011396356L1148,54.00000000000006L1153.6,54.00000000000006L1159.1999999999998,54.00000000000006L1164.8,54.00000000000006L1170.4,58.766074632427205L1176,54.00000000000006L1181.6,54.00000000000006L1187.2,54.00000000000006L1192.8,54.00000000000006L1198.3999999999999,54.00000000000006L1204,54.00000000000006L1209.6000000000001,54.00000000000006L1215.2,54.00000000000006L1220.8,54.00000000000006L1226.4,54.00000000000006L1232,54.00000000000006L1237.6,54.00000000000006L1243.2,54.00000000000006L1248.8,54.00000000000006L1254.4,54.00000000000006L1260,54.00000000000006L1265.6000000000001,54.00000000000006L1271.2,56.22351862041336L1276.8,54.00000000000006L1282.3999999999999,56.49702332350569L1288,54.00000000000006L1293.6,54.00000000000006L1299.2,54.00000000000006L1304.8,54.00000000000006L1310.4,54.00000000000006L1316,54.00000000000006L1321.6,56.37787319962547L1327.2,56.22351862041336L1332.8,54.00000000000006L1338.3999999999999,54.00000000000006L1344,54.00000000000006" style="fill: none;" fill="none"></path></g><g><path stroke="rgb(255, 112, 67)" stroke-width="2px" d="M117.60000000000001,267.58279739617046L123.2,233.5589529560259L128.8,301.73133603916L134.4,266.6459345978306L140,265.6593322316056L145.6,175.19576201560182L151.20000000000002,341.6474126852728L156.8,124.5842634445844L162.4,116.77978260538151L168,165.16489724743613L173.60000000000002,67.87658082959172L179.20000000000002,108.1770225021977L184.79999999999998,110.02451648272495L190.4,109.21608798923285L196,59.7392906225752L201.60000000000002,54.00000000000006L207.2,54.00000000000006L212.8,89.3733178928407L218.4,54.00000000000006L224,56.288502997453634L229.6,54.00000000000006L235.20000000000002,54.00000000000006L240.79999999999998,54.00000000000006L246.4,54.00000000000006L252,54.00000000000006L257.6,54.00000000000006L263.2,54.00000000000006L268.8,54.00000000000006L274.4,54.00000000000006L280,54.00000000000006L285.6,54.00000000000006L291.2,54.00000000000006L296.8,54.00000000000006L302.40000000000003,54.00000000000006L308,54.00000000000006L313.6,54.00000000000006L319.2,54.00000000000006L324.8,54.00000000000006L330.4,54.00000000000006L336,54.00000000000006L341.6,54.00000000000006L347.20000000000005,54.00000000000006L352.8,54.00000000000006L358.40000000000003,54.00000000000006L364,54.00000000000006L369.59999999999997,54.00000000000006L375.19999999999993,54.00000000000006L380.8,54.00000000000006L386.4,54.00000000000006L392,54.00000000000006L397.59999999999997,54.00000000000006L403.20000000000005,54.00000000000006L408.8,54.00000000000006L414.4,54.00000000000006L419.99999999999994,54.00000000000006L425.6,54.00000000000006L431.2,54.00000000000006L436.8,54.00000000000006L442.4,54.00000000000006L448,54.00000000000006L453.6,54.00000000000006L459.2,54.00000000000006L464.79999999999995,54.00000000000006L470.40000000000003,54.00000000000006L476,54.00000000000006L481.59999999999997,54.00000000000006L487.2,54.00000000000006L492.8,54.00000000000006L498.40000000000003,54.00000000000006L504,54.00000000000006L509.59999999999997,54.00000000000006L515.2,54.00000000000006L520.8,54.00000000000006L526.4,54.00000000000006L532,54.00000000000006L537.6,54.00000000000006L543.2,54.00000000000006L548.8,54.00000000000006L554.4,54.00000000000006L560,54.00000000000006L565.6,54.00000000000006L571.2,54.00000000000006L576.8,54.00000000000006L582.4,54.00000000000006L588,54.00000000000006L593.6,54.00000000000006L599.1999999999999,54.00000000000006L604.8000000000001,54.00000000000006L610.4,54.00000000000006L616,54.00000000000006L621.6,54.00000000000006L627.2,54.00000000000006L632.8000000000001,54.00000000000006L638.4,54.00000000000006L644,54.00000000000006L649.6,54.00000000000006L655.2,54.00000000000006L660.8,54.00000000000006L666.4,54.00000000000006L672,54.00000000000006L677.6,54.00000000000006L683.2,54.00000000000006L688.8,54.00000000000006L694.4000000000001,54.00000000000006L700,54.00000000000006L705.6,54.00000000000006L711.1999999999999,54.00000000000006L716.8000000000001,54.00000000000006L722.4,54.00000000000006L728,54.00000000000006L733.6,54.00000000000006L739.1999999999999,54.00000000000006L744.8,54.00000000000006L750.3999999999999,54.00000000000006L756.0000000000001,54.00000000000006L761.6,54.00000000000006L767.2,54.00000000000006L772.8,54.00000000000006L778.4,54.00000000000006L784,54.00000000000006L789.5999999999999,54.00000000000006L795.1999999999999,54.00000000000006L800.8000000000001,54.00000000000006L806.4000000000001,54.00000000000006L812,54.00000000000006L817.6,54.00000000000006L823.1999999999999,54.00000000000006L828.8,54.00000000000006L834.4,54.00000000000006L839.9999999999999,54.00000000000006L845.6,54.00000000000006L851.2,54.00000000000006L856.8000000000001,54.00000000000006L862.4,54.00000000000006L868,54.00000000000006L873.6,54.00000000000006L879.1999999999999,54.00000000000006L884.8,54.00000000000006L890.4000000000001,54.00000000000006L896,54.00000000000006L901.6,54.00000000000006L907.2,54.00000000000006L912.8,54.00000000000006L918.4,54.00000000000006L924,54.00000000000006L929.5999999999999,54.00000000000006L935.2,54.00000000000006L940.8000000000001,54.00000000000006L946.4,54.00000000000006L952,54.00000000000006L957.6,54.00000000000006L963.1999999999999,54.00000000000006L968.8,54.00000000000006L974.4,54.00000000000006L980.0000000000001,54.00000000000006L985.6,54.00000000000006L991.2,54.00000000000006L996.8000000000001,54.00000000000006L1002.4,54.00000000000006L1008,54.00000000000006L1013.5999999999999,54.00000000000006L1019.1999999999999,54.00000000000006L1024.8000000000002,54.00000000000006L1030.4,54.00000000000006L1036,54.00000000000006L1041.6,54.00000000000006L1047.2,54.00000000000006L1052.8,54.00000000000006L1058.3999999999999,54.00000000000006L1064,54.00000000000006L1069.6000000000001,54.00000000000006L1075.2,54.00000000000006L1080.8,54.00000000000006L1086.4,54.00000000000006L1092,54.00000000000006L1097.6,54.00000000000006L1103.2,54.00000000000006L1108.8,54.00000000000006L1114.3999999999999,54.00000000000006L1120,54.00000000000006L1125.6000000000001,54.00000000000006L1131.2,54.00000000000006L1136.8,54.00000000000006L1142.4,54.00000000000006L1148,54.00000000000006L1153.6,54.00000000000006L1159.1999999999998,54.00000000000006L1164.8,54.00000000000006L1170.4,54.00000000000006L1176,54.00000000000006L1181.6,54.00000000000006L1187.2,54.00000000000006L1192.8,54.00000000000006L1198.3999999999999,54.00000000000006L1204,54.00000000000006L1209.6000000000001,54.00000000000006L1215.2,54.00000000000006L1220.8,54.00000000000006L1226.4,54.00000000000006L1232,54.00000000000006L1237.6,54.00000000000006L1243.2,54.00000000000006L1248.8,54.00000000000006L1254.4,54.00000000000006L1260,54.00000000000006L1265.6000000000001,54.00000000000006L1271.2,54.00000000000006L1276.8,54.00000000000006L1282.3999999999999,54.00000000000006L1288,54.00000000000006L1293.6,54.00000000000006L1299.2,54.00000000000006L1304.8,54.00000000000006L1310.4,54.00000000000006L1316,54.00000000000006L1321.6,54.00000000000006L1327.2,54.00000000000006L1332.8,54.00000000000006L1338.3999999999999,54.00000000000006L1344,54.00000000000006" style="fill: none;" fill="none"></path></g><g><path stroke="rgb(51, 187, 238)" stroke-width="2px" d="M117.60000000000001,54.00000000000006L123.2,54.00000000000006L128.8,54.00000000000006L134.4,54.00000000000006L140,54.00000000000006L145.6,54.00000000000006L151.20000000000002,54.00000000000006L156.8,54.00000000000006L162.4,54.00000000000006L168,54.00000000000006L173.60000000000002,54.00000000000006L179.20000000000002,54.00000000000006L184.79999999999998,61.16476075228303L190.4,54.00000000000006L196,54.00000000000006L201.60000000000002,54.00000000000006L207.2,54.00000000000006L212.8,54.00000000000006L218.4,54.00000000000006L224,54.00000000000006L229.6,54.00000000000006L235.20000000000002,54.00000000000006L240.79999999999998,60.894376053939084L246.4,54.00000000000006L252,54.00000000000006L257.6,54.00000000000006L263.2,54.00000000000006L268.8,57.524738092396206L274.4,54.00000000000006L280,54.00000000000006L285.6,54.00000000000006L291.2,54.00000000000006L296.8,54.00000000000006L302.40000000000003,54.00000000000006L308,54.00000000000006L313.6,54.00000000000006L319.2,56.288502997453634L324.8,54.00000000000006L330.4,54.00000000000006L336,54.00000000000006L341.6,54.00000000000006L347.20000000000005,54.00000000000006L352.8,56.37787319962547L358.40000000000003,54.00000000000006L364,54.00000000000006L369.59999999999997,54.00000000000006L375.19999999999993,54.00000000000006L380.8,54.00000000000006L386.4,54.00000000000006L392,54.00000000000006L397.59999999999997,54.00000000000006L403.20000000000005,56.288502997453634L408.8,54.00000000000006L414.4,54.00000000000006L419.99999999999994,57.14096738873582L425.6,54.00000000000006L431.2,54.00000000000006L436.8,54.00000000000006L442.4,54.00000000000006L448,54.00000000000006L453.6,54.00000000000006L459.2,54.00000000000006L464.79999999999995,54.00000000000006L470.40000000000003,54.00000000000006L476,54.00000000000006L481.59999999999997,54.00000000000006L487.2,54.00000000000006L492.8,54.00000000000006L498.40000000000003,54.00000000000006L504,54.00000000000006L509.59999999999997,54.00000000000006L515.2,54.00000000000006L520.8,56.179303469298645L526.4,54.00000000000006L532,54.00000000000006L537.6,54.00000000000006L543.2,54.00000000000006L548.8,54.00000000000006L554.4,54.00000000000006L560,54.00000000000006L565.6,54.00000000000006L571.2,54.00000000000006L576.8,54.00000000000006L582.4,54.00000000000006L588,54.00000000000006L593.6,54.00000000000006L599.1999999999999,54.00000000000006L604.8000000000001,54.00000000000006L610.4,54.00000000000006L616,54.00000000000006L621.6,54.00000000000006L627.2,54.00000000000006L632.8000000000001,54.00000000000006L638.4,54.00000000000006L644,54.00000000000006L649.6,54.00000000000006L655.2,54.00000000000006L660.8,54.00000000000006L666.4,54.00000000000006L672,54.00000000000006L677.6,54.00000000000006L683.2,54.00000000000006L688.8,54.00000000000006L694.4000000000001,54.00000000000006L700,54.00000000000006L705.6,54.00000000000006L711.1999999999999,54.00000000000006L716.8000000000001,54.00000000000006L722.4,66.60045531731225L728,54.00000000000006L733.6,54.00000000000006L739.1999999999999,54.00000000000006L744.8,54.00000000000006L750.3999999999999,54.00000000000006L756.0000000000001,54.00000000000006L761.6,54.00000000000006L767.2,54.00000000000006L772.8,54.00000000000006L778.4,54.00000000000006L784,54.00000000000006L789.5999999999999,54.00000000000006L795.1999999999999,54.00000000000006L800.8000000000001,54.00000000000006L806.4000000000001,54.00000000000006L812,54.00000000000006L817.6,54.00000000000006L823.1999999999999,54.00000000000006L828.8,54.00000000000006L834.4,54.00000000000006L839.9999999999999,54.00000000000006L845.6,54.00000000000006L851.2,54.00000000000006L856.8000000000001,54.00000000000006L862.4,54.00000000000006L868,54.00000000000006L873.6,54.00000000000006L879.1999999999999,54.00000000000006L884.8,54.00000000000006L890.4000000000001,54.00000000000006L896,54.00000000000006L901.6,54.00000000000006L907.2,54.00000000000006L912.8,54.00000000000006L918.4,54.00000000000006L924,54.00000000000006L929.5999999999999,54.00000000000006L935.2,54.00000000000006L940.8000000000001,54.00000000000006L946.4,54.00000000000006L952,54.00000000000006L957.6,54.00000000000006L963.1999999999999,54.00000000000006L968.8,54.00000000000006L974.4,54.00000000000006L980.0000000000001,54.00000000000006L985.6,54.00000000000006L991.2,54.00000000000006L996.8000000000001,54.00000000000006L1002.4,54.00000000000006L1008,54.00000000000006L1013.5999999999999,54.00000000000006L1019.1999999999999,54.00000000000006L1024.8000000000002,54.00000000000006L1030.4,54.00000000000006L1036,54.00000000000006L1041.6,54.00000000000006L1047.2,54.00000000000006L1052.8,54.00000000000006L1058.3999999999999,54.00000000000006L1064,54.00000000000006L1069.6000000000001,54.00000000000006L1075.2,54.00000000000006L1080.8,54.00000000000006L1086.4,54.00000000000006L1092,54.00000000000006L1097.6,54.00000000000006L1103.2,54.00000000000006L1108.8,54.00000000000006L1114.3999999999999,54.00000000000006L1120,54.00000000000006L1125.6000000000001,54.00000000000006L1131.2,54.00000000000006L1136.8,54.00000000000006L1142.4,54.00000000000006L1148,54.00000000000006L1153.6,54.00000000000006L1159.1999999999998,54.00000000000006L1164.8,54.00000000000006L1170.4,54.00000000000006L1176,54.00000000000006L1181.6,54.00000000000006L1187.2,54.00000000000006L1192.8,54.00000000000006L1198.3999999999999,54.00000000000006L1204,54.00000000000006L1209.6000000000001,54.00000000000006L1215.2,54.00000000000006" style="fill: none;" fill="none"></path></g><g><path stroke="rgb(238, 51, 119)" stroke-width="2px" d="M117.60000000000001,165.66114514305914L123.2,96.2677005633019L128.8,114.12554545827527L134.4,202.05379328385533L140,119.8961953215317L145.6,54.00000000000006L151.20000000000002,111.48413620946252L156.8,146.0148493089229L162.4,76.19317676503027L168,82.11366638152265L173.60000000000002,89.3733178928407L179.20000000000002,83.92832228509207L184.79999999999998,106.23913059998034L190.4,62.948714546843576L196,82.56458194423641L201.60000000000002,54.00000000000006L207.2,54.00000000000006L212.8,54.00000000000006L218.4,54.00000000000006L224,56.179303469298645L229.6,54.00000000000006L235.20000000000002,54.00000000000006L240.79999999999998,54.00000000000006L246.4,54.00000000000006L252,54.00000000000006L257.6,54.00000000000006L263.2,54.00000000000006L268.8,54.00000000000006L274.4,54.00000000000006L280,54.00000000000006L285.6,54.00000000000006L291.2,54.00000000000006L296.8,54.00000000000006L302.40000000000003,54.00000000000006L308,54.00000000000006L313.6,54.00000000000006L319.2,54.00000000000006L324.8,54.00000000000006L330.4,54.00000000000006L336,54.00000000000006L341.6,54.00000000000006L347.20000000000005,54.00000000000006L352.8,54.00000000000006L358.40000000000003,54.00000000000006L364,54.00000000000006L369.59999999999997,54.00000000000006L375.19999999999993,54.00000000000006L380.8,54.00000000000006L386.4,54.00000000000006L392,54.00000000000006L397.59999999999997,54.00000000000006L403.20000000000005,54.00000000000006L408.8,54.00000000000006L414.4,54.00000000000006L419.99999999999994,54.00000000000006L425.6,54.00000000000006L431.2,54.00000000000006L436.8,54.00000000000006L442.4,54.00000000000006L448,54.00000000000006L453.6,54.00000000000006L459.2,54.00000000000006L464.79999999999995,54.00000000000006L470.40000000000003,54.00000000000006L476,54.00000000000006L481.59999999999997,54.00000000000006L487.2,54.00000000000006L492.8,54.00000000000006L498.40000000000003,54.00000000000006L504,54.00000000000006L509.59999999999997,54.00000000000006L515.2,54.00000000000006L520.8,54.00000000000006L526.4,54.00000000000006L532,54.00000000000006L537.6,54.00000000000006L543.2,54.00000000000006L548.8,54.00000000000006L554.4,54.00000000000006L560,54.00000000000006L565.6,54.00000000000006L571.2,54.00000000000006L576.8,54.00000000000006L582.4,54.00000000000006L588,54.00000000000006L593.6,54.00000000000006L599.1999999999999,54.00000000000006L604.8000000000001,54.00000000000006L610.4,54.00000000000006L616,54.00000000000006L621.6,54.00000000000006L627.2,54.00000000000006L632.8000000000001,54.00000000000006L638.4,54.00000000000006L644,54.00000000000006L649.6,54.00000000000006L655.2,54.00000000000006L660.8,54.00000000000006L666.4,54.00000000000006L672,54.00000000000006L677.6,54.00000000000006L683.2,54.00000000000006L688.8,54.00000000000006L694.4000000000001,54.00000000000006L700,54.00000000000006L705.6,54.00000000000006L711.1999999999999,54.00000000000006L716.8000000000001,54.00000000000006L722.4,54.00000000000006L728,54.00000000000006L733.6,54.00000000000006L739.1999999999999,54.00000000000006L744.8,54.00000000000006L750.3999999999999,54.00000000000006L756.0000000000001,54.00000000000006L761.6,54.00000000000006L767.2,54.00000000000006L772.8,54.00000000000006L778.4,54.00000000000006L784,54.00000000000006L789.5999999999999,54.00000000000006L795.1999999999999,54.00000000000006L800.8000000000001,54.00000000000006L806.4000000000001,54.00000000000006L812,54.00000000000006L817.6,54.00000000000006L823.1999999999999,54.00000000000006L828.8,54.00000000000006L834.4,54.00000000000006L839.9999999999999,54.00000000000006L845.6,54.00000000000006L851.2,54.00000000000006L856.8000000000001,54.00000000000006L862.4,54.00000000000006L868,54.00000000000006L873.6,54.00000000000006L879.1999999999999,54.00000000000006L884.8,54.00000000000006L890.4000000000001,54.00000000000006L896,54.00000000000006L901.6,54.00000000000006L907.2,54.00000000000006L912.8,54.00000000000006L918.4,54.00000000000006L924,54.00000000000006L929.5999999999999,54.00000000000006L935.2,54.00000000000006L940.8000000000001,54.00000000000006L946.4,54.00000000000006L952,54.00000000000006L957.6,54.00000000000006L963.1999999999999,54.00000000000006L968.8,54.00000000000006L974.4,54.00000000000006L980.0000000000001,54.00000000000006L985.6,54.00000000000006L991.2,54.00000000000006L996.8000000000001,54.00000000000006L1002.4,54.00000000000006L1008,54.00000000000006L1013.5999999999999,54.00000000000006L1019.1999999999999,54.00000000000006L1024.8000000000002,54.00000000000006L1030.4,54.00000000000006L1036,54.00000000000006L1041.6,54.00000000000006L1047.2,54.00000000000006L1052.8,54.00000000000006L1058.3999999999999,54.00000000000006L1064,54.00000000000006L1069.6000000000001,54.00000000000006L1075.2,54.00000000000006L1080.8,54.00000000000006L1086.4,54.00000000000006L1092,54.00000000000006L1097.6,54.00000000000006L1103.2,54.00000000000006L1108.8,54.00000000000006L1114.3999999999999,54.00000000000006L1120,54.00000000000006L1125.6000000000001,54.00000000000006L1131.2,54.00000000000006L1136.8,54.00000000000006L1142.4,54.00000000000006L1148,54.00000000000006L1153.6,54.00000000000006L1159.1999999999998,54.00000000000006L1164.8,54.00000000000006L1170.4,54.00000000000006L1176,54.00000000000006L1181.6,54.00000000000006L1187.2,54.00000000000006L1192.8,54.00000000000006L1198.3999999999999,54.00000000000006L1204,54.00000000000006L1209.6000000000001,54.00000000000006L1215.2,54.00000000000006L1220.8,54.00000000000006L1226.4,54.00000000000006L1232,54.00000000000006L1237.6,54.00000000000006L1243.2,54.00000000000006L1248.8,54.00000000000006L1254.4,54.00000000000006L1260,54.00000000000006L1265.6000000000001,54.00000000000006L1271.2,54.00000000000006L1276.8,54.00000000000006L1282.3999999999999,54.00000000000006L1288,54.00000000000006L1293.6,54.00000000000006L1299.2,54.00000000000006L1304.8,54.00000000000006L1310.4,54.00000000000006L1316,54.00000000000006L1321.6,54.00000000000006L1327.2,54.00000000000006L1332.8,54.00000000000006L1338.3999999999999,54.00000000000006L1344,54.00000000000006" style="fill: none;" fill="none"></path></g></g></g></g></g></g><g transform="translate(40, 378)" clip-path="url(#clip_1)"><clipPath id="clip_1"><rect width="1456" height="22"></rect></clipPath><g><g><line x1="0" y1="0" x2="0" y2="5" style="visibility: inherit;" fill="rgb(0, 0, 0)" stroke="rgb(204, 204, 204)" stroke-width="1px"></line><line x1="112" y1="0" x2="112" y2="5" style="visibility: inherit;" fill="rgb(0, 0, 0)" stroke="rgb(204, 204, 204)" stroke-width="1px"></line><line x1="224" y1="0" x2="224" y2="5" style="visibility: inherit;" fill="rgb(0, 0, 0)" stroke="rgb(204, 204, 204)" stroke-width="1px"></line><line x1="336" y1="0" x2="336" y2="5" style="visibility: inherit;" fill="rgb(0, 0, 0)" stroke="rgb(204, 204, 204)" stroke-width="1px"></line><line x1="448" y1="0" x2="448" y2="5" style="visibility: inherit;" fill="rgb(0, 0, 0)" stroke="rgb(204, 204, 204)" stroke-width="1px"></line><line x1="560" y1="0" x2="560" y2="5" style="visibility: inherit;" fill="rgb(0, 0, 0)" stroke="rgb(204, 204, 204)" stroke-width="1px"></line><line x1="672" y1="0" x2="672" y2="5" style="visibility: inherit;" fill="rgb(0, 0, 0)" stroke="rgb(204, 204, 204)" stroke-width="1px"></line><line x1="784" y1="0" x2="784" y2="5" style="visibility: inherit;" fill="rgb(0, 0, 0)" stroke="rgb(204, 204, 204)" stroke-width="1px"></line><line x1="896" y1="0" x2="896" y2="5" style="visibility: inherit;" fill="rgb(0, 0, 0)" stroke="rgb(204, 204, 204)" stroke-width="1px"></line><line x1="1008" y1="0" x2="1008" y2="5" style="visibility: inherit;" fill="rgb(0, 0, 0)" stroke="rgb(204, 204, 204)" stroke-width="1px"></line><line x1="1120" y1="0" x2="1120" y2="5" style="visibility: inherit;" fill="rgb(0, 0, 0)" stroke="rgb(204, 204, 204)" stroke-width="1px"></line><line x1="1232" y1="0" x2="1232" y2="5" style="visibility: inherit;" fill="rgb(0, 0, 0)" stroke="rgb(204, 204, 204)" stroke-width="1px"></line><line x1="1344" y1="0" x2="1344" y2="5" style="visibility: inherit;" fill="rgb(0, 0, 0)" stroke="rgb(204, 204, 204)" stroke-width="1px"></line><line x1="1456" y1="0" x2="1456" y2="5" style="visibility: inherit;" fill="rgb(0, 0, 0)" stroke="rgb(204, 204, 204)" stroke-width="1px"></line></g><g transform="translate(0, 8)"><text x="0" y="0" dx="0em" dy="0.95em" style="text-anchor: middle; visibility: hidden; font-family: &quot;Helvetica Neue&quot;, sans-serif; font-size: 12px; font-weight: 200;" fill="rgb(50, 49, 63)" stroke="none" stroke-width="1px">-2k</text><text x="112" y="0" dx="0em" dy="0.95em" style="text-anchor: middle; visibility: inherit; font-family: &quot;Helvetica Neue&quot;, sans-serif; font-size: 12px; font-weight: 200;" fill="rgb(50, 49, 63)" stroke="none" stroke-width="1px">0</text><text x="224" y="0" dx="0em" dy="0.95em" style="text-anchor: middle; visibility: inherit; font-family: &quot;Helvetica Neue&quot;, sans-serif; font-size: 12px; font-weight: 200;" fill="rgb(50, 49, 63)" stroke="none" stroke-width="1px">2k</text><text x="336" y="0" dx="0em" dy="0.95em" style="text-anchor: middle; visibility: inherit; font-family: &quot;Helvetica Neue&quot;, sans-serif; font-size: 12px; font-weight: 200;" fill="rgb(50, 49, 63)" stroke="none" stroke-width="1px">4k</text><text x="448" y="0" dx="0em" dy="0.95em" style="text-anchor: middle; visibility: inherit; font-family: &quot;Helvetica Neue&quot;, sans-serif; font-size: 12px; font-weight: 200;" fill="rgb(50, 49, 63)" stroke="none" stroke-width="1px">6k</text><text x="560" y="0" dx="0em" dy="0.95em" style="text-anchor: middle; visibility: inherit; font-family: &quot;Helvetica Neue&quot;, sans-serif; font-size: 12px; font-weight: 200;" fill="rgb(50, 49, 63)" stroke="none" stroke-width="1px">8k</text><text x="672" y="0" dx="0em" dy="0.95em" style="text-anchor: middle; visibility: inherit; font-family: &quot;Helvetica Neue&quot;, sans-serif; font-size: 12px; font-weight: 200;" fill="rgb(50, 49, 63)" stroke="none" stroke-width="1px">10k</text><text x="784" y="0" dx="0em" dy="0.95em" style="text-anchor: middle; visibility: inherit; font-family: &quot;Helvetica Neue&quot;, sans-serif; font-size: 12px; font-weight: 200;" fill="rgb(50, 49, 63)" stroke="none" stroke-width="1px">12k</text><text x="896" y="0" dx="0em" dy="0.95em" style="text-anchor: middle; visibility: inherit; font-family: &quot;Helvetica Neue&quot;, sans-serif; font-size: 12px; font-weight: 200;" fill="rgb(50, 49, 63)" stroke="none" stroke-width="1px">14k</text><text x="1008" y="0" dx="0em" dy="0.95em" style="text-anchor: middle; visibility: inherit; font-family: &quot;Helvetica Neue&quot;, sans-serif; font-size: 12px; font-weight: 200;" fill="rgb(50, 49, 63)" stroke="none" stroke-width="1px">16k</text><text x="1120" y="0" dx="0em" dy="0.95em" style="text-anchor: middle; visibility: inherit; font-family: &quot;Helvetica Neue&quot;, sans-serif; font-size: 12px; font-weight: 200;" fill="rgb(50, 49, 63)" stroke="none" stroke-width="1px">18k</text><text x="1232" y="0" dx="0em" dy="0.95em" style="text-anchor: middle; visibility: inherit; font-family: &quot;Helvetica Neue&quot;, sans-serif; font-size: 12px; font-weight: 200;" fill="rgb(50, 49, 63)" stroke="none" stroke-width="1px">20k</text><text x="1344" y="0" dx="0em" dy="0.95em" style="text-anchor: middle; visibility: inherit; font-family: &quot;Helvetica Neue&quot;, sans-serif; font-size: 12px; font-weight: 200;" fill="rgb(50, 49, 63)" stroke="none" stroke-width="1px">22k</text><text x="1456" y="0" dx="0em" dy="0.95em" style="text-anchor: middle; visibility: hidden; font-family: &quot;Helvetica Neue&quot;, sans-serif; font-size: 12px; font-weight: 200;" fill="rgb(50, 49, 63)" stroke="none" stroke-width="1px">24k</text></g><line x1="0" y1="0" x2="1456" y2="0" fill="rgb(0, 0, 0)" stroke="rgb(204, 204, 204)" stroke-width="1px"></line></g></g></g></g></svg>