<svg viewBox="0 0 1496 400" xmlns="http://www.w3.org/2000/svg"><g><g><g><g><g><line x1="40" y1="347.45075194027095" x2="35" y2="347.45075194027095" style="visibility: inherit;" fill="rgb(0, 0, 0)" stroke="rgb(204, 204, 204)" stroke-width="1px"></line><line x1="40" y1="258.89678987799317" x2="35" y2="258.89678987799317" style="visibility: inherit;" fill="rgb(0, 0, 0)" stroke="rgb(204, 204, 204)" stroke-width="1px"></line><line x1="40" y1="182.187858786376" x2="35" y2="182.187858786376" style="visibility: inherit;" fill="rgb(0, 0, 0)" stroke="rgb(204, 204, 204)" stroke-width="1px"></line><line x1="40" y1="114.52578630778982" x2="35" y2="114.52578630778982" style="visibility: inherit;" fill="rgb(0, 0, 0)" stroke="rgb(204, 204, 204)" stroke-width="1px"></line><line x1="40" y1="53.999999999999886" x2="35" y2="53.999999999999886" style="visibility: inherit;" fill="rgb(0, 0, 0)" stroke="rgb(204, 204, 204)" stroke-width="1px"></line></g><g transform="translate(30, 0)"><text x="0" y="347.45075194027095" dx="0em" dy="0.3em" style="text-anchor: end; visibility: inherit; font-family: &quot;Helvetica Neue&quot;, sans-serif; font-size: 12px; font-weight: 200;" fill="rgb(50, 49, 63)" stroke="none" stroke-width="1px">0.6</text><text x="0" y="258.89678987799317" dx="0em" dy="0.3em" style="text-anchor: end; visibility: inherit; font-family: &quot;Helvetica Neue&quot;, sans-serif; font-size: 12px; font-weight: 200;" fill="rgb(50, 49, 63)" stroke="none" stroke-width="1px">0.7</text><text x="0" y="182.187858786376" dx="0em" dy="0.3em" style="text-anchor: end; visibility: inherit; font-family: &quot;Helvetica Neue&quot;, sans-serif; font-size: 12px; font-weight: 200;" fill="rgb(50, 49, 63)" stroke="none" stroke-width="1px">0.8</text><text x="0" y="114.52578630778982" dx="0em" dy="0.3em" style="text-anchor: end; visibility: inherit; font-family: &quot;Helvetica Neue&quot;, sans-serif; font-size: 12px; font-weight: 200;" fill="rgb(50, 49, 63)" stroke="none" stroke-width="1px">0.9</text><text x="0" y="53.999999999999886" dx="0em" dy="0.3em" style="text-anchor: end; visibility: inherit; font-family: &quot;Helvetica Neue&quot;, sans-serif; font-size: 12px; font-weight: 200;" fill="rgb(50, 49, 63)" stroke="none" stroke-width="1px">1</text></g><line x1="40" y1="0" x2="40" y2="378" fill="rgb(0, 0, 0)" stroke="rgb(204, 204, 204)" stroke-width="1px"></line></g></g><g transform="translate(40, 0)" clip-path="url(#clip_0)"><clipPath id="clip_0"><rect width="1456" height="378"></rect></clipPath><g><g><g><line x1="0" y1="0" x2="0" y2="378" fill="rgb(0, 0, 0)" stroke="rgb(60, 60, 60)" stroke-width="1px" opacity="0.25"></line><line x1="112" y1="0" x2="112" y2="378" fill="rgb(0, 0, 0)" stroke="rgb(60, 60, 60)" stroke-width="1px" opacity="0.25"></line><line x1="224" y1="0" x2="224" y2="378" fill="rgb(0, 0, 0)" stroke="rgb(60, 60, 60)" stroke-width="1px" opacity="0.25"></line><line x1="336" y1="0" x2="336" y2="378" fill="rgb(0, 0, 0)" stroke="rgb(60, 60, 60)" stroke-width="1px" opacity="0.25"></line><line x1="448" y1="0" x2="448" y2="378" fill="rgb(0, 0, 0)" stroke="rgb(60, 60, 60)" stroke-width="1px" opacity="0.25"></line><line x1="560" y1="0" x2="560" y2="378" fill="rgb(0, 0, 0)" stroke="rgb(60, 60, 60)" stroke-width="1px" opacity="0.25"></line><line x1="672" y1="0" x2="672" y2="378" fill="rgb(0, 0, 0)" stroke="rgb(60, 60, 60)" stroke-width="1px" opacity="0.25"></line><line x1="784" y1="0" x2="784" y2="378" fill="rgb(0, 0, 0)" stroke="rgb(60, 60, 60)" stroke-width="1px" opacity="0.25"></line><line x1="896" y1="0" x2="896" y2="378" fill="rgb(0, 0, 0)" stroke="rgb(60, 60, 60)" stroke-width="1px" opacity="0.25"></line><line x1="1008" y1="0" x2="1008" y2="378" fill="rgb(0, 0, 0)" stroke="rgb(60, 60, 60)" stroke-width="1px" opacity="0.25"></line><line x1="1120" y1="0" x2="1120" y2="378" fill="rgb(0, 0, 0)" stroke="rgb(60, 60, 60)" stroke-width="1px" opacity="0.25"></line><line x1="1232" y1="0" x2="1232" y2="378" fill="rgb(0, 0, 0)" stroke="rgb(60, 60, 60)" stroke-width="1px" opacity="0.25"></line><line x1="1344" y1="0" x2="1344" y2="378" fill="rgb(0, 0, 0)" stroke="rgb(60, 60, 60)" stroke-width="1px" opacity="0.25"></line><line x1="1456" y1="0" x2="1456" y2="378" fill="rgb(0, 0, 0)" stroke="rgb(60, 60, 60)" stroke-width="1px" opacity="0.25"></line></g><g><line x1="0" y1="347.45075194027095" x2="1456" y2="347.45075194027095" fill="rgb(0, 0, 0)" stroke="rgb(60, 60, 60)" stroke-width="1px" opacity="0.25"></line><line x1="0" y1="258.89678987799317" x2="1456" y2="258.89678987799317" fill="rgb(0, 0, 0)" stroke="rgb(60, 60, 60)" stroke-width="1px" opacity="0.25"></line><line x1="0" y1="182.187858786376" x2="1456" y2="182.187858786376" fill="rgb(0, 0, 0)" stroke="rgb(60, 60, 60)" stroke-width="1px" opacity="0.25"></line><line x1="0" y1="114.52578630778982" x2="1456" y2="114.52578630778982" fill="rgb(0, 0, 0)" stroke="rgb(60, 60, 60)" stroke-width="1px" opacity="0.25"></line><line x1="0" y1="53.999999999999886" x2="1456" y2="53.999999999999886" fill="rgb(0, 0, 0)" stroke="rgb(60, 60, 60)" stroke-width="1px" opacity="0.25"></line></g></g></g><g><g><line x1="112" y1="0" x2="112" y2="378" fill="rgb(0, 0, 0)" stroke="rgb(153, 153, 153)" stroke-width="1.5px"></line></g></g><g><g><g><g><g><path stroke="rgb(204, 51, 17)" stroke-width="2px" d="M117.60000000000001,219.2628931538949L123.2,292.3442790772854L128.8,270.66935703814687L134.4,279.87899233739273L140,250.6183420778276L145.6,218.2340494702759L151.20000000000002,204.6960962943654L156.8,208.77426712164456L162.4,198.78501552071683L168,223.45082811474907L173.60000000000002,235.29415915590315L179.20000000000002,212.0239061426867L184.79999999999998,213.9088227614558L190.4,209.14597534336124L196,217.90324535935906L201.60000000000002,224.45874322638258L207.2,181.21434315686048L212.8,184.93440774638694L218.4,193.56059652598088L224,194.13771144275879L229.6,200.47866582076833L235.20000000000002,205.23638812975616L240.79999999999998,185.19545417372143L246.4,165.1269582366997L252,161.63167608145054L257.6,153.55187895452238L263.2,153.05160623390898L268.8,136.53363785188276L274.4,156.60841561761782L280,149.86519460014492L285.6,161.28342287707926L291.2,169.9277489080182L296.8,159.62934307568167L302.40000000000003,163.09360829703215L308,165.68457618283085L313.6,178.9323282195289L319.2,166.19617577553961L324.8,151.42928012668895L330.4,168.0468164836508L336,175.02800047520012L341.6,163.3525814416382L347.20000000000005,165.87803926761526L352.8,162.18913239818087L358.40000000000003,165.0083931125974L364,161.54613558784735L369.59999999999997,170.1254933392137L375.19999999999993,176.59269993176542L380.8,175.7431530445101L386.4,175.11190450376208L392,180.34054975826942L397.59999999999997,172.84514103754083L403.20000000000005,161.76044950434436L408.8,137.4810236690735L414.4,135.7397505313871L419.99999999999994,150.53029794635626L425.6,150.8041618583131L431.2,156.47508249304298L436.8,149.76808980135962L442.4,161.20852135965436L448,158.7336059661492L453.6,151.42806259030527L459.2,162.4679439018719L464.79999999999995,170.82149068062165L470.40000000000003,171.45019115022347L476,149.77912045924032L481.59999999999997,155.7047149246648L487.2,165.70859171747276L492.8,145.65969592859247L498.40000000000003,158.08770861350715L504,145.53848632967552L509.59999999999997,136.3765564202211L515.2,145.6007530360135L520.8,141.75152846310996L526.4,133.60119378783054L532,138.15566359164015L537.6,136.24008781975434L543.2,134.8190320743349L548.8,144.42280858350134L554.4,140.88075762004044L560,132.96233798580502L565.6,121.94489719112755L571.2,139.96945693892758L576.8,142.92473249026375L582.4,129.19904375050805L588,134.8512351041862L593.6,144.44717138046985L599.1999999999999,125.07988227165364L604.8000000000001,137.03956527437833L610.4,130.14110739908406L616,125.06186922260508L621.6,126.502239054346L627.2,127.5762221061548L632.8000000000001,123.16928474797055L638.4,114.78085594803213L644,118.81657541291878L649.6,111.58616272815533L655.2,106.26516708120465L660.8,117.53476993380366L666.4,136.5807255335583L672,135.07182105762172L677.6,123.48377529838055L683.2,120.14495945738622L688.8,128.03509645167972L694.4000000000001,144.63922077169207L700,130.44399810693446L705.6,146.48309491353228L711.1999999999999,137.06807326446497L716.8000000000001,135.43341706283283L722.4,139.52913993683063L728,131.97019012250087L733.6,131.64704400501176L739.1999999999999,131.40674116873436L744.8,136.50920966591715L750.3999999999999,135.01875197395728L756.0000000000001,139.21839356952765L761.6,137.02793832075457L767.2,124.90940532447951L772.8,142.24398622949968L778.4,133.9623795834169L784,127.87740598895326L789.5999999999999,133.8579301945307L795.1999999999999,127.80051259760512L800.8000000000001,160.82901703055848L806.4000000000001,142.14962220549015L812,133.8931760921603L817.6,138.37461363718552L823.1999999999999,136.40243636707797L828.8,134.93951658028485L834.4,123.38730348093145L839.9999999999999,120.07359881620005L845.6,122.77754950729351L851.2,124.79757822844871L856.8000000000001,130.49000730427443L862.4,130.5460438491006L868,125.36046228248836L873.6,147.97699811626498L879.1999999999999,127.61681921319948L884.8,133.66201368677358L890.4000000000001,143.54726034542244L896,145.59824416313074L901.6,147.1289408657003L907.2,159.20439054645186L912.8,157.24827185399334L918.4,150.33656449107758L924,156.1237029443152L929.5999999999999,133.45519229437522L935.2,138.0461703742276L940.8000000000001,136.158894056013L946.4,145.43618334500334L952,136.30164549935122L957.6,134.86471720383804L963.1999999999999,133.79796955632565L968.8,122.55467727657276L974.4,119.45757182441974L980.0000000000001,132.76355333635965L985.6,132.23686981792886L991.2,116.27046643550756L996.8000000000001,119.93229583754953L1002.4,133.12498869708864L1008,127.26083311698505L1013.5999999999999,117.77798683394764L1019.1999999999999,131.4842144534067L1024.8000000000002,115.72574168383642L1030.4,124.69858204462287L1036,142.08232159448775L1041.6,149.9093209975555L1047.2,144.93257578818887L1052.8,141.2576495317003L1058.3999999999999,127.98753708629675L1064,144.60279859362598L1069.6000000000001,151.80925480340275L1075.2,151.75588846410443L1080.8,151.71618712375673L1086.4,140.89352015047876L1092,154.46052423355258L1097.6,159.22022704906786L1103.2,162.78720811148565L1108.8,138.21313461072356L1114.3999999999999,131.0035871313593L1120,130.92814079099372L1125.6000000000001,125.6421631938396L1131.2,126.93500607408077L1136.8,127.89877234362993L1142.4,123.40741070990114L1148,130.49420953277132L1153.6,130.5491706091633L1159.1999999999998,120.18260719030292L1164.8,133.31553677340813L1170.4,127.40115494004152L1176,128.2461335211705L1181.6,128.87560491055598L1187.2,118.95926251702218L1192.8,116.79480350460318L1198.3999999999999,130.73491092500873L1204,136.00483500400895L1209.6000000000001,156.19710079055938L1215.2,149.56365917456353L1220.8,161.0533586548609L1226.4,147.69573534590992L1232,143.29904910783773L1237.6,140.04960811647908L1243.2,132.35231055811403L1248.8,126.69169822237274L1254.4,154.4549186041477L1260,142.89182049485646L1265.6000000000001,150.5197443991972L1271.2,134.7063231758887L1276.8,118.05631619972792L1282.3999999999999,126.45895215589073L1288,132.79122986948474L1293.6,132.25744216133302L1299.2,131.86062564237497L1304.8,142.1832462423238L1310.4,128.6603076603455L1316,139.75740174710091L1321.6,137.4273856841266L1327.2,141.02261691122095L1332.8,127.8166563427942L1338.3999999999999,139.11736882865748L1344,147.6717178138441" style="fill: none;" fill="none"></path></g><g><path stroke="rgb(0, 119, 187)" stroke-width="2px" d="M117.60000000000001,323.99999999999994L123.2,323.99999999999983L128.8,287.66829934397805L134.4,261.46276190974004L140,264.03252095926484L145.6,273.69100883346147L151.20000000000002,287.97923172621506L156.8,297.9291435288456L162.4,260.84019037751835L168,242.54255728759873L173.60000000000002,229.7224095416033L179.20000000000002,226.94693204956207L184.79999999999998,231.28557636393205L190.4,228.13367395428702L196,232.12912874499926L201.60000000000002,210.22517316480668L207.2,218.66941690656375L212.8,231.2616119922987L218.4,240.78429948243723L224,247.95721928665444L229.6,280.01435775461255L235.20000000000002,277.23468999584026L240.79999999999998,255.24244610790345L246.4,226.85512095386983L252,224.9007333488881L257.6,248.69942442707978L263.2,234.68498366141966L268.8,236.98297032397014L274.4,245.07330269609494L280,232.05278394494889L285.6,216.42361061359708L291.2,223.287447599337L296.8,222.25441387795487L302.40000000000003,197.39289567285036L308,196.98779515288038L313.6,233.17065203897596L319.2,211.16020395086792L324.8,195.31490165794028L330.4,225.6147302379994L336,211.7565596469994L341.6,232.16836465008492L347.20000000000005,192.6192122604458L352.8,199.32322389805077L358.40000000000003,222.559641597165L364,209.53621470010953L369.59999999999997,205.9915025446371L375.19999999999993,191.56955705917343L380.8,192.65267905208898L386.4,187.63104719403168L392,189.7143383799046L397.59999999999997,209.05010399629774L403.20000000000005,193.78712596451336L408.8,212.18141829147334L414.4,207.94625733326387L419.99999999999994,204.81543135367812L425.6,202.49711707594162L431.2,194.8751927764297L436.8,195.11490609376378L442.4,207.16963521678906L448,204.24066420018045L453.6,190.29871053257727L459.2,185.89400668724633L464.79999999999995,165.64508631474902L470.40000000000003,145.61406763915267L476,131.15141698664598L481.59999999999997,125.80675072491798L487.2,148.32233947496033L492.8,143.76162212039443L498.40000000000003,156.64408667109333L504,166.41962029681667L509.59999999999997,162.58945135707745L515.2,148.8119130143604L520.8,144.12294420327007L526.4,151.44769910709505L532,156.95855646976986L537.6,144.71633027498598L543.2,141.0977809545673L548.8,138.42029097523783L554.4,120.73816250577869L560,107.92698195800102L565.6,123.96282304414439L571.2,125.68229668957005L576.8,126.96493240378712L582.4,143.81949101749333L588,145.80149599212822L593.6,158.19551190429965L599.1999999999999,140.25176409703613L604.8000000000001,132.50070582610329L610.4,142.66803498621385L616,150.35101435598455L621.6,161.65088642937118L627.2,153.56964678211943L632.8000000000001,131.6273418187577L638.4,136.6747929126034L644,129.8729337234509L649.6,130.08683321802508L655.2,125.02184418975327L660.8,142.33020154453789L666.4,123.55628442858259L672,141.20613837246805L677.6,143.84931788554192L683.2,129.87054635551988L688.8,119.68666134602728L694.4000000000001,122.48828520981144L700,114.28145799438556L705.6,113.32395671536926L711.1999999999999,102.52300362713265L716.8000000000001,114.69321365245338L722.4,123.91811681810694L728,115.32981529218955L733.6,124.39935047649595L739.1999999999999,131.24121416384088L744.8,131.10490272188403L750.3999999999999,115.45114493427866L756.0000000000001,109.11167997553082L761.6,109.47960930000977L767.2,130.3756558482194L772.8,120.05581575951732L778.4,127.96785504295565L784,118.29531377344534L789.5999999999999,121.4477440850576L795.1999999999999,123.80442679299236L800.8000000000001,120.38212440631594L806.4000000000001,112.73594685853408L812,102.09361356477723L817.6,104.24668386934172L823.1999999999999,110.90580742232561L828.8,105.76357159231839L834.4,96.99306513559674L839.9999999999999,110.48599958127039L845.6,100.44951135711358L851.2,108.04543873803607L856.8000000000001,109.69745297980216L862.4,120.1371022976196L868,112.55605052254276L873.6,101.96222184841167L879.1999999999999,94.20525145597588L884.8,103.33158783961727L890.4000000000001,90.2936717707397L896,85.61722408387658L901.6,91.89775160068177L907.2,101.58646167497068L912.8,93.9294114919739L918.4,93.19733920611668L924,97.59000964409444L929.5999999999999,90.99271003157168L935.2,95.93638194056962L940.8000000000001,89.7759964965876L946.4,95.02308202766136L952,84.23896783270021L957.6,90.86074857443418L963.1999999999999,81.19681599428009L968.8,83.70950896053762L974.4,80.75103951565279L980.0000000000001,88.23367495159931L985.6,79.27369982847688L991.2,82.2718309344159L996.8000000000001,84.512636069834L1002.4,81.34538876212144L1008,79.00023419509057L1013.5999999999999,82.06729560435355L1019.1999999999999,89.2255286511749L1024.8000000000002,80.00005072591614L1030.4,82.81497715427275L1036,75.29958034289365L1041.6,74.5143821615714L1047.2,73.9308902087709L1052.8,83.0854587417781L1058.3999999999999,85.12023206574298L1064,76.99149535548236L1069.6000000000001,75.77097154763254L1075.2,79.6501532084273L1080.8,82.55335455761298L1086.4,75.10745138897079L1092,79.1530773799276L1097.6,77.37499715982665L1103.2,80.85121302210717L1108.8,73.85687487769809L1114.3999999999999,73.44212961827577L1120,68.40193779654771L1125.6000000000001,64.6805173000173L1131.2,76.07892527192797L1136.8,75.0933218211776L1142.4,83.96398331935427L1148,80.93938506688869L1153.6,73.9216796958512L1159.1999999999998,68.7555676526822L1164.8,64.94189804965907L1170.4,66.80101362350678L1176,68.18810948621598L1181.6,73.96089150634987L1187.2,68.78447980059644L1192.8,64.96326621852103L1198.3999999999999,62.136683210046954L1204,60.04269177886624L1209.6000000000001,58.489699186956045L1215.2,61.97817117078756L1220.8,59.92518372558794L1226.4,63.05233917322283L1232,65.39003691088493L1237.6,67.13547661390993L1243.2,63.7440853651583L1248.8,61.23381621768215L1254.4,59.37326679709952L1260,57.992916950063545L1265.6000000000001,56.96808420127087L1271.2,60.83881490121689L1276.8,63.735654144309194L1282.3999999999999,65.90041945657475L1288,62.83035596175182L1293.6,60.556826175220465L1299.2,58.871138437823106L1304.8,57.6201880561228L1310.4,66.00085309734936L1316,62.9046786319891L1321.6,69.98578839436311L1327.2,70.56163497117706L1332.8,66.27617345096468L1338.3999999999999,67.79663895971316L1344,73.66667096347493" style="fill: none;" fill="none"></path></g><g><path stroke="rgb(255, 112, 67)" stroke-width="2px" d="M117.60000000000001,269.2477663024317L123.2,269.2477663024317L128.8,316.6083277809022L134.4,308.9050216017198L140,277.6043265797753L145.6,275.01512358676297L151.20000000000002,304.9944987902322L156.8,264.6231325034804L162.4,244.8480737985094L168,258.21092729991693L173.60000000000002,221.39977175455053L179.20000000000002,220.83575684132936L184.79999999999998,220.42388170854622L190.4,207.78294620380032L196,180.9711490320712L201.60000000000002,150.85764832057382L207.2,134.84732996411L212.8,139.1107925757153L218.4,116.01080016933412L224,104.45263956102866L229.6,96.01538766815571L235.20000000000002,84.94695657114164L240.79999999999998,76.85544837520604L246.4,70.91240610322109L252,66.5325007083186L257.6,63.29657298948558L263.2,60.90147077999484L268.8,59.126333537367714L274.4,57.80938123402922L280,56.83163430989322L285.6,56.10532985901369L291.2,55.56558828173172L296.8,55.164367993387714L302.40000000000003,54.86605213779734L308,54.6442113247827L313.6,54.479220488232954L319.2,54.35649979430639L324.8,54.26521357342159L330.4,54.19730657176217L336,54.146789266993665L341.6,54.109207438597934L347.20000000000005,54.08124824430354L352.8,54.06044753693158L358.40000000000003,54.04497232715755L364,54.033459056976824L369.59999999999997,54.0248933422065L375.19999999999993,54.01852053800849L380.8,54.013779220168885L386.4,54.010251706533325L392,54.00762725124338L397.59999999999997,54.00567466473041L403.20000000000005,54.00422194491631L408.8,54.00314112389407L414.4,54.00233699444817L419.99999999999994,54.00173872291225L425.6,54.001293609316974L431.2,54.00096244503851L436.8,54.00071605894624L442.4,54.00053274776627L448,58.61459031634058L453.6,57.429720470920415L459.2,56.54976011348282L464.79999999999995,55.89594298885061L470.40000000000003,55.409985364347335L476,55.048699406459036L481.59999999999997,54.78004998837872L487.2,54.58025629783549L492.8,54.43165485996877L498.40000000000003,54.32112032361675L504,54.23889642465065L509.59999999999997,54.177729478196625L515.2,58.747482620311246L520.8,57.52838570296706L526.4,61.25844615786366L532,59.39153211777119L537.6,58.0064736787603L543.2,56.97815239914962L548.8,60.846356267181136L554.4,59.08590368427883L560,57.77961815157363L565.6,56.80966518325857L571.2,56.08908118750361L576.8,55.553552488198136L582.4,55.15544277186456L588,54.85942803161112L593.6,54.63929198119399L599.1999999999999,54.47556547025107L604.8000000000001,54.35378321261288L610.4,54.263193959218654L616,58.81157482814217L621.6,62.219088329079284L627.2,69.46930679385844L632.8000000000001,65.46932085040561L638.4,62.51129700411161L644,60.32036692160119L649.6,63.347934724579034L655.2,60.94033902965509L660.8,59.155611434254695L666.4,57.83136211115368L672,56.84809729768352L677.6,60.74893875628959L683.2,59.01364524584483L688.8,57.725979111965444L694.4000000000001,56.76982458420599L700,56.05947667574634L705.6,55.53154710928328L711.1999999999999,55.13908203162788L716.8000000000001,54.84726186714357L722.4,54.63024379822048L728,54.468835526895134L733.6,54.34877718859809L739.1999999999999,54.2594700604771L744.8,54.1930345633869L750.3999999999999,54.14361153763855L756.0000000000001,54.10684356486479L761.6,54.07948971978402L767.2,54.05913930402403L772.8,54.04399906239138L778.4,54.03273498148741L784,54.02435464858348L789.5999999999999,54.018119760215825L795.1999999999999,54.01348104717198L800.8000000000001,54.01002986896799L806.4000000000001,54.00746220583545L812,54.00555187191037L817.6,54.00413058759153L823.1999999999999,54.00307315433969L828.8,54.002286425263094L834.4,54.00170109952904L839.9999999999999,54.00126561756986L845.6,54.00094161920646L851.2,54.000700564542626L856.8000000000001,54.000521219938264L862.4,54.000387787589034L868,54.00028851394126L873.6,54.0002146543585L879.1999999999999,54.00015970283499L884.8,58.61431044144035L890.4000000000001,57.42951269036587L896,56.54960577094624L901.6,55.8958282939185L907.2,55.40990010640263L912.8,55.04863601604916L918.4,54.780002848860704L924,54.58022123872581L929.5999999999999,54.431628783012115L935.2,54.32110092624572L940.8000000000001,54.238881995156135L946.4,54.17771874384226L952,54.13221750930967L957.6,54.09836692881845L963.1999999999999,54.07318339094371L968.8,54.054447554981834L974.4,54.04050848945133L980.0000000000001,54.03013804412137L985.6,54.02242255425085L991.2,54.016682297014995L996.8000000000001,54.012411582843754L1002.4,54.00923419209823L1008,54.006870224785416L1013.5999999999999,54.005111439415714L1019.1999999999999,54.003802906594046L1024.8000000000002,54.00282936010842L1030.4,54.00210504259354L1036,54.00156615095494L1041.6,54.001165215903825L1047.2,54.00086692040742L1052.8,54.00064498865851L1058.3999999999999,54.00047987149293L1064,54.000357024352525L1069.6000000000001,54.00026562609719L1075.2,54.00019762580462L1080.8,54.0001470335921L1086.4,54.00010939298892L1092,54.00008138838177L1097.6,54.00006055295495L1103.2,54.00004505139782L1108.8,54.000033518239604L1114.3999999999999,54.00002493757012L1120,54.000018553552025L1125.6000000000001,54.000013803842705L1131.2,54.00001027005885L1136.8,54.000007640923855L1142.4,54.000005684847224L1148,54.000004229526326L1153.6,54.00000314676754L1159.1999999999998,54.000002341195L1164.8,54.00000174184902L1170.4,54.000001295935704L1176,54.00000096417614L1181.6,54.00000071734695L1187.2,54.0000005337061L1192.8,54.000000397077315L1198.3999999999999,54.00000029542554L1204,54.000000219796505L1209.6000000000001,54.00000016352857L1215.2,54.00000012166521L1220.8,54.00000009051894L1226.4,54.000000067346036L1232,54.000000050105484L1237.6,54.00000003727848L1243.2,54.000000027735155L1248.8,54.00000002063484L1254.4,54.00000001535233L1260,54.00000001142212L1265.6000000000001,54.000000008498034L1271.2,54.00000000632252L1276.8,54.00000000470391L1282.3999999999999,54.00000000349962L1288,54.00000000260371L1293.6,54.00000000193717L1299.2,54.00000000144121L1304.8,54.00000000107224L1310.4,54.00000000079774L1316,54.000000000593445L1321.6,54.000000000441446L1327.2,54.00000000032844L1332.8,54.00000000024437L1338.3999999999999,54.00000000018167L1344,54.000000000135174" style="fill: none;" fill="none"></path></g><g><path stroke="rgb(51, 187, 238)" stroke-width="2px" d="M117.60000000000001,72.23847309156582L123.2,61.7099244259818L128.8,58.34146355850976L134.4,63.43165063186228L140,60.28701395517163L145.6,58.34146355850976L151.20000000000002,57.066149975074325L156.8,56.19822911738686L162.4,60.56840554354005L168,63.696414640157116L173.60000000000002,61.09826782962017L179.20000000000002,59.21876231119995L184.79999999999998,67.38321242151994L190.4,73.45304804000102L196,73.13814266793537L201.60000000000002,87.46367256581999L207.2,83.50153528582064L212.8,80.5828911414776L218.4,73.63457725494175L224,68.5301377585368L229.6,64.76774453066474L235.20000000000002,61.98777700271836L240.79999999999998,64.59749576189898L246.4,66.54554287193906L252,67.99846458273748L257.6,69.08142658287636L263.2,69.88825483280306L268.8,84.85959979649681L274.4,76.79878801806797L280,70.87474898283477L285.6,71.22359060903881L291.2,66.76458940917496L296.8,63.46955656621526L302.40000000000003,61.030340102611035L308,63.87895460440626L313.6,66.0074848977386L319.2,67.59622114516469L324.8,64.08477983537665L330.4,61.48614286859248L336,59.5603661515878L341.6,67.4649952916767L347.20000000000005,63.98777199528769L352.8,66.08869917725463L358.40000000000003,62.96967656383333L364,65.32828795569543L369.59999999999997,62.4069005050045L375.19999999999993,60.24298778182913L380.8,58.63830931683975L386.4,57.44733036445041L392,61.19774849283766L397.59999999999997,59.34651844119884L403.20000000000005,62.619407960342016L408.8,60.4004929930079L414.4,63.40786282738628L419.99999999999994,70.36476027980939L425.6,70.84384909470947L431.2,66.4845666474593L436.8,67.95208729574546L442.4,64.34795561296642L448,61.68107570777403L453.6,59.70491846976546L459.2,58.23905527097793L464.79999999999995,57.15087462127053L470.40000000000003,56.34260342453456L476,55.74198660059602L481.59999999999997,55.29553473263877L487.2,54.96359949890291L492.8,59.33673872312676L498.40000000000003,57.96580506252798L504,56.94794878669279L509.59999999999997,56.191832038826476L515.2,55.6299261357409L520.8,59.83620150754746L526.4,58.33647807623129L532,57.223218447319596L537.6,56.396350688977236L543.2,55.78193230149236L548.8,64.61254833710933L554.4,61.87700927094926L560,59.850186060095155L565.6,62.996235415437866L571.2,65.34812499154003L576.8,67.10419896814045L582.4,63.72095160758079L588,65.88943943541506L593.6,67.50812162643558L599.1999999999999,68.71538714318126L604.8000000000001,64.91220128042647L610.4,62.098876937515L616,60.01466601645183L621.6,58.46890418131284L627.2,57.32154980392778L632.8000000000001,56.46940238441317L638.4,55.836223776953034L644,55.365591251290596L649.6,55.01569062674025L655.2,54.755502758556474L660.8,54.56199941005184L666.4,54.41807519365898L672,54.3110189652715L677.6,54.23138207282176L683.2,54.17213938636485L688.8,54.12806679096144L694.4000000000001,54.095278973475615L700,54.07088605130156L705.6,54.05273838915758L711.1999999999999,54.03923690044866L716.8000000000001,54.029191998713884L722.4,63.28781546524033L728,60.895796764075556L733.6,59.12257445476814L739.1999999999999,57.806839011944874L744.8,56.829883214011204L750.3999999999999,60.73529509194975L756.0000000000001,59.003524945254526L761.6,57.71846644983327L767.2,56.764244449654996L772.8,56.05533018094269L778.4,55.52846494808608L784,55.13679046821636L789.5999999999999,54.84555780895323L795.1999999999999,54.62897645730533L800.8000000000001,54.46789288987975L806.4000000000001,54.34807601306676L812,54.25894846689437L817.6,54.19264654259268L823.1999999999999,54.14332287497842L828.8,54.10662881357706L834.4,54.079329952426065L839.9999999999999,54.05902044131631L845.6,54.04391063086513L851.2,54.03266918972071L856.8000000000001,54.02430570022233L862.4,54.01808334303007L868,54.013453953004216L873.6,54.01000971102815L879.1999999999999,54.00744720839509L884.8,54.005540713851815L890.4000000000001,54.00412228601647L896,54.00306697797919L901.6,54.0022818300572L907.2,54.00169768069935L912.8,54.001263073962434L918.4,54.00093972676365L924,58.61489545924684L929.5999999999999,57.42994704679768L935.2,56.549928437492554L940.8000000000001,55.89606808475838L946.4,55.41007835993287L952,55.048768553295076L957.6,54.78010141046826L963.1999999999999,54.580294543062735L968.8,54.43168330733266L974.4,54.32114148453542L980.0000000000001,54.238912166204955L985.6,54.17774118871256L991.2,54.13223420697045L996.8000000000001,54.09837935114592L1002.4,54.07319263275025L1008,54.054454430661565L1013.5999999999999,54.04051360483305L1019.1999999999999,54.030141849896665L1024.8000000000002,54.022425385709596L1030.4,54.01668440359924L1036,54.012413150130726L1041.6,54.00923535815343L1047.2,54.006871092326776L1052.8,54.00511208486455L1058.3999999999999,54.00380338680691L1064,54.00282971738625L1069.6000000000001,54.00210530840798L1075.2,54.0015663487207L1080.8,54.00116536304142L1086.4,54.00086702987767L1092,54.00064507010438L1097.6,54.000479932088695L1103.2,54.00035706943572L1108.8,54.000265659638956L1114.3999999999999,54.000197650759674L1120,54.000147052158695L1125.6000000000001,54.00010940680244L1131.2,54.000081398659006L1136.8,54.00006056060124L1142.4,54.00004505708665L1148,54.00003352247211L1153.6,54.000024940719015L1159.1999999999998,54.00001855589477L1164.8,54.00001380558564L1170.4,54.00001027135562L1176,54.000007641888544L1181.6,54.000005685564986L1187.2,54.00000423006037L1192.8,54.000003147164875L1198.3999999999999,54.0000023414907L1204,54.000001742069L1209.6000000000001,54.00000129609924L1215.2,54.00000096429784" style="fill: none;" fill="none"></path></g><g><path stroke="rgb(238, 51, 119)" stroke-width="2px" d="M117.60000000000001,219.2628931538949L123.2,205.6995175878586L128.8,191.3641467475466L134.4,201.5042213480958L140,199.61052510279268L145.6,157.25065428748533L151.20000000000002,161.9009669807299L156.8,183.85843691317385L162.4,180.9278690963109L168,161.0580877532858L173.60000000000002,164.28774799487172L179.20000000000002,160.91641298720734L184.79999999999998,147.3082999037636L190.4,137.51732922297907L196,135.74572453430878L201.60000000000002,118.65894839120557L207.2,106.33344840843881L212.8,97.36716743214339L218.4,85.90840798952121L224,87.23021937458162L229.6,83.34714023969576L235.20000000000002,75.67892863431291L240.79999999999998,70.04449956612797L246.4,65.89081463365102L252,62.8213634202977L257.6,60.549123431884766L263.2,63.52003535580462L268.8,61.06722088624019L274.4,59.249373664347104L280,62.547181211418035L285.6,60.346733609299235L291.2,58.71515363828968L296.8,57.50431384683526L302.40000000000003,56.605133088447985L308,55.93707175573536L313.6,55.44054720103054L319.2,55.07141642897699L324.8,54.79693985069656L330.4,68.56280853314621L336,64.79940058670701L341.6,62.01534601791252L347.20000000000005,59.952734602703174L352.8,63.07295818510852L358.40000000000003,60.73659425882164L364,63.65922066685948L369.59999999999997,65.84333999901008L375.19999999999993,62.788111844023376L380.8,60.52551884926629L386.4,58.84791301959632L392,57.60294537113964L397.59999999999997,56.67843693368235L403.20000000000005,55.99156675546607L408.8,55.48106769401562L414.4,55.10155052905253L419.99999999999994,54.81935235226064L425.6,54.60948681933587L431.2,54.45339659417539L436.8,54.33729297934411L442.4,54.25092711283713L448,58.8023758126767L453.6,57.569139141238736L459.2,61.288963999096836L464.79999999999995,59.4141635528556L470.40000000000003,58.023270825239194L476,56.99062707425884L481.59999999999997,56.223542614316216L487.2,60.28104025209126L492.8,58.66654223535551L498.40000000000003,57.468292624525475L504,56.578413631772435L509.59999999999997,55.917236825648786L515.2,55.425814510169914L520.8,55.0604688465595L526.4,54.78880233561637L532,54.58676576758472L537.6,54.436496646052774L543.2,54.32472191565091L548.8,54.24157562354361L554.4,54.17972258879382L560,54.13370825120421L565.6,54.09947597506516L571.2,54.07400848497508L576.8,54.055061404807134L582.4,54.04096518257711L588,54.03047781763843L593.6,54.02267534233317L599.1999999999999,54.01687036945833L604.8000000000001,54.01255150769538L610.4,54.00933829560904L616,54.00694767747672L621.6,54.00516906404056L627.2,54.00384577921676L632.8000000000001,54.00286125728536L638.4,54.00212877406318L644,54.001583807151746L649.6,63.26694111532231L655.2,60.88033070825787L660.8,59.11110313297223L666.4,57.79832385180447L672,56.82355868768002L677.6,56.09940496484353L683.2,55.56122620387839L688.8,55.161148051363L694.4000000000001,54.86367056746252L700,54.64244721555593L705.6,54.47791229400792L711.1999999999999,54.355528878466885L716.8000000000001,54.264492529316556L722.4,54.19677084390247L728,54.146391088883036L733.6,54.108911417354534L739.1999999999999,54.08102812807232L744.8,54.06028383885223L750.3999999999999,54.04485057364411L756.0000000000001,54.03336849331737L761.6,54.024825974442535L767.2,54.01847042281224L772.8,54.01374193801655L778.4,54.01022397057898L784,54.00760661678231L789.5999999999999,54.00565931329402L795.1999999999999,54.004210523781296L800.8000000000001,54.003132626754336L806.4000000000001,54.0023306726784L812,54.001734019572154L817.6,54.00129011006322L823.1999999999999,54.00095984161106L828.8,54.000714122005945L834.4,54.00053130668783L839.9999999999999,54.00039529212887L845.6,54.000294097317976L851.2,54.00021880839017L856.8000000000001,54.00016279343441L862.4,54.00012111831086L868,54.00009011202076L873.6,54.00006704334214L879.1999999999999,54.00004988024568L884.8,54.00003711090238L890.4000000000001,54.000027610511154L896,54.00002054222017L901.6,54.00001528341164L907.2,54.00001137085832L912.8,54.00000845991849L918.4,54.000006294179286L924,54.00000468286936L929.5999999999999,54.00000348405479L935.2,54.00000259213681L940.8000000000001,54.00000192854975L946.4,54.000001434840954L952,54.00000106752162L957.6,54.00000079423603L963.1999999999999,54.00000059091161L968.8,54.0000004396382L974.4,54.00000032709079L980.0000000000001,54.0000002433556L985.6,54.000000181056464L991.2,54.000000134706056L996.8000000000001,54.0000001002212L1002.4,54.00000007456458L1008,54.000000055475994L1013.5999999999999,54.00000004127412L1019.1999999999999,54.00000003070795L1024.8000000000002,54.00000002284668L1030.4,54.000000016997944L1036,54.00000001264647L1041.6,54.00000000940895L1047.2,54.00000000700021L1052.8,54.00000000520805L1058.3999999999999,54.00000000387479L1064,54.00000000288287L1069.6000000000001,54.000000002144816L1075.2,54.000000001595765L1080.8,54.000000001187175L1086.4,54.000000000883176L1092,54.00000000065711L1097.6,54.0000000004888L1103.2,54.000000000363684L1108.8,54.00000000027063L1114.3999999999999,54.00000000020128L1120,54.00000000014978L1125.6000000000001,54.000000000111356L1131.2,54.00000000008288L1136.8,54.000000000061675L1142.4,54.00000000004587L1148,54.00000000003405L1153.6,54.00000000002535L1159.1999999999998,54.00000000001887L1164.8,54.00000000001393L1170.4,54.000000000010346L1176,54.000000000007674L1181.6,54.00000000000574L1187.2,54.00000000000426L1192.8,54.00000000000318L1198.3999999999999,54.000000000002274L1204,54.00000000000165L1209.6000000000001,54.000000000001194L1215.2,54.00000000000091L1220.8,54.000000000000625L1226.4,54.00000000000051L1232,54.000000000000284L1237.6,54.00000000000017L1243.2,54.00000000000017L1248.8,54.00000000000006L1254.4,54.00000000000006L1260,54L1265.6000000000001,54L1271.2,54L1276.8,54L1282.3999999999999,54L1288,54L1293.6,54L1299.2,54L1304.8,54L1310.4,54L1316,54L1321.6,54L1327.2,54L1332.8,54L1338.3999999999999,54L1344,54" style="fill: none;" fill="none"></path></g></g></g></g><g opacity="0.2"><g><g><g><path stroke="rgb(204, 51, 17)" stroke-width="2px" d="M117.60000000000001,219.2628931538949L123.2,353.46613307404425L128.8,243.71184456202738L134.4,295.97182424551204L140,195.81214121362382L145.6,151.6008206753086L151.20000000000002,173.2812672108417L156.8,219.2628931538949L162.4,173.2812672108417L168,295.97182424551204L173.60000000000002,269.2477663024317L179.20000000000002,151.6008206753086L184.79999999999998,219.2628931538949L190.4,195.81214121362382L196,243.71184456202738L201.60000000000002,243.71184456202738L207.2,72.23847309156582L212.8,195.81214121362382L218.4,219.2628931538949L224,195.81214121362382L229.6,219.2628931538949L235.20000000000002,219.2628931538949L240.79999999999998,130.70893109161705L246.4,110.55024345712388L252,151.6008206753086L257.6,130.70893109161705L263.2,151.6008206753086L268.8,91.0750343675187L274.4,219.2628931538949L280,130.70893109161705L285.6,195.81214121362382L291.2,195.81214121362382L296.8,130.70893109161705L302.40000000000003,173.2812672108417L308,173.2812672108417L313.6,219.2628931538949L319.2,130.70893109161705L324.8,110.55024345712388L330.4,219.2628931538949L336,195.81214121362382L341.6,130.70893109161705L347.20000000000005,173.2812672108417L352.8,151.6008206753086L358.40000000000003,173.2812672108417L364,151.6008206753086L369.59999999999997,195.81214121362382L375.19999999999993,195.81214121362382L380.8,173.2812672108417L386.4,173.2812672108417L392,195.81214121362382L397.59999999999997,151.6008206753086L403.20000000000005,130.70893109161705L408.8,72.23847309156582L414.4,130.70893109161705L419.99999999999994,195.81214121362382L425.6,151.6008206753086L431.2,173.2812672108417L436.8,130.70893109161705L442.4,195.81214121362382L448,151.6008206753086L453.6,130.70893109161705L459.2,195.81214121362382L464.79999999999995,195.81214121362382L470.40000000000003,173.2812672108417L476,91.0750343675187L481.59999999999997,173.2812672108417L487.2,195.81214121362382L492.8,91.0750343675187L498.40000000000003,195.81214121362382L504,110.55024345712388L509.59999999999997,110.55024345712388L515.2,173.2812672108417L520.8,130.70893109161705L526.4,110.55024345712388L532,151.6008206753086L537.6,130.70893109161705L543.2,130.70893109161705L548.8,173.2812672108417L554.4,130.70893109161705L560,110.55024345712388L565.6,91.0750343675187L571.2,195.81214121362382L576.8,151.6008206753086L582.4,91.0750343675187L588,151.6008206753086L593.6,173.2812672108417L599.1999999999999,72.23847309156582L604.8000000000001,173.2812672108417L610.4,110.55024345712388L616,110.55024345712388L621.6,130.70893109161705L627.2,130.70893109161705L632.8000000000001,110.55024345712388L638.4,91.0750343675187L644,130.70893109161705L649.6,91.0750343675187L655.2,91.0750343675187L660.8,151.6008206753086L666.4,195.81214121362382L672,130.70893109161705L677.6,91.0750343675187L683.2,110.55024345712388L688.8,151.6008206753086L694.4000000000001,195.81214121362382L700,91.0750343675187L705.6,195.81214121362382L711.1999999999999,110.55024345712388L716.8000000000001,130.70893109161705L722.4,151.6008206753086L728,110.55024345712388L733.6,130.70893109161705L739.1999999999999,130.70893109161705L744.8,151.6008206753086L750.3999999999999,130.70893109161705L756.0000000000001,151.6008206753086L761.6,130.70893109161705L767.2,91.0750343675187L772.8,195.81214121362382L778.4,110.55024345712388L784,110.55024345712388L789.5999999999999,151.6008206753086L795.1999999999999,110.55024345712388L800.8000000000001,269.2477663024317L806.4000000000001,91.0750343675187L812,110.55024345712388L817.6,151.6008206753086L823.1999999999999,130.70893109161705L828.8,130.70893109161705L834.4,91.0750343675187L839.9999999999999,110.55024345712388L845.6,130.70893109161705L851.2,130.70893109161705L856.8000000000001,147.36120119225944L862.4,130.70893109161705L868,110.55024345712388L873.6,219.2628931538949L879.1999999999999,72.23847309156582L884.8,151.6008206753086L890.4000000000001,173.2812672108417L896,151.6008206753086L901.6,151.6008206753086L907.2,195.81214121362382L912.8,151.6008206753086L918.4,130.70893109161705L924,173.2812672108417L929.5999999999999,72.23847309156582L935.2,151.6008206753086L940.8000000000001,130.70893109161705L946.4,173.2812672108417L952,110.55024345712388L957.6,130.70893109161705L963.1999999999999,130.70893109161705L968.8,91.0750343675187L974.4,110.55024345712388L980.0000000000001,173.2812672108417L985.6,130.70893109161705L991.2,72.23847309156582L996.8000000000001,130.70893109161705L1002.4,173.2812672108417L1008,110.55024345712388L1013.5999999999999,91.0750343675187L1019.1999999999999,173.2812672108417L1024.8000000000002,72.23847309156582L1030.4,151.6008206753086L1036,195.81214121362382L1041.6,173.2812672108417L1047.2,130.70893109161705L1052.8,130.70893109161705L1058.3999999999999,91.0750343675187L1064,195.81214121362382L1069.6000000000001,173.2812672108417L1075.2,151.6008206753086L1080.8,151.6008206753086L1086.4,110.55024345712388L1092,195.81214121362382L1097.6,173.2812672108417L1103.2,173.2812672108417L1108.8,72.23847309156582L1114.3999999999999,110.55024345712388L1120,130.70893109161705L1125.6000000000001,110.55024345712388L1131.2,130.70893109161705L1136.8,130.70893109161705L1142.4,110.55024345712388L1148,151.6008206753086L1153.6,130.70893109161705L1159.1999999999998,91.0750343675187L1164.8,173.2812672108417L1170.4,110.55024345712388L1176,130.70893109161705L1181.6,130.70893109161705L1187.2,91.0750343675187L1192.8,110.55024345712388L1198.3999999999999,173.2812672108417L1204,151.6008206753086L1209.6000000000001,219.2628931538949L1215.2,130.70893109161705L1220.8,195.81214121362382L1226.4,110.55024345712388L1232,130.70893109161705L1237.6,130.70893109161705L1243.2,110.55024345712388L1248.8,110.55024345712388L1254.4,243.71184456202738L1260,110.55024345712388L1265.6000000000001,173.2812672108417L1271.2,91.0750343675187L1276.8,72.23847309156582L1282.3999999999999,151.6008206753086L1288,151.6008206753086L1293.6,130.70893109161705L1299.2,130.70893109161705L1304.8,173.2812672108417L1310.4,91.0750343675187L1316,173.2812672108417L1321.6,130.70893109161705L1327.2,151.6008206753086L1332.8,91.0750343675187L1338.3999999999999,173.2812672108417L1344,173.2812672108417" style="fill: none;" fill="none"></path></g><g><path stroke="rgb(0, 119, 187)" stroke-width="2px" d="M117.60000000000001,323.99999999999994L123.2,323.99999999999994L128.8,243.71184456202738L134.4,219.2628931538949L140,269.2477663024317L145.6,295.97182424551204L151.20000000000002,323.99999999999994L156.8,323.99999999999994L162.4,173.2812672108417L168,195.81214121362382L173.60000000000002,195.81214121362382L179.20000000000002,219.2628931538949L184.79999999999998,243.71184456202738L190.4,219.2628931538949L196,243.71184456202738L201.60000000000002,151.6008206753086L207.2,243.71184456202738L212.8,269.2477663024317L218.4,269.2477663024317L224,269.2477663024317L229.6,384.5257863077898L235.20000000000002,269.2477663024317L240.79999999999998,195.81214121362382L246.4,151.6008206753086L252,219.2628931538949L257.6,323.99999999999994L263.2,195.81214121362382L268.8,243.71184456202738L274.4,269.2477663024317L280,195.81214121362382L285.6,173.2812672108417L291.2,243.71184456202738L296.8,219.2628931538949L302.40000000000003,130.70893109161705L308,195.81214121362382L313.6,353.46613307404425L319.2,151.6008206753086L324.8,151.6008206753086L330.4,323.99999999999994L336,173.2812672108417L341.6,295.97182424551204L347.20000000000005,91.0750343675187L352.8,219.2628931538949L358.40000000000003,295.97182424551204L364,173.2812672108417L369.59999999999997,195.81214121362382L375.19999999999993,151.6008206753086L380.8,195.81214121362382L386.4,173.2812672108417L392,195.81214121362382L397.59999999999997,269.2477663024317L403.20000000000005,151.6008206753086L408.8,269.2477663024317L414.4,195.81214121362382L419.99999999999994,195.81214121362382L425.6,195.81214121362382L431.2,173.2812672108417L436.8,195.81214121362382L442.4,243.71184456202738L448,195.81214121362382L453.6,151.6008206753086L459.2,173.2812672108417L464.79999999999995,110.55024345712388L470.40000000000003,91.0750343675187L476,91.0750343675187L481.59999999999997,110.55024345712388L487.2,219.2628931538949L492.8,130.70893109161705L498.40000000000003,195.81214121362382L504,195.81214121362382L509.59999999999997,151.6008206753086L515.2,110.55024345712388L520.8,130.70893109161705L526.4,173.2812672108417L532,173.2812672108417L537.6,110.55024345712388L543.2,130.70893109161705L548.8,130.70893109161705L554.4,72.23847309156582L560,72.23847309156582L565.6,173.2812672108417L571.2,130.70893109161705L576.8,130.70893109161705L582.4,195.81214121362382L588,151.6008206753086L593.6,195.81214121362382L599.1999999999999,91.0750343675187L604.8000000000001,110.55024345712388L610.4,173.2812672108417L616,173.2812672108417L621.6,195.81214121362382L627.2,130.70893109161705L632.8000000000001,72.23847309156582L638.4,151.6008206753086L644,110.55024345712388L649.6,130.70893109161705L655.2,110.55024345712388L660.8,195.81214121362382L666.4,72.23847309156582L672,195.81214121362382L677.6,151.6008206753086L683.2,91.0750343675187L688.8,91.0750343675187L694.4000000000001,130.70893109161705L700,91.0750343675187L705.6,110.55024345712388L711.1999999999999,72.23847309156582L716.8000000000001,151.6008206753086L722.4,151.6008206753086L728,91.0750343675187L733.6,151.6008206753086L739.1999999999999,151.6008206753086L744.8,130.70893109161705L750.3999999999999,72.23847309156582L756.0000000000001,91.0750343675187L761.6,110.55024345712388L767.2,195.81214121362382L772.8,91.0750343675187L778.4,151.6008206753086L784,91.0750343675187L789.5999999999999,130.70893109161705L795.1999999999999,130.70893109161705L800.8000000000001,110.55024345712388L806.4000000000001,91.0750343675187L812,72.23847309156582L817.6,110.55024345712388L823.1999999999999,130.70893109161705L828.8,91.0750343675187L834.4,72.23847309156582L839.9999999999999,151.6008206753086L845.6,72.23847309156582L851.2,130.70893109161705L856.8000000000001,114.52576348065571L862.4,151.6008206753086L868,91.0750343675187L873.6,72.23847309156582L879.1999999999999,72.23847309156582L884.8,130.70893109161705L890.4000000000001,53.999999999999886L896,72.23847309156582L901.6,110.55024345712388L907.2,130.70893109161705L912.8,72.23847309156582L918.4,91.0750343675187L924,110.55024345712388L929.5999999999999,72.23847309156582L935.2,110.55024345712388L940.8000000000001,72.23847309156582L946.4,110.55024345712388L952,53.999999999999886L957.6,110.55024345712388L963.1999999999999,53.999999999999886L968.8,91.0750343675187L974.4,72.23847309156582L980.0000000000001,110.55024345712388L985.6,53.999999999999886L991.2,91.0750343675187L996.8000000000001,91.0750343675187L1002.4,72.23847309156582L1008,72.23847309156582L1013.5999999999999,91.0750343675187L1019.1999999999999,110.55024345712388L1024.8000000000002,53.999999999999886L1030.4,91.0750343675187L1036,53.999999999999886L1041.6,72.23847309156582L1047.2,72.23847309156582L1052.8,110.55024345712388L1058.3999999999999,91.0750343675187L1064,53.999999999999886L1069.6000000000001,72.23847309156582L1075.2,91.0750343675187L1080.8,91.0750343675187L1086.4,53.999999999999886L1092,91.0750343675187L1097.6,72.23847309156582L1103.2,91.0750343675187L1108.8,53.999999999999886L1114.3999999999999,72.23847309156582L1120,53.999999999999886L1125.6000000000001,53.999999999999886L1131.2,110.55024345712388L1136.8,72.23847309156582L1142.4,110.55024345712388L1148,72.23847309156582L1153.6,53.999999999999886L1159.1999999999998,53.999999999999886L1164.8,53.999999999999886L1170.4,72.23847309156582L1176,72.23847309156582L1181.6,91.0750343675187L1187.2,53.999999999999886L1192.8,53.999999999999886L1198.3999999999999,53.999999999999886L1204,53.999999999999886L1209.6000000000001,53.999999999999886L1215.2,72.23847309156582L1220.8,53.999999999999886L1226.4,72.23847309156582L1232,72.23847309156582L1237.6,72.23847309156582L1243.2,53.999999999999886L1248.8,53.999999999999886L1254.4,53.999999999999886L1260,53.999999999999886L1265.6000000000001,53.999999999999886L1271.2,72.23847309156582L1276.8,72.23847309156582L1282.3999999999999,72.23847309156582L1288,53.999999999999886L1293.6,53.999999999999886L1299.2,53.999999999999886L1304.8,53.999999999999886L1310.4,91.0750343675187L1316,53.999999999999886L1321.6,91.0750343675187L1327.2,72.23847309156582L1332.8,53.999999999999886L1338.3999999999999,72.23847309156582L1344,91.0750343675187" style="fill: none;" fill="none"></path></g><g><path stroke="rgb(255, 112, 67)" stroke-width="2px" d="M117.60000000000001,269.2477663024317L123.2,269.2477663024317L128.8,384.5257863077898L134.4,295.97182424551204L140,219.2628931538949L145.6,269.2477663024317L151.20000000000002,384.5257863077898L156.8,173.2812672108417L162.4,195.81214121362382L168,295.97182424551204L173.60000000000002,130.70893109161705L179.20000000000002,219.2628931538949L184.79999999999998,219.2628931538949L190.4,173.2812672108417L196,110.55024345712388L201.60000000000002,72.23847309156582L207.2,91.0750343675187L212.8,151.6008206753086L218.4,53.999999999999886L224,72.23847309156582L229.6,72.23847309156582L235.20000000000002,53.999999999999886L240.79999999999998,53.999999999999886L246.4,53.999999999999886L252,53.999999999999886L257.6,53.999999999999886L263.2,53.999999999999886L268.8,53.999999999999886L274.4,53.999999999999886L280,53.999999999999886L285.6,53.999999999999886L291.2,53.999999999999886L296.8,53.999999999999886L302.40000000000003,53.999999999999886L308,53.999999999999886L313.6,53.999999999999886L319.2,53.999999999999886L324.8,53.999999999999886L330.4,53.999999999999886L336,53.999999999999886L341.6,53.999999999999886L347.20000000000005,53.999999999999886L352.8,53.999999999999886L358.40000000000003,53.999999999999886L364,53.999999999999886L369.59999999999997,53.999999999999886L375.19999999999993,53.999999999999886L380.8,53.999999999999886L386.4,53.999999999999886L392,53.999999999999886L397.59999999999997,53.999999999999886L403.20000000000005,53.999999999999886L408.8,53.999999999999886L414.4,53.999999999999886L419.99999999999994,53.999999999999886L425.6,53.999999999999886L431.2,53.999999999999886L436.8,53.999999999999886L442.4,53.999999999999886L448,72.23847309156582L453.6,53.999999999999886L459.2,53.999999999999886L464.79999999999995,53.999999999999886L470.40000000000003,53.999999999999886L476,53.999999999999886L481.59999999999997,53.999999999999886L487.2,53.999999999999886L492.8,53.999999999999886L498.40000000000003,53.999999999999886L504,53.999999999999886L509.59999999999997,53.999999999999886L515.2,72.23847309156582L520.8,53.999999999999886L526.4,72.23847309156582L532,53.999999999999886L537.6,53.999999999999886L543.2,53.999999999999886L548.8,72.23847309156582L554.4,53.999999999999886L560,53.999999999999886L565.6,53.999999999999886L571.2,53.999999999999886L576.8,53.999999999999886L582.4,53.999999999999886L588,53.999999999999886L593.6,53.999999999999886L599.1999999999999,53.999999999999886L604.8000000000001,53.999999999999886L610.4,53.999999999999886L616,72.23847309156582L621.6,72.23847309156582L627.2,91.0750343675187L632.8000000000001,53.999999999999886L638.4,53.999999999999886L644,53.999999999999886L649.6,72.23847309156582L655.2,53.999999999999886L660.8,53.999999999999886L666.4,53.999999999999886L672,53.999999999999886L677.6,72.23847309156582L683.2,53.999999999999886L688.8,53.999999999999886L694.4000000000001,53.999999999999886L700,53.999999999999886L705.6,53.999999999999886L711.1999999999999,53.999999999999886L716.8000000000001,53.999999999999886L722.4,53.999999999999886L728,53.999999999999886L733.6,53.999999999999886L739.1999999999999,53.999999999999886L744.8,53.999999999999886L750.3999999999999,53.999999999999886L756.0000000000001,53.999999999999886L761.6,53.999999999999886L767.2,53.999999999999886L772.8,53.999999999999886L778.4,53.999999999999886L784,53.999999999999886L789.5999999999999,53.999999999999886L795.1999999999999,53.999999999999886L800.8000000000001,53.999999999999886L806.4000000000001,53.999999999999886L812,53.999999999999886L817.6,53.999999999999886L823.1999999999999,53.999999999999886L828.8,53.999999999999886L834.4,53.999999999999886L839.9999999999999,53.999999999999886L845.6,53.999999999999886L851.2,53.999999999999886L856.8000000000001,53.999999999999886L862.4,53.999999999999886L868,53.999999999999886L873.6,53.999999999999886L879.1999999999999,53.999999999999886L884.8,72.23847309156582L890.4000000000001,53.999999999999886L896,53.999999999999886L901.6,53.999999999999886L907.2,53.999999999999886L912.8,53.999999999999886L918.4,53.999999999999886L924,53.999999999999886L929.5999999999999,53.999999999999886L935.2,53.999999999999886L940.8000000000001,53.999999999999886L946.4,53.999999999999886L952,53.999999999999886L957.6,53.999999999999886L963.1999999999999,53.999999999999886L968.8,53.999999999999886L974.4,53.999999999999886L980.0000000000001,53.999999999999886L985.6,53.999999999999886L991.2,53.999999999999886L996.8000000000001,53.999999999999886L1002.4,53.999999999999886L1008,53.999999999999886L1013.5999999999999,53.999999999999886L1019.1999999999999,53.999999999999886L1024.8000000000002,53.999999999999886L1030.4,53.999999999999886L1036,53.999999999999886L1041.6,53.999999999999886L1047.2,53.999999999999886L1052.8,53.999999999999886L1058.3999999999999,53.999999999999886L1064,53.999999999999886L1069.6000000000001,53.999999999999886L1075.2,53.999999999999886L1080.8,53.999999999999886L1086.4,53.999999999999886L1092,53.999999999999886L1097.6,53.999999999999886L1103.2,53.999999999999886L1108.8,53.999999999999886L1114.3999999999999,53.999999999999886L1120,53.999999999999886L1125.6000000000001,53.999999999999886L1131.2,53.999999999999886L1136.8,53.999999999999886L1142.4,53.999999999999886L1148,53.999999999999886L1153.6,53.999999999999886L1159.1999999999998,53.999999999999886L1164.8,53.999999999999886L1170.4,53.999999999999886L1176,53.999999999999886L1181.6,53.999999999999886L1187.2,53.999999999999886L1192.8,53.999999999999886L1198.3999999999999,53.999999999999886L1204,53.999999999999886L1209.6000000000001,53.999999999999886L1215.2,53.999999999999886L1220.8,53.999999999999886L1226.4,53.999999999999886L1232,53.999999999999886L1237.6,53.999999999999886L1243.2,53.999999999999886L1248.8,53.999999999999886L1254.4,53.999999999999886L1260,53.999999999999886L1265.6000000000001,53.999999999999886L1271.2,53.999999999999886L1276.8,53.999999999999886L1282.3999999999999,53.999999999999886L1288,53.999999999999886L1293.6,53.999999999999886L1299.2,53.999999999999886L1304.8,53.999999999999886L1310.4,53.999999999999886L1316,53.999999999999886L1321.6,53.999999999999886L1327.2,53.999999999999886L1332.8,53.999999999999886L1338.3999999999999,53.999999999999886L1344,53.999999999999886" style="fill: none;" fill="none"></path></g><g><path stroke="rgb(51, 187, 238)" stroke-width="2px" d="M117.60000000000001,72.23847309156582L123.2,53.999999999999886L128.8,53.999999999999886L134.4,72.23847309156582L140,53.999999999999886L145.6,53.999999999999886L151.20000000000002,53.999999999999886L156.8,53.999999999999886L162.4,72.23847309156582L168,72.23847309156582L173.60000000000002,53.999999999999886L179.20000000000002,53.999999999999886L184.79999999999998,91.0750343675187L190.4,91.0750343675187L196,72.23847309156582L201.60000000000002,130.70893109161705L207.2,72.23847309156582L212.8,72.23847309156582L218.4,53.999999999999886L224,53.999999999999886L229.6,53.999999999999886L235.20000000000002,53.999999999999886L240.79999999999998,72.23847309156582L246.4,72.23847309156582L252,72.23847309156582L257.6,72.23847309156582L263.2,72.23847309156582L268.8,130.70893109161705L274.4,53.999999999999886L280,53.999999999999886L285.6,72.23847309156582L291.2,53.999999999999886L296.8,53.999999999999886L302.40000000000003,53.999999999999886L308,72.23847309156582L313.6,72.23847309156582L319.2,72.23847309156582L324.8,53.999999999999886L330.4,53.999999999999886L336,53.999999999999886L341.6,91.0750343675187L347.20000000000005,53.999999999999886L352.8,72.23847309156582L358.40000000000003,53.999999999999886L364,72.23847309156582L369.59999999999997,53.999999999999886L375.19999999999993,53.999999999999886L380.8,53.999999999999886L386.4,53.999999999999886L392,72.23847309156582L397.59999999999997,53.999999999999886L403.20000000000005,72.23847309156582L408.8,53.999999999999886L414.4,72.23847309156582L419.99999999999994,91.0750343675187L425.6,72.23847309156582L431.2,53.999999999999886L436.8,72.23847309156582L442.4,53.999999999999886L448,53.999999999999886L453.6,53.999999999999886L459.2,53.999999999999886L464.79999999999995,53.999999999999886L470.40000000000003,53.999999999999886L476,53.999999999999886L481.59999999999997,53.999999999999886L487.2,53.999999999999886L492.8,72.23847309156582L498.40000000000003,53.999999999999886L504,53.999999999999886L509.59999999999997,53.999999999999886L515.2,53.999999999999886L520.8,72.23847309156582L526.4,53.999999999999886L532,53.999999999999886L537.6,53.999999999999886L543.2,53.999999999999886L548.8,91.0750343675187L554.4,53.999999999999886L560,53.999999999999886L565.6,72.23847309156582L571.2,72.23847309156582L576.8,72.23847309156582L582.4,53.999999999999886L588,72.23847309156582L593.6,72.23847309156582L599.1999999999999,72.23847309156582L604.8000000000001,53.999999999999886L610.4,53.999999999999886L616,53.999999999999886L621.6,53.999999999999886L627.2,53.999999999999886L632.8000000000001,53.999999999999886L638.4,53.999999999999886L644,53.999999999999886L649.6,53.999999999999886L655.2,53.999999999999886L660.8,53.999999999999886L666.4,53.999999999999886L672,53.999999999999886L677.6,53.999999999999886L683.2,53.999999999999886L688.8,53.999999999999886L694.4000000000001,53.999999999999886L700,53.999999999999886L705.6,53.999999999999886L711.1999999999999,53.999999999999886L716.8000000000001,53.999999999999886L722.4,91.0750343675187L728,53.999999999999886L733.6,53.999999999999886L739.1999999999999,53.999999999999886L744.8,53.999999999999886L750.3999999999999,72.23847309156582L756.0000000000001,53.999999999999886L761.6,53.999999999999886L767.2,53.999999999999886L772.8,53.999999999999886L778.4,53.999999999999886L784,53.999999999999886L789.5999999999999,53.999999999999886L795.1999999999999,53.999999999999886L800.8000000000001,53.999999999999886L806.4000000000001,53.999999999999886L812,53.999999999999886L817.6,53.999999999999886L823.1999999999999,53.999999999999886L828.8,53.999999999999886L834.4,53.999999999999886L839.9999999999999,53.999999999999886L845.6,53.999999999999886L851.2,53.999999999999886L856.8000000000001,53.999999999999886L862.4,53.999999999999886L868,53.999999999999886L873.6,53.999999999999886L879.1999999999999,53.999999999999886L884.8,53.999999999999886L890.4000000000001,53.999999999999886L896,53.999999999999886L901.6,53.999999999999886L907.2,53.999999999999886L912.8,53.999999999999886L918.4,53.999999999999886L924,72.23847309156582L929.5999999999999,53.999999999999886L935.2,53.999999999999886L940.8000000000001,53.999999999999886L946.4,53.999999999999886L952,53.999999999999886L957.6,53.999999999999886L963.1999999999999,53.999999999999886L968.8,53.999999999999886L974.4,53.999999999999886L980.0000000000001,53.999999999999886L985.6,53.999999999999886L991.2,53.999999999999886L996.8000000000001,53.999999999999886L1002.4,53.999999999999886L1008,53.999999999999886L1013.5999999999999,53.999999999999886L1019.1999999999999,53.999999999999886L1024.8000000000002,53.999999999999886L1030.4,53.999999999999886L1036,53.999999999999886L1041.6,53.999999999999886L1047.2,53.999999999999886L1052.8,53.999999999999886L1058.3999999999999,53.999999999999886L1064,53.999999999999886L1069.6000000000001,53.999999999999886L1075.2,53.999999999999886L1080.8,53.999999999999886L1086.4,53.999999999999886L1092,53.999999999999886L1097.6,53.999999999999886L1103.2,53.999999999999886L1108.8,53.999999999999886L1114.3999999999999,53.999999999999886L1120,53.999999999999886L1125.6000000000001,53.999999999999886L1131.2,53.999999999999886L1136.8,53.999999999999886L1142.4,53.999999999999886L1148,53.999999999999886L1153.6,53.999999999999886L1159.1999999999998,53.999999999999886L1164.8,53.999999999999886L1170.4,53.999999999999886L1176,53.999999999999886L1181.6,53.999999999999886L1187.2,53.999999999999886L1192.8,53.999999999999886L1198.3999999999999,53.999999999999886L1204,53.999999999999886L1209.6000000000001,53.999999999999886L1215.2,53.999999999999886" style="fill: none;" fill="none"></path></g><g><path stroke="rgb(238, 51, 119)" stroke-width="2px" d="M117.60000000000001,219.2628931538949L123.2,195.81214121362382L128.8,173.2812672108417L134.4,219.2628931538949L140,195.81214121362382L145.6,72.23847309156582L151.20000000000002,173.2812672108417L156.8,243.71184456202738L162.4,173.2812672108417L168,110.55024345712388L173.60000000000002,173.2812672108417L179.20000000000002,151.6008206753086L184.79999999999998,110.55024345712388L190.4,110.55024345712388L196,130.70893109161705L201.60000000000002,72.23847309156582L207.2,72.23847309156582L212.8,72.23847309156582L218.4,53.999999999999886L224,91.0750343675187L229.6,72.23847309156582L235.20000000000002,53.999999999999886L240.79999999999998,53.999999999999886L246.4,53.999999999999886L252,53.999999999999886L257.6,53.999999999999886L263.2,72.23847309156582L268.8,53.999999999999886L274.4,53.999999999999886L280,72.23847309156582L285.6,53.999999999999886L291.2,53.999999999999886L296.8,53.999999999999886L302.40000000000003,53.999999999999886L308,53.999999999999886L313.6,53.999999999999886L319.2,53.999999999999886L324.8,53.999999999999886L330.4,110.55024345712388L336,53.999999999999886L341.6,53.999999999999886L347.20000000000005,53.999999999999886L352.8,72.23847309156582L358.40000000000003,53.999999999999886L364,72.23847309156582L369.59999999999997,72.23847309156582L375.19999999999993,53.999999999999886L380.8,53.999999999999886L386.4,53.999999999999886L392,53.999999999999886L397.59999999999997,53.999999999999886L403.20000000000005,53.999999999999886L408.8,53.999999999999886L414.4,53.999999999999886L419.99999999999994,53.999999999999886L425.6,53.999999999999886L431.2,53.999999999999886L436.8,53.999999999999886L442.4,53.999999999999886L448,72.23847309156582L453.6,53.999999999999886L459.2,72.23847309156582L464.79999999999995,53.999999999999886L470.40000000000003,53.999999999999886L476,53.999999999999886L481.59999999999997,53.999999999999886L487.2,72.23847309156582L492.8,53.999999999999886L498.40000000000003,53.999999999999886L504,53.999999999999886L509.59999999999997,53.999999999999886L515.2,53.999999999999886L520.8,53.999999999999886L526.4,53.999999999999886L532,53.999999999999886L537.6,53.999999999999886L543.2,53.999999999999886L548.8,53.999999999999886L554.4,53.999999999999886L560,53.999999999999886L565.6,53.999999999999886L571.2,53.999999999999886L576.8,53.999999999999886L582.4,53.999999999999886L588,53.999999999999886L593.6,53.999999999999886L599.1999999999999,53.999999999999886L604.8000000000001,53.999999999999886L610.4,53.999999999999886L616,53.999999999999886L621.6,53.999999999999886L627.2,53.999999999999886L632.8000000000001,53.999999999999886L638.4,53.999999999999886L644,53.999999999999886L649.6,91.0750343675187L655.2,53.999999999999886L660.8,53.999999999999886L666.4,53.999999999999886L672,53.999999999999886L677.6,53.999999999999886L683.2,53.999999999999886L688.8,53.999999999999886L694.4000000000001,53.999999999999886L700,53.999999999999886L705.6,53.999999999999886L711.1999999999999,53.999999999999886L716.8000000000001,53.999999999999886L722.4,53.999999999999886L728,53.999999999999886L733.6,53.999999999999886L739.1999999999999,53.999999999999886L744.8,53.999999999999886L750.3999999999999,53.999999999999886L756.0000000000001,53.999999999999886L761.6,53.999999999999886L767.2,53.999999999999886L772.8,53.999999999999886L778.4,53.999999999999886L784,53.999999999999886L789.5999999999999,53.999999999999886L795.1999999999999,53.999999999999886L800.8000000000001,53.999999999999886L806.4000000000001,53.999999999999886L812,53.999999999999886L817.6,53.999999999999886L823.1999999999999,53.999999999999886L828.8,53.999999999999886L834.4,53.999999999999886L839.9999999999999,53.999999999999886L845.6,53.999999999999886L851.2,53.999999999999886L856.8000000000001,53.999999999999886L862.4,53.999999999999886L868,53.999999999999886L873.6,53.999999999999886L879.1999999999999,53.999999999999886L884.8,53.999999999999886L890.4000000000001,53.999999999999886L896,53.999999999999886L901.6,53.999999999999886L907.2,53.999999999999886L912.8,53.999999999999886L918.4,53.999999999999886L924,53.999999999999886L929.5999999999999,53.999999999999886L935.2,53.999999999999886L940.8000000000001,53.999999999999886L946.4,53.999999999999886L952,53.999999999999886L957.6,53.999999999999886L963.1999999999999,53.999999999999886L968.8,53.999999999999886L974.4,53.999999999999886L980.0000000000001,53.999999999999886L985.6,53.999999999999886L991.2,53.999999999999886L996.8000000000001,53.999999999999886L1002.4,53.999999999999886L1008,53.999999999999886L1013.5999999999999,53.999999999999886L1019.1999999999999,53.999999999999886L1024.8000000000002,53.999999999999886L1030.4,53.999999999999886L1036,53.999999999999886L1041.6,53.999999999999886L1047.2,53.999999999999886L1052.8,53.999999999999886L1058.3999999999999,53.999999999999886L1064,53.999999999999886L1069.6000000000001,53.999999999999886L1075.2,53.999999999999886L1080.8,53.999999999999886L1086.4,53.999999999999886L1092,53.999999999999886L1097.6,53.999999999999886L1103.2,53.999999999999886L1108.8,53.999999999999886L1114.3999999999999,53.999999999999886L1120,53.999999999999886L1125.6000000000001,53.999999999999886L1131.2,53.999999999999886L1136.8,53.999999999999886L1142.4,53.999999999999886L1148,53.999999999999886L1153.6,53.999999999999886L1159.1999999999998,53.999999999999886L1164.8,53.999999999999886L1170.4,53.999999999999886L1176,53.999999999999886L1181.6,53.999999999999886L1187.2,53.999999999999886L1192.8,53.999999999999886L1198.3999999999999,53.999999999999886L1204,53.999999999999886L1209.6000000000001,53.999999999999886L1215.2,53.999999999999886L1220.8,53.999999999999886L1226.4,53.999999999999886L1232,53.999999999999886L1237.6,53.999999999999886L1243.2,53.999999999999886L1248.8,53.999999999999886L1254.4,53.999999999999886L1260,53.999999999999886L1265.6000000000001,53.999999999999886L1271.2,53.999999999999886L1276.8,53.999999999999886L1282.3999999999999,53.999999999999886L1288,53.999999999999886L1293.6,53.999999999999886L1299.2,53.999999999999886L1304.8,53.999999999999886L1310.4,53.999999999999886L1316,53.999999999999886L1321.6,53.999999999999886L1327.2,53.999999999999886L1332.8,53.999999999999886L1338.3999999999999,53.999999999999886L1344,53.999999999999886" style="fill: none;" fill="none"></path></g></g></g></g></g></g><g transform="translate(40, 378)" clip-path="url(#clip_1)"><clipPath id="clip_1"><rect width="1456" height="22"></rect></clipPath><g><g><line x1="0" y1="0" x2="0" y2="5" style="visibility: inherit;" fill="rgb(0, 0, 0)" stroke="rgb(204, 204, 204)" stroke-width="1px"></line><line x1="112" y1="0" x2="112" y2="5" style="visibility: inherit;" fill="rgb(0, 0, 0)" stroke="rgb(204, 204, 204)" stroke-width="1px"></line><line x1="224" y1="0" x2="224" y2="5" style="visibility: inherit;" fill="rgb(0, 0, 0)" stroke="rgb(204, 204, 204)" stroke-width="1px"></line><line x1="336" y1="0" x2="336" y2="5" style="visibility: inherit;" fill="rgb(0, 0, 0)" stroke="rgb(204, 204, 204)" stroke-width="1px"></line><line x1="448" y1="0" x2="448" y2="5" style="visibility: inherit;" fill="rgb(0, 0, 0)" stroke="rgb(204, 204, 204)" stroke-width="1px"></line><line x1="560" y1="0" x2="560" y2="5" style="visibility: inherit;" fill="rgb(0, 0, 0)" stroke="rgb(204, 204, 204)" stroke-width="1px"></line><line x1="672" y1="0" x2="672" y2="5" style="visibility: inherit;" fill="rgb(0, 0, 0)" stroke="rgb(204, 204, 204)" stroke-width="1px"></line><line x1="784" y1="0" x2="784" y2="5" style="visibility: inherit;" fill="rgb(0, 0, 0)" stroke="rgb(204, 204, 204)" stroke-width="1px"></line><line x1="896" y1="0" x2="896" y2="5" style="visibility: inherit;" fill="rgb(0, 0, 0)" stroke="rgb(204, 204, 204)" stroke-width="1px"></line><line x1="1008" y1="0" x2="1008" y2="5" style="visibility: inherit;" fill="rgb(0, 0, 0)" stroke="rgb(204, 204, 204)" stroke-width="1px"></line><line x1="1120" y1="0" x2="1120" y2="5" style="visibility: inherit;" fill="rgb(0, 0, 0)" stroke="rgb(204, 204, 204)" stroke-width="1px"></line><line x1="1232" y1="0" x2="1232" y2="5" style="visibility: inherit;" fill="rgb(0, 0, 0)" stroke="rgb(204, 204, 204)" stroke-width="1px"></line><line x1="1344" y1="0" x2="1344" y2="5" style="visibility: inherit;" fill="rgb(0, 0, 0)" stroke="rgb(204, 204, 204)" stroke-width="1px"></line><line x1="1456" y1="0" x2="1456" y2="5" style="visibility: inherit;" fill="rgb(0, 0, 0)" stroke="rgb(204, 204, 204)" stroke-width="1px"></line></g><g transform="translate(0, 8)"><text x="0" y="0" dx="0em" dy="0.95em" style="text-anchor: middle; visibility: hidden; font-family: &quot;Helvetica Neue&quot;, sans-serif; font-size: 12px; font-weight: 200;" fill="rgb(50, 49, 63)" stroke="none" stroke-width="1px">-2k</text><text x="112" y="0" dx="0em" dy="0.95em" style="text-anchor: middle; visibility: inherit; font-family: &quot;Helvetica Neue&quot;, sans-serif; font-size: 12px; font-weight: 200;" fill="rgb(50, 49, 63)" stroke="none" stroke-width="1px">0</text><text x="224" y="0" dx="0em" dy="0.95em" style="text-anchor: middle; visibility: inherit; font-family: &quot;Helvetica Neue&quot;, sans-serif; font-size: 12px; font-weight: 200;" fill="rgb(50, 49, 63)" stroke="none" stroke-width="1px">2k</text><text x="336" y="0" dx="0em" dy="0.95em" style="text-anchor: middle; visibility: inherit; font-family: &quot;Helvetica Neue&quot;, sans-serif; font-size: 12px; font-weight: 200;" fill="rgb(50, 49, 63)" stroke="none" stroke-width="1px">4k</text><text x="448" y="0" dx="0em" dy="0.95em" style="text-anchor: middle; visibility: inherit; font-family: &quot;Helvetica Neue&quot;, sans-serif; font-size: 12px; font-weight: 200;" fill="rgb(50, 49, 63)" stroke="none" stroke-width="1px">6k</text><text x="560" y="0" dx="0em" dy="0.95em" style="text-anchor: middle; visibility: inherit; font-family: &quot;Helvetica Neue&quot;, sans-serif; font-size: 12px; font-weight: 200;" fill="rgb(50, 49, 63)" stroke="none" stroke-width="1px">8k</text><text x="672" y="0" dx="0em" dy="0.95em" style="text-anchor: middle; visibility: inherit; font-family: &quot;Helvetica Neue&quot;, sans-serif; font-size: 12px; font-weight: 200;" fill="rgb(50, 49, 63)" stroke="none" stroke-width="1px">10k</text><text x="784" y="0" dx="0em" dy="0.95em" style="text-anchor: middle; visibility: inherit; font-family: &quot;Helvetica Neue&quot;, sans-serif; font-size: 12px; font-weight: 200;" fill="rgb(50, 49, 63)" stroke="none" stroke-width="1px">12k</text><text x="896" y="0" dx="0em" dy="0.95em" style="text-anchor: middle; visibility: inherit; font-family: &quot;Helvetica Neue&quot;, sans-serif; font-size: 12px; font-weight: 200;" fill="rgb(50, 49, 63)" stroke="none" stroke-width="1px">14k</text><text x="1008" y="0" dx="0em" dy="0.95em" style="text-anchor: middle; visibility: inherit; font-family: &quot;Helvetica Neue&quot;, sans-serif; font-size: 12px; font-weight: 200;" fill="rgb(50, 49, 63)" stroke="none" stroke-width="1px">16k</text><text x="1120" y="0" dx="0em" dy="0.95em" style="text-anchor: middle; visibility: inherit; font-family: &quot;Helvetica Neue&quot;, sans-serif; font-size: 12px; font-weight: 200;" fill="rgb(50, 49, 63)" stroke="none" stroke-width="1px">18k</text><text x="1232" y="0" dx="0em" dy="0.95em" style="text-anchor: middle; visibility: inherit; font-family: &quot;Helvetica Neue&quot;, sans-serif; font-size: 12px; font-weight: 200;" fill="rgb(50, 49, 63)" stroke="none" stroke-width="1px">20k</text><text x="1344" y="0" dx="0em" dy="0.95em" style="text-anchor: middle; visibility: inherit; font-family: &quot;Helvetica Neue&quot;, sans-serif; font-size: 12px; font-weight: 200;" fill="rgb(50, 49, 63)" stroke="none" stroke-width="1px">22k</text><text x="1456" y="0" dx="0em" dy="0.95em" style="text-anchor: middle; visibility: hidden; font-family: &quot;Helvetica Neue&quot;, sans-serif; font-size: 12px; font-weight: 200;" fill="rgb(50, 49, 63)" stroke="none" stroke-width="1px">24k</text></g><line x1="0" y1="0" x2="1456" y2="0" fill="rgb(0, 0, 0)" stroke="rgb(204, 204, 204)" stroke-width="1px"></line></g></g></g></g></svg>