<svg viewBox="0 0 1496 400" xmlns="http://www.w3.org/2000/svg"><g><g><g><g><g><line x1="40" y1="342.7465408526208" x2="35" y2="342.7465408526208" style="visibility: inherit;" fill="rgb(0, 0, 0)" stroke="rgb(204, 204, 204)" stroke-width="1px"></line><line x1="40" y1="273.7522886674385" x2="35" y2="273.7522886674385" style="visibility: inherit;" fill="rgb(0, 0, 0)" stroke="rgb(204, 204, 204)" stroke-width="1px"></line><line x1="40" y1="220.2361890312672" x2="35" y2="220.2361890312672" style="visibility: inherit;" fill="rgb(0, 0, 0)" stroke="rgb(204, 204, 204)" stroke-width="1px"></line><line x1="40" y1="176.51035182135354" x2="35" y2="176.51035182135354" style="visibility: inherit;" fill="rgb(0, 0, 0)" stroke="rgb(204, 204, 204)" stroke-width="1px"></line><line x1="40" y1="139.54068322894662" x2="35" y2="139.54068322894662" style="visibility: inherit;" fill="rgb(0, 0, 0)" stroke="rgb(204, 204, 204)" stroke-width="1px"></line><line x1="40" y1="107.5160996361713" x2="35" y2="107.5160996361713" style="visibility: inherit;" fill="rgb(0, 0, 0)" stroke="rgb(204, 204, 204)" stroke-width="1px"></line><line x1="40" y1="79.26841497526868" x2="35" y2="79.26841497526868" style="visibility: inherit;" fill="rgb(0, 0, 0)" stroke="rgb(204, 204, 204)" stroke-width="1px"></line><line x1="40" y1="54" x2="35" y2="54" style="visibility: inherit;" fill="rgb(0, 0, 0)" stroke="rgb(204, 204, 204)" stroke-width="1px"></line></g><g transform="translate(30, 0)"><text x="0" y="342.7465408526208" dx="0em" dy="0.3em" style="text-anchor: end; visibility: inherit; font-family: &quot;Helvetica Neue&quot;, sans-serif; font-size: 12px; font-weight: 200;" fill="rgb(50, 49, 63)" stroke="none" stroke-width="1px">0.3</text><text x="0" y="273.7522886674385" dx="0em" dy="0.3em" style="text-anchor: end; visibility: inherit; font-family: &quot;Helvetica Neue&quot;, sans-serif; font-size: 12px; font-weight: 200;" fill="rgb(50, 49, 63)" stroke="none" stroke-width="1px">0.4</text><text x="0" y="220.2361890312672" dx="0em" dy="0.3em" style="text-anchor: end; visibility: inherit; font-family: &quot;Helvetica Neue&quot;, sans-serif; font-size: 12px; font-weight: 200;" fill="rgb(50, 49, 63)" stroke="none" stroke-width="1px">0.5</text><text x="0" y="176.51035182135354" dx="0em" dy="0.3em" style="text-anchor: end; visibility: inherit; font-family: &quot;Helvetica Neue&quot;, sans-serif; font-size: 12px; font-weight: 200;" fill="rgb(50, 49, 63)" stroke="none" stroke-width="1px">0.6</text><text x="0" y="139.54068322894662" dx="0em" dy="0.3em" style="text-anchor: end; visibility: inherit; font-family: &quot;Helvetica Neue&quot;, sans-serif; font-size: 12px; font-weight: 200;" fill="rgb(50, 49, 63)" stroke="none" stroke-width="1px">0.7</text><text x="0" y="107.5160996361713" dx="0em" dy="0.3em" style="text-anchor: end; visibility: inherit; font-family: &quot;Helvetica Neue&quot;, sans-serif; font-size: 12px; font-weight: 200;" fill="rgb(50, 49, 63)" stroke="none" stroke-width="1px">0.8</text><text x="0" y="79.26841497526868" dx="0em" dy="0.3em" style="text-anchor: end; visibility: inherit; font-family: &quot;Helvetica Neue&quot;, sans-serif; font-size: 12px; font-weight: 200;" fill="rgb(50, 49, 63)" stroke="none" stroke-width="1px">0.9</text><text x="0" y="54" dx="0em" dy="0.3em" style="text-anchor: end; visibility: inherit; font-family: &quot;Helvetica Neue&quot;, sans-serif; font-size: 12px; font-weight: 200;" fill="rgb(50, 49, 63)" stroke="none" stroke-width="1px">1</text></g><line x1="40" y1="0" x2="40" y2="378" fill="rgb(0, 0, 0)" stroke="rgb(204, 204, 204)" stroke-width="1px"></line></g></g><g transform="translate(40, 0)" clip-path="url(#clip_0)"><clipPath id="clip_0"><rect width="1456" height="378"></rect></clipPath><g><g><g><line x1="0" y1="0" x2="0" y2="378" fill="rgb(0, 0, 0)" stroke="rgb(60, 60, 60)" stroke-width="1px" opacity="0.25"></line><line x1="112" y1="0" x2="112" y2="378" fill="rgb(0, 0, 0)" stroke="rgb(60, 60, 60)" stroke-width="1px" opacity="0.25"></line><line x1="224" y1="0" x2="224" y2="378" fill="rgb(0, 0, 0)" stroke="rgb(60, 60, 60)" stroke-width="1px" opacity="0.25"></line><line x1="336" y1="0" x2="336" y2="378" fill="rgb(0, 0, 0)" stroke="rgb(60, 60, 60)" stroke-width="1px" opacity="0.25"></line><line x1="448" y1="0" x2="448" y2="378" fill="rgb(0, 0, 0)" stroke="rgb(60, 60, 60)" stroke-width="1px" opacity="0.25"></line><line x1="560" y1="0" x2="560" y2="378" fill="rgb(0, 0, 0)" stroke="rgb(60, 60, 60)" stroke-width="1px" opacity="0.25"></line><line x1="672" y1="0" x2="672" y2="378" fill="rgb(0, 0, 0)" stroke="rgb(60, 60, 60)" stroke-width="1px" opacity="0.25"></line><line x1="784" y1="0" x2="784" y2="378" fill="rgb(0, 0, 0)" stroke="rgb(60, 60, 60)" stroke-width="1px" opacity="0.25"></line><line x1="896" y1="0" x2="896" y2="378" fill="rgb(0, 0, 0)" stroke="rgb(60, 60, 60)" stroke-width="1px" opacity="0.25"></line><line x1="1008" y1="0" x2="1008" y2="378" fill="rgb(0, 0, 0)" stroke="rgb(60, 60, 60)" stroke-width="1px" opacity="0.25"></line><line x1="1120" y1="0" x2="1120" y2="378" fill="rgb(0, 0, 0)" stroke="rgb(60, 60, 60)" stroke-width="1px" opacity="0.25"></line><line x1="1232" y1="0" x2="1232" y2="378" fill="rgb(0, 0, 0)" stroke="rgb(60, 60, 60)" stroke-width="1px" opacity="0.25"></line><line x1="1344" y1="0" x2="1344" y2="378" fill="rgb(0, 0, 0)" stroke="rgb(60, 60, 60)" stroke-width="1px" opacity="0.25"></line><line x1="1456" y1="0" x2="1456" y2="378" fill="rgb(0, 0, 0)" stroke="rgb(60, 60, 60)" stroke-width="1px" opacity="0.25"></line></g><g><line x1="0" y1="342.7465408526208" x2="1456" y2="342.7465408526208" fill="rgb(0, 0, 0)" stroke="rgb(60, 60, 60)" stroke-width="1px" opacity="0.25"></line><line x1="0" y1="273.7522886674385" x2="1456" y2="273.7522886674385" fill="rgb(0, 0, 0)" stroke="rgb(60, 60, 60)" stroke-width="1px" opacity="0.25"></line><line x1="0" y1="220.2361890312672" x2="1456" y2="220.2361890312672" fill="rgb(0, 0, 0)" stroke="rgb(60, 60, 60)" stroke-width="1px" opacity="0.25"></line><line x1="0" y1="176.51035182135354" x2="1456" y2="176.51035182135354" fill="rgb(0, 0, 0)" stroke="rgb(60, 60, 60)" stroke-width="1px" opacity="0.25"></line><line x1="0" y1="139.54068322894662" x2="1456" y2="139.54068322894662" fill="rgb(0, 0, 0)" stroke="rgb(60, 60, 60)" stroke-width="1px" opacity="0.25"></line><line x1="0" y1="107.5160996361713" x2="1456" y2="107.5160996361713" fill="rgb(0, 0, 0)" stroke="rgb(60, 60, 60)" stroke-width="1px" opacity="0.25"></line><line x1="0" y1="79.26841497526868" x2="1456" y2="79.26841497526868" fill="rgb(0, 0, 0)" stroke="rgb(60, 60, 60)" stroke-width="1px" opacity="0.25"></line><line x1="0" y1="54" x2="1456" y2="54" fill="rgb(0, 0, 0)" stroke="rgb(60, 60, 60)" stroke-width="1px" opacity="0.25"></line></g></g></g><g><g><line x1="112" y1="0" x2="112" y2="378" fill="rgb(0, 0, 0)" stroke="rgb(153, 153, 153)" stroke-width="1.5px"></line></g></g><g><g><g><g><g><path stroke="rgb(204, 51, 17)" stroke-width="2px" d="M117.60000000000001,176.51034229144028L123.2,232.84124213046454L128.8,233.68128601042545L134.4,224.677703983316L140,190.1547081828889L145.6,168.9429681632298L151.20000000000002,156.98723178315348L156.8,173.23242837850512L162.4,166.97627419269864L168,170.29145764550347L173.60000000000002,173.6786710126086L179.20000000000002,151.75731553960435L184.79999999999998,154.49581948600797L190.4,150.9207201346309L196,156.4629886518541L201.60000000000002,151.07646967818945L207.2,126.00812319498272L212.8,125.99922337388082L218.4,137.99675886924575L224,141.3275461905965L229.6,153.98515231966738L235.20000000000002,150.90553017139632L240.79999999999998,137.4279855796953L246.4,122.03608994906327L252,119.63273841587875L257.6,120.48920220671488L263.2,122.1997553450093L268.8,109.74814974955285L274.4,125.15378088755176L280,119.04412465331887L285.6,119.35313407458796L291.2,127.12229475488934L296.8,121.94815478620797L302.40000000000003,119.31883174438423L308,118.70302220472661L313.6,126.62210900098444L319.2,121.58406313190255L324.8,110.88321528061391L330.4,116.75772239627094L336,122.74257908952228L341.6,118.7515695037992L347.20000000000005,121.67374742363575L352.8,121.04250752500388L358.40000000000003,121.5406446595536L364,122.98661020928637L369.59999999999997,123.74772707098498L375.19999999999993,126.02891639511219L380.8,127.13382278429802L386.4,126.0672686327712L392,139.03280103206882L397.59999999999997,142.0996402251091L403.20000000000005,132.76032201292512L408.8,113.40249866012675L414.4,115.82169373515728L419.99999999999994,122.02820267430931L425.6,118.22865737967078L431.2,121.2798138240579L436.8,115.02620684273546L442.4,119.44862384562794L448,121.41901667321213L453.6,124.7484370987487L459.2,126.78016755776383L464.79999999999995,130.34948566420027L470.40000000000003,123.26730494284999L476,109.91684451852768L481.59999999999997,117.15913636274206L487.2,116.70242637877226L492.8,104.374934598327L498.40000000000003,111.33351994163064L504,105.00815443730352L509.59999999999997,102.46264619549532L515.2,114.03695650692367L520.8,116.29835894326482L526.4,110.72187507969431L532,112.86822310115821L537.6,110.07218614924204L543.2,109.41522820352083L548.8,114.60877769159691L554.4,123.46735110043005L560,117.3926052032391L565.6,105.27989096623617L571.2,116.23378511118693L576.8,119.00341510555603L582.4,109.04428962357429L588,111.6077824593122L593.6,116.27391927434337L599.1999999999999,102.65420781738305L604.8000000000001,114.1865121537823L610.4,114.88391383377683L616,111.13582128143554L621.6,106.648444919535L627.2,105.48267695051021L632.8000000000001,100.75424702514846L638.4,94.40642953823954L644,96.35922034029176L649.6,91.86665219826494L655.2,88.57794531795508L660.8,96.0566716723327L666.4,111.74586920300948L672,106.25336065756301L677.6,97.81926175112903L683.2,95.13993358321676L688.8,102.9571691535669L694.4000000000001,112.1443576911633L700,103.28947597783178L705.6,106.32708874930682L711.1999999999999,101.36993082370725L716.8000000000001,100.43175827106779L722.4,107.01430914662666L728,102.80355223954496L733.6,102.63003920013796L739.1999999999999,100.40789722465058L744.8,112.43113186600982L750.3999999999999,112.90111739354904L756.0000000000001,112.8719652696517L761.6,110.07493804658878L767.2,101.80382841869903L772.8,119.7750753195453L778.4,110.28390469700821L784,107.75786581928054L789.5999999999999,104.74122585877956L795.1999999999999,105.44854087848148L800.8000000000001,116.36511428255744L806.4000000000001,105.61515659999588L812,101.77989821838514L817.6,103.23535013698455L823.1999999999999,101.81281796160545L828.8,101.8930759579813L834.4,96.70857509028872L839.9999999999999,95.22628559832492L845.6,108.36832287803423L851.2,105.59854973951326L856.8000000000001,108.44691139715809L862.4,109.92478008783479L868,107.49342435476086L873.6,115.90924001192877L879.1999999999999,100.87212431505696L884.8,100.49068193696849L890.4000000000001,106.05359677595823L896,104.32884064901936L901.6,105.1407529434332L907.2,110.30405679832535L912.8,108.44315719983615L918.4,108.20548806301412L924,111.90544116641519L929.5999999999999,98.4201644845495L935.2,105.4745209226183L940.8000000000001,101.67691713980139L946.4,105.48840886003143L952,100.75842829644637L957.6,106.2574475246513L963.1999999999999,104.04428685686219L968.8,96.23044958842826L974.4,92.57249125324523L980.0000000000001,97.35888336548146L985.6,96.51114138620198L991.2,88.23908354082653L996.8000000000001,93.0283807708397L1002.4,102.04924910707223L1008,96.26049374356921L1013.5999999999999,93.59820877768715L1019.1999999999999,104.54777547059939L1024.8000000000002,93.03730689521547L1030.4,96.66145490815319L1036,109.4955094817584L1041.6,110.092871638801L1047.2,106.86567344299544L1052.8,103.52287766587165L1058.3999999999999,97.89411850595229L1064,113.20419897748542L1069.6000000000001,122.38230000613206L1075.2,119.88917561253731L1080.8,119.71700863879369L1086.4,110.24237796466463L1092,122.94421330381095L1097.6,129.87660928711065L1103.2,130.0038825335127L1108.8,112.22265592616776L1114.3999999999999,111.00895246628124L1120,106.55579761058118L1125.6000000000001,100.75675720944724L1131.2,99.97718786910684L1136.8,99.39882784937203L1142.4,99.69659109422855L1148,104.54460659946233L1153.6,102.78045524191344L1159.1999999999998,97.354341102673L1164.8,105.38425126281743L1170.4,116.31505380315792L1176,124.7835181444681L1181.6,117.56075397337747L1187.2,108.01372280428092L1192.8,103.53376520643491L1198.3999999999999,108.36726569680258L1204,108.14907842081362L1209.6000000000001,120.91193804658451L1215.2,115.96095736052803L1220.8,124.51055553858282L1226.4,113.66084367718906L1232,107.64432458479581L1237.6,109.32371194052672L1243.2,102.09584392617859L1248.8,98.27892787385798L1254.4,110.76413975463299L1260,106.68641913184979L1265.6000000000001,112.53127517471705L1271.2,102.31193700605763L1276.8,91.84595982360173L1282.3999999999999,97.03528453003594L1288,102.52146788708677L1293.6,105.47528034467604L1299.2,107.69676289259695L1304.8,115.45492146366053L1310.4,104.3927363019717L1316,106.27668628135342L1321.6,105.20737434698714L1327.2,107.12512878462786L1332.8,97.97189637232827L1338.3999999999999,102.68244853515353L1344,109.47279136296385" style="fill: none;" fill="none"></path></g><g><path stroke="rgb(0, 119, 187)" stroke-width="2px" d="M117.60000000000001,243.09424365039172L123.2,314.66930299207877L128.8,324L134.4,280.3127255935605L140,269.2837256932643L145.6,296.3056115625946L151.20000000000002,319.4010417733334L156.8,305.59988545160354L162.4,267.1703854163366L168,240.7793851439984L173.60000000000002,217.88621995405353L179.20000000000002,211.62959154172796L184.79999999999998,217.47215940769553L190.4,193.04270499561846L196,196.81287643824885L201.60000000000002,174.24565597188894L207.2,170.77043908009824L212.8,177.80795504513708L218.4,183.16522436547828L224,192.14826919652592L229.6,214.91867246466327L235.20000000000002,206.3969373025032L240.79999999999998,187.87467967675593L246.4,173.9361646291027L252,179.15037768058014L257.6,189.021543747702L263.2,192.9541554648215L268.8,202.98846096021742L274.4,207.28796009989753L280,200.35000870212238L285.6,174.39723602683978L291.2,170.90394953810585L296.8,168.6976015615379L302.40000000000003,148.43424412308272L308,152.3749071563487L313.6,169.98808613374982L319.2,158.2977622774804L324.8,161.3477663943522L330.4,179.77127794503596L336,166.12471790552138L341.6,172.7366433008152L347.20000000000005,143.06530939241696L352.8,151.19326197822838L358.40000000000003,164.93635121904123L364,153.481050714941L369.59999999999997,156.18198986000547L375.19999999999993,151.26820728999195L380.8,146.39902290471287L386.4,147.62952519218615L392,143.74081437486618L397.59999999999997,153.25584518934252L403.20000000000005,144.0714211688214L408.8,157.05941960300737L414.4,147.08587725211265L419.99999999999994,151.35427841602385L425.6,148.66994755287172L431.2,138.68884382419174L436.8,139.28726228478578L442.4,155.07824590264133L448,151.40410614760577L453.6,139.38151524714073L459.2,133.4286386905717L464.79999999999995,124.57697353270592L470.40000000000003,111.42796766525919L476,102.09252815915028L481.59999999999997,99.19557967055579L487.2,116.74116257494563L492.8,121.21103634419012L498.40000000000003,126.13201657046218L504,139.08364295820073L509.59999999999997,132.07233139035003L515.2,122.08398092394455L520.8,118.26950308718352L526.4,116.60639787208783L532,120.05638138822007L537.6,113.44772307885648L543.2,109.32373010781288L548.8,110.58086371531533L554.4,99.0967178437453L560,89.79937395591458L565.6,99.5509735271333L571.2,103.23443213728092L576.8,104.32327966284112L582.4,118.28858942434078L588,118.52600951422528L593.6,133.09055720710876L599.1999999999999,120.13443777437033L604.8000000000001,112.32388729497205L610.4,119.00271672239114L616,120.01824045992345L621.6,123.22225082798627L627.2,115.413599356693L632.8000000000001,101.10345229823992L638.4,102.7288313560245L644,98.74227085543055L649.6,100.95798492786616L655.2,98.36109207658234L660.8,105.1328335844172L666.4,94.10396795759584L672,107.48584386607001L677.6,107.49358806494195L683.2,103.15383552940568L688.8,96.14269043636625L694.4000000000001,97.66038005392409L700,93.61942050117062L705.6,91.2932252055416L711.1999999999999,84.47713451785211L716.8000000000001,94.71938971973299L722.4,107.96985964254077L728,99.05096202226957L733.6,108.3300045317165L739.1999999999999,106.98424639892102L744.8,107.12028763241125L750.3999999999999,95.26070634306666L756.0000000000001,89.41608295483894L761.6,89.81284286738759L767.2,101.92052528106888L772.8,94.69912926717205L778.4,96.82574425133737L784,92.20721517050902L789.5999999999999,93.60793591263348L795.1999999999999,100.79481785436025L800.8000000000001,99.35385062089671L806.4000000000001,93.39093468862092L812,85.25099860484403L817.6,83.07427491284398L823.1999999999999,85.07087482252916L828.8,82.41725709016572L834.4,78.36617036042145L839.9999999999999,85.49786563167265L845.6,79.22225366291906L851.2,87.71894221285316L856.8000000000001,90.24121621615137L862.4,93.47178494064485L868,90.54801046048533L873.6,84.28691801047154L879.1999999999999,78.87065181815137L884.8,83.55822508281994L890.4000000000001,75.63750560994072L896,73.38778577419595L901.6,75.62493699414631L907.2,83.39403139894364L912.8,78.01968496747384L918.4,79.09497454627007L924,83.11953396079463L929.5999999999999,78.02095019764096L935.2,79.09592010689784L940.8000000000001,75.59499709007787L946.4,78.59150547250306L952,72.05197387894083L957.6,73.27318847193516L963.1999999999999,68.18983691902764L968.8,71.71092374422864L974.4,69.88625596141372L980.0000000000001,75.10964000968431L985.6,69.52610872820242L991.2,70.88228504546038L996.8000000000001,74.66860549159742L1002.4,72.34083865719867L1008,70.62352092855178L1013.5999999999999,70.60378329665537L1019.1999999999999,74.82173719621545L1024.8000000000002,69.31680399764912L1030.4,73.48441166263956L1036,68.34367269871888L1041.6,67.39545287289184L1047.2,66.96059661477312L1052.8,70.78226047737655L1058.3999999999999,72.92628666100154L1064,67.93710531073367L1069.6000000000001,67.0940942192679L1075.2,68.2832747731423L1080.8,68.58859701297763L1086.4,64.76857353625178L1092,66.89807730469852L1097.6,66.91567733886683L1103.2,68.92643893471035L1108.8,65.01590936216871L1114.3999999999999,65.19117088633413L1120,62.2761232268997L1125.6000000000001,60.130085422531124L1131.2,65.60087353170019L1136.8,65.13605510428124L1142.4,69.4017184602165L1148,67.95263603895967L1153.6,64.30273010851568L1159.1999999999998,61.62278860962715L1164.8,59.64816237131038L1170.4,60.92144925589503L1176,61.46486353642064L1181.6,63.2561888984668L1187.2,60.852370564875855L1192.8,59.07943213935255L1198.3999999999999,57.768817244043134L1204,56.798345448854434L1209.6000000000001,56.07885365386295L1215.2,57.68525751325893L1220.8,56.736425273741474L1226.4,59.70313511128796L1232,61.22442541993064L1237.6,61.87867139533358L1243.2,59.836951725403196L1248.8,58.32910995459173L1254.4,57.213394149431394L1260,56.386656065151385L1265.6000000000001,55.77340661066415L1271.2,57.80034153325329L1276.8,60.113806947241244L1282.3999999999999,61.53184337484009L1288,59.58105060044397L1293.6,58.13988647441295L1299.2,57.073250958073515L1304.8,56.2827404917586L1310.4,60.15401733266202L1316,58.563487894044385L1321.6,63.11565403483121L1327.2,63.28817452347829L1332.8,60.875930124927834L1338.3999999999999,61.61863465669251L1344,66.01477059014161" style="fill: none;" fill="none"></path></g><g><path stroke="rgb(255, 112, 67)" stroke-width="2px" d="M117.60000000000001,220.2361890312672L123.2,208.0496512117633L128.8,257.71107517002855L134.4,225.79653651394108L140,215.12871683233178L145.6,210.1586756925532L151.20000000000002,242.02450986934895L156.8,208.3750289311345L162.4,187.87910383502083L168,225.2225848667105L173.60000000000002,185.80902958068168L179.20000000000002,176.20338417123713L184.79999999999998,169.4184681626669L190.4,158.63399825392722L196,140.5277836384115L201.60000000000002,118.52077421502224L207.2,106.48991123413458L212.8,109.70013661701262L218.4,94.10855742974172L224,86.19776084613858L229.6,80.48609737644398L235.20000000000002,73.41171555755056L240.79999999999998,68.28509029644096L246.4,64.54322286401163L252,61.79802308770496L257.6,59.776533389669794L263.2,58.28393191195346L268.8,57.17965754357061L274.4,56.361487881660594L280,55.75464399096853L285.6,55.30418415105146L291.2,54.969611038842174L296.8,54.72100268892473L302.40000000000003,54.536211534193285L308,54.398822774912674L313.6,54.29665853610476L319.2,54.220677652563495L324.8,54.1641640886354L330.4,54.1221269673498L336,54.09085631265788L341.6,54.06759369231594L347.20000000000005,54.050287822896166L352.8,54.03741309735875L358.40000000000003,54.027834767202194L364,54.02070874729452L369.59999999999997,54.01540713113633L375.19999999999993,54.011462807674775L380.8,54.00852827472511L386.4,54.006345006402626L392,54.00472066816155L397.59999999999997,54.00351216792251L403.20000000000005,54.00261304784749L408.8,54.00194410478281L414.4,54.00144641239979L419.99999999999994,54.00107612996271L425.6,54.00080064021478L431.2,54.000595676055354L436.8,54.000443182838865L442.4,54.00032972795117L448,56.68460570396087L453.6,55.994479597086354L459.2,55.48231109781739L464.79999999999995,55.10196608477264L470.40000000000003,54.81938021392182L476,54.609352134023595L481.59999999999997,54.45321048485931L487.2,54.33710701435109L492.8,54.25076248308085L498.40000000000003,54.18654231368822L504,54.13877366183124L509.59999999999997,54.10323995655352L515.2,58.84823912914703L520.8,57.597725629243996L526.4,61.495417319473006L532,59.55416862866707L537.6,58.12000582079361L543.2,57.05852523119887L548.8,59.24157692420658L554.4,57.88878496236168L560,56.88723522483315L565.6,56.1447863849059L571.2,55.59389178361238L576.8,55.18484560767752L582.4,54.880967233770434L588,54.65513125935047L593.6,54.48724715383372L599.1999999999999,54.362417579584644L604.8000000000001,54.26958651074841L610.4,54.20054349986435L616,56.43539019177251L621.6,61.50028162464912L627.2,68.70654641880486L632.8000000000001,64.85493551370462L638.4,62.028940426697204L644,59.94779503020709L649.6,60.313600831350186L655.2,58.681422969737355L660.8,57.474248707190156L666.4,56.58003678705654L672,55.916899519969206L677.6,58.38393268410755L683.2,57.253991744601194L688.8,56.416756074809086L694.4000000000001,55.79574346615118L700,55.33475110425263L705.6,54.99234675154872L711.1999999999999,54.737914690384L716.8000000000001,54.548792201829485L722.4,54.4081817626103L728,54.303621053907364L733.6,54.2258574510513L739.1999999999999,54.16801768457498L744.8,54.124993946377515L750.3999999999999,54.092989291736615L756.0000000000001,54.06918059924368L761.6,54.051468465320056L767.2,54.038291486283754L772.8,54.028488283559795L778.4,54.021194960695595L784,54.01576887237428L789.5999999999999,54.01173194230739L795.1999999999999,54.008728510422145L800.8000000000001,54.00649398150131L806.4000000000001,54.004831505491154L812,54.00359463081605L817.6,54.00267440019627L823.1999999999999,54.001989750905864L828.8,54.001480373101856L834.4,54.001101396717615L839.9999999999999,54.00081943867616L845.6,54.0006096621085L851.2,54.000453588461085L856.8000000000001,54.00033746973338L862.4,54.00025107743636L868,54.00018680158763L873.6,54.00013898036735L879.1999999999999,54.000103401385616L884.8,59.64750505128012L890.4000000000001,58.18903059794218L896,57.109650965007916L901.6,56.30973244930965L907.2,55.71631923485478L912.8,55.27577043780536L918.4,54.94852635607276L924,54.70534612144297L929.5999999999999,54.52457986516583L935.2,54.390178109531576L940.8000000000001,54.29023204578493L946.4,54.21589918722111L952,54.16061048350332L957.6,54.11948395553054L963.1999999999999,54.08889039351385L968.8,54.066131315022176L974.4,54.04919996170935L980.0000000000001,54.036603810282884L985.6,54.027232702808135L991.2,54.02026083639805L996.8000000000001,54.01507389927417L1002.4,54.01121489083255L1008,54.0083438288363L1013.5999999999999,54.00620778100921L1019.1999999999999,54.00461857376854L1024.8000000000002,54.0034362104135L1030.4,54.002556535859014L1036,54.00190206008381L1041.6,54.00141513126573L1047.2,54.001052856866465L1052.8,54.00078332506854L1058.3999999999999,54.00058279360729L1064,54.00043359830897L1069.6000000000001,54.000322597067225L1075.2,54.000240012176675L1080.8,54.00017856903662L1086.4,54.00013285535056L1092,54.00009884437378L1097.6,54.000073540210224L1103.2,54.00005471391421L1108.8,54.00004070715096L1114.3999999999999,54.00003028611968L1120,54.00002253287266L1125.6000000000001,54.00001676445709L1131.2,54.00001247275594L1136.8,54.000009279730364L1142.4,54.000006904119346L1148,54.00000513666481L1153.6,54.00000382167855L1159.1999999999998,54.00000284332884L1164.8,54.000002115436644L1170.4,54.000001573884845L1176,54.000001170970336L1181.6,54.000000871201905L1187.2,54.00000064817419L1192.8,54.0000004822416L1198.3999999999999,54.00000035878776L1204,54.000000266938116L1209.6000000000001,54.00000019860198L1215.2,54.000000147759806L1220.8,54.00000010993335L1226.4,54.00000008179046L1232,54.000000060852074L1237.6,54.000000045273964L1243.2,54.00000003368382L1248.8,54.000000025060785L1254.4,54.00000001864527L1260,54.00000001387201L1265.6000000000001,54.000000010320775L1271.2,54.000000007678636L1276.8,54.000000005712934L1282.3999999999999,54.00000000425041L1288,54.00000000316231L1293.6,54.000000002352806L1299.2,54.000000001750436L1304.8,54.00000000130234L1310.4,54.00000000096895L1316,54.00000000072089L1321.6,54.00000000053632L1327.2,54.00000000039904L1332.8,54.000000000296836L1338.3999999999999,54.00000000022084L1344,54.000000000164334" style="fill: none;" fill="none"></path></g><g><path stroke="rgb(51, 187, 238)" stroke-width="2px" d="M117.60000000000001,61.86392889158935L123.2,57.32330964022708L128.8,55.8711795890182L134.4,59.9069507881174L140,57.93209549525699L145.6,56.71299388939951L151.20000000000002,55.91498874161806L156.8,55.37240693221179L162.4,57.46138771993145L168,59.38425845350804L173.60000000000002,57.93860211982337L179.20000000000002,56.89416315012852L184.79999999999998,61.958322669738834L190.4,64.47318153580585L196,65.11672568297092L201.60000000000002,84.57315990709458L207.2,79.9111117207429L212.8,75.89429052213262L218.4,70.07533100555378L224,65.84499569413151L229.6,62.750340355765616L235.20000000000002,60.47628575187332L240.79999999999998,61.54177081943794L246.4,61.62427036053123L252,62.66203618190053L257.6,63.17236447907635L263.2,64.13837623950923L268.8,77.88925144379829L274.4,71.54216415192263L280,66.9270892361169L285.6,66.61264513909168L291.2,63.31984801510731L296.8,60.89911975446006L302.40000000000003,59.11387999946436L308,60.521760158620395L313.6,61.16677252301798L319.2,61.83567101632184L324.8,59.805203260364294L330.4,58.30562208021831L336,57.195991983233455L341.6,65.39962870183143L347.20000000000005,62.429312577030544L352.8,63.262690227270014L358.40000000000003,60.857153948345626L364,61.41691861366195L369.59999999999997,59.49623156735544L375.19999999999993,58.0771549955237L380.8,57.02678355825276L386.4,56.248281253838684L392,58.156559553784916L397.59999999999997,57.08560026878217L403.20000000000005,59.00217806375997L408.8,57.71165086105367L414.4,60.932513939750606L419.99999999999994,68.27112243274985L425.6,66.61450892198337L431.2,63.3214696559304L436.8,65.1504335434148L442.4,62.246180056519336L448,60.108005756823445L453.6,58.52948068544953L459.2,57.36176196394001L464.79999999999995,56.49665304571238L470.40000000000003,55.85503053735465L476,55.37877457717326L481.59999999999997,55.0250527135417L487.2,54.76222169855498L492.8,61.50415666888398L498.40000000000003,59.56061825408983L504,58.12477571484419L509.59999999999997,57.062058350286975L515.2,56.2744405439434L520.8,57.991135711628374L526.4,56.96306264548883L532,56.20102531030727L537.6,55.63563628074161L543.2,55.2158498926637L548.8,61.147357275491004L554.4,59.297250753409116L560,57.929972060947875L565.6,61.09712224663332L571.2,60.96233542093921L576.8,60.95969622116013L582.4,59.15868967010937L588,59.988329474224486L593.6,64.19527307779202L599.1999999999999,64.57990425569415L604.8000000000001,61.82668349233393L610.4,59.798599522052655L616,58.300754160098506L621.6,57.19239503332341L627.2,56.3710863107579L632.8000000000001,55.76185219928777L638.4,55.30958396531827L644,54.973648861813615L649.6,54.72401807182297L655.2,54.538461190752855L660.8,54.400499953056794L666.4,54.29790825535747L672,54.221608493894564L677.6,54.16485721558428L683.2,54.12264297526821L688.8,54.09124040043787L694.4000000000001,54.06787955206903L700,54.05050055703583L705.6,54.037571401713194L711.1999999999999,54.02795256233196L716.8000000000001,54.02079639610895L722.4,59.663267310155845L728,58.20068651865688L733.6,57.118283973752455L739.1999999999999,56.316133990698575L744.8,55.721070195273626L750.3999999999999,58.9379089964973L756.0000000000001,57.664089829396346L761.6,56.7207385214287L767.2,56.02128465569024L772.8,55.50221123647901L778.4,55.11674817143853L784,54.83036505014729L789.5999999999999,54.61751765104583L795.1999999999999,54.45928164956155L800.8000000000001,54.341621760353405L806.4000000000001,54.25412023706525L812,54.18903980940212L817.6,54.140631426149184L823.1999999999999,54.10462192708968L828.8,54.07783436706103L834.4,54.057906363354334L839.9999999999999,54.04308100280116L845.6,54.0320515290847L851.2,54.0238459297052L856.8000000000001,54.01774114590353L862.4,54.01319928756914L868,54.009820200770264L873.6,54.007306191079465L879.1999999999999,54.005435784966494L884.8,54.00404421228211L890.4000000000001,54.003008887443286L896,54.00223860866282L901.6,54.00166552285515L907.2,54.001239147902766L912.8,54.000921925429964L918.4,54.00068591218235L924,56.28528848839903L929.5999999999999,55.698177632812644L935.2,55.262297725750784L940.8000000000001,54.938516253991736L946.4,54.69790611341301L952,54.5190486477934L957.6,54.386065177206945L963.1999999999999,54.287173292381794L968.8,54.21362417620196L974.4,54.158918263408964L980.0000000000001,54.1182251585239L985.6,54.087953967373835L991.2,54.06543467973768L996.8000000000001,54.04868170145431L1002.4,54.03621824479751L1008,54.026945853236725L1013.5999999999999,54.02004742648819L1019.1999999999999,54.014915125717096L1024.8000000000002,54.01109676519684L1030.4,54.00825594440988L1036,54.00614239557524L1041.6,54.004569927326315L1047.2,54.003400017638L1052.8,54.00252960853231L1058.3999999999999,54.00188202620711L1064,54.00140022609162L1069.6000000000001,54.00104176743366L1075.2,54.00077507453966L1080.8,54.00057665521888L1086.4,54.00042903135085L1092,54.00031919925192L1097.6,54.000237484202955L1103.2,54.0001766882246L1108.8,54.000131456026736L1114.3999999999999,54.000097803277015L1120,54.000072765634286L1125.6000000000001,54.000054137629775L1131.2,54.000040278395375L1136.8,54.000029967125556L1142.4,54.00002229554099L1148,54.00001658788227L1153.6,54.00001234138432L1159.1999999999998,54.000009181989924L1164.8,54.00000683140041L1170.4,54.00000508256187L1176,54.000003781426074L1181.6,54.000002813381L1187.2,54.000002093155445L1192.8,54.000001557307655L1198.3999999999999,54.00000115863685L1204,54.00000086202584L1209.6000000000001,54.000000641347185L1215.2,54.0000004771623" style="fill: none;" fill="none"></path></g><g><path stroke="rgb(238, 51, 119)" stroke-width="2px" d="M117.60000000000001,134.69550008437255L123.2,129.6556460242257L128.8,138.81326331657016L134.4,152.04698411452176L140,145.48676567619842L145.6,119.79356600296711L151.20000000000002,125.41238764593226L156.8,141.5530587520878L162.4,134.5179562219037L168,120.89222855186568L173.60000000000002,125.71830750644278L179.20000000000002,123.98759535923188L184.79999999999998,114.90163202881081L190.4,106.6596539908212L196,102.49531716268206L201.60000000000002,91.88505790571242L207.2,84.11693171125808L212.8,78.5183889331808L218.4,71.97560694985503L224,71.92362970103176L229.6,71.05098137764344L235.20000000000002,66.562508273128L240.79999999999998,63.27968155601121L246.4,60.867688716023736L252,59.08965423409569L257.6,57.77578084071973L263.2,59.115731403564894L268.8,57.79534233582058L274.4,56.81781612261602L280,59.76485720515393L285.6,58.27565070591601L291.2,57.17371852033773L296.8,56.357191237095094L302.40000000000003,55.75151440359542L308,55.301892722172795L313.6,54.967926619389345L319.2,54.719760746945326L324.8,54.5352937540336L330.4,69.02737752406875L336,65.08976043158145L341.6,62.201565611606384L347.20000000000005,60.07509791787504L352.8,60.53177092586736L358.40000000000003,58.842617686494634L364,61.287929409807305L369.59999999999997,61.57618286794843L375.19999999999993,59.61376934709426L380.8,58.16408196171869L386.4,57.09117173723433L392,56.29602924679631L397.59999999999997,55.706149006174314L403.20000000000005,55.26821754135062L408.8,54.94291459000698L414.4,54.70117515826729L419.99999999999994,54.521478984224245L425.6,54.38787233423437L431.2,54.28851725686815L436.8,54.21462377583373L442.4,54.15966179406064L448,58.24923768256065L453.6,57.15424241935119L459.2,59.628287240133545L464.79999999999995,58.174819073708534L470.40000000000003,57.09912498362797L476,56.30192714828496L481.59999999999997,55.71052641562585L487.2,57.97017577125291L492.8,56.94753497711105L498.40000000000003,56.18950927714212L504,55.627088473588856L509.59999999999997,55.20950141658926L515.2,54.899287685188995L520.8,54.66874871245079L526.4,54.49737137548158L532,54.36994604014541L537.6,54.275185495221365L543.2,54.204707932792985L548.8,54.152286059728056L554.4,54.113291618682695L560,54.084283867332545L565.6,54.06270437633708L571.2,54.046650494656205L576.8,54.034707103834364L582.4,54.0258216069202L588,54.01921101078585L593.6,54.01429284547356L599.1999999999999,54.01063379591295L604.8000000000001,54.007911499257546L610.4,54.00588613059324L616,54.00437926740375L621.6,54.003258167333L627.2,54.00242407228046L632.8000000000001,54.0018035074433L638.4,54.00134180824625L644,54.00099830462034L649.6,64.45815575874201L655.2,61.737130519561276L660.8,59.73252992838263L666.4,58.25190267422994L672,57.15621615419457L677.6,56.34426072342825L683.2,55.74194431065848L688.8,55.29480024341325L694.4000000000001,54.9626650816989L700,54.71585459294181L705.6,54.532392233359815L711.1999999999999,54.39598723079882L716.8000000000001,54.29455221782615L722.4,54.219112391739884L728,54.16300055250548L733.6,54.12126185969157L739.1999999999999,54.09021298422755L744.8,54.06711522844307L750.3999999999999,54.04993194123199L756.0000000000001,54.0371483742328L761.6,54.02763784243825L767.2,54.020562251455374L772.8,54.01529814719066L778.4,54.01138172857793L784,54.00846795462178L789.5999999999999,54.00630012976495L795.1999999999999,54.004687280784196L800.8000000000001,54.003487328179176L806.4000000000001,54.00259456733619L812,54.00193035542503L817.6,54.001436182956525L823.1999999999999,54.001068519300645L828.8,54.00079497790631L834.4,54.000591463311366L839.9999999999999,54.00044004856471L845.6,54.000327396055184L851.2,54.000243582622545L856.8000000000001,54.00018122544759L862.4,54.00013483171995L868,54.00010031479246L873.6,54.00007463420161L879.1999999999999,54.00005552784381L884.8,54.00004131271453L890.4000000000001,54.000030736658914L896,54.00002286807381L901.6,54.00001701384679L907.2,54.00001265830184L912.8,54.00000941777648L918.4,54.00000700682568L924,54.00000521307828L929.5999999999999,54.00000387853021L935.2,54.00000288562643L940.8000000000001,54.00000214690613L946.4,54.000001597298194L952,54.000001188389774L957.6,54.000000884162034L963.1999999999999,54.00000065781654L968.8,54.00000048941547L974.4,54.00000036412513L980.0000000000001,54.000000270909084L985.6,54.00000020155636L991.2,54.000000149957884L996.8000000000001,54.00000011156868L1002.4,54.00000008300708L1008,54.00000006175725L1013.5999999999999,54.000000045947445L1019.1999999999999,54.00000003418489L1024.8000000000002,54.00000002543351L1030.4,54.00000001892255L1036,54.00000001407835L1041.6,54.00000001047431L1047.2,54.00000000779289L1052.8,54.000000005797915L1058.3999999999999,54.00000000431362L1064,54.00000000320932L1069.6000000000001,54.000000002387765L1075.2,54.00000000177647L1080.8,54.00000000132172L1086.4,54.000000000983334L1092,54.00000000073163L1097.6,54.00000000054433L1103.2,54.00000000040495L1108.8,54.00000000030127L1114.3999999999999,54.000000000224134L1120,54.00000000016678L1125.6000000000001,54.00000000012403L1131.2,54.000000000092314L1136.8,54.00000000006867L1142.4,54.0000000000511L1148,54.00000000003803L1153.6,54.000000000028194L1159.1999999999998,54.00000000002103L1164.8,54.00000000001569L1170.4,54.00000000001165L1176,54.00000000000864L1181.6,54.00000000000642L1187.2,54.000000000004775L1192.8,54.000000000003524L1198.3999999999999,54.00000000000267L1204,54.00000000000193L1209.6000000000001,54.00000000000142L1215.2,54.00000000000108L1220.8,54.000000000000796L1226.4,54.000000000000625L1232,54.000000000000455L1237.6,54.00000000000034L1243.2,54.000000000000284L1248.8,54.00000000000017L1254.4,54.000000000000114L1260,54.00000000000006L1265.6000000000001,54.00000000000006L1271.2,54L1276.8,54L1282.3999999999999,54L1288,54L1293.6,54L1299.2,54L1304.8,54L1310.4,54L1316,54L1321.6,54L1327.2,54L1332.8,54L1338.3999999999999,54L1344,54" style="fill: none;" fill="none"></path></g></g></g></g><g opacity="0.2"><g><g><g><path stroke="rgb(204, 51, 17)" stroke-width="2px" d="M117.60000000000001,176.51034229144028L123.2,285.4535378174299L128.8,234.77567754914094L134.4,210.02919886433432L140,132.7845050815267L145.6,127.2391116468217L151.20000000000002,130.37415425529582L156.8,220.2361890312672L162.4,151.24192969864987L168,179.48961972012873L173.60000000000002,183.26652860735763L179.20000000000002,99.38554630212235L184.79999999999998,162.39874907975482L190.4,141.0349398295267L196,173.05953810007077L201.60000000000002,136.2478039711147L207.2,65.70125290239474L212.8,125.97352973299496L218.4,176.51034229144028L224,151.24192969864987L229.6,194.96776262010263L235.20000000000002,142.19073837573194L240.79999999999998,102.12647833014711L246.4,82.24768287404385L252,112.78726201824941L257.6,122.99425218518229L263.2,127.2391116468217L268.8,76.85805461912452L274.4,176.51034229144028L280,102.12647833014711L285.6,120.25333273736516L291.2,151.24192969864987L296.8,107.51609606245376L302.40000000000003,111.83744923389571L308,116.92232546527777L313.6,151.24192969864987L319.2,107.51609606245376L324.8,82.24768287404385L330.4,134.69550008437255L336,141.0349398295267L341.6,107.51609606245376L347.20000000000005,130.37415425529582L352.8,119.21734878616263L358.40000000000003,122.99425218518229L364,127.2391116468217L369.59999999999997,125.97352973299496L375.19999999999993,132.7845050815267L380.8,130.37415425529582L386.4,122.99425218518229L392,181.25956879999012L397.59999999999997,151.24192969864987L403.20000000000005,107.51609606245376L408.8,64.66078029487545L414.4,122.99425218518229L419.99999999999994,141.0349398295267L425.6,107.51609606245376L431.2,130.37415425529582L436.8,97.72584292786172L442.4,132.7845050815267L448,127.2391116468217L453.6,134.69550008437255L459.2,132.7845050815267L464.79999999999995,141.0349398295267L470.40000000000003,103.79775964135712L476,74.8677702452195L481.59999999999997,139.54068731319526L487.2,115.38002852776066L492.8,71.77318264621425L498.40000000000003,132.7845050815267L504,87.51885252268107L509.59999999999997,95.21452320400113L515.2,151.24192969864987L520.8,122.99425218518229L526.4,95.21452320400113L532,119.21734878616263L537.6,102.12647833014711L543.2,107.51609606245376L548.8,130.37415425529582L554.4,151.24192969864987L560,100.56406994089195L565.6,73.19649135258601L571.2,151.24192969864987L576.8,127.2391116468217L582.4,82.24768287404385L588,119.21734878616263L593.6,130.37415425529582L599.1999999999999,66.96683477084122L604.8000000000001,151.24192969864987L610.4,116.92232546527777L616,100.56406994089195L621.6,94.064265388112L627.2,102.12647833014711L632.8000000000001,87.51885252268107L638.4,76.85805461912452L644,102.12647833014711L649.6,79.26842132854443L655.2,79.26842132854443L660.8,119.21734878616263L666.4,164.2087867059559L672,90.96966620992856L677.6,74.8677702452195L683.2,87.51885252268107L688.8,127.2391116468217L694.4000000000001,141.0349398295267L700,79.26842132854443L705.6,115.38002852776066L711.1999999999999,87.51885252268107L716.8000000000001,97.72584292786172L722.4,127.2391116468217L728,90.96966620992856L733.6,102.12647833014711L739.1999999999999,94.064265388112L744.8,151.24192969864987L750.3999999999999,114.27226416942938L756.0000000000001,112.78726201824941L761.6,102.12647833014711L767.2,79.26842132854443L772.8,181.25956879999012L778.4,84.65803916914541L784,100.56406994089195L789.5999999999999,96.18353598393537L795.1999999999999,107.51609606245376L800.8000000000001,151.24192969864987L806.4000000000001,76.85805461912452L812,90.96966620992856L817.6,107.51609606245376L823.1999999999999,97.72584292786172L828.8,102.12647833014711L834.4,82.24768287404385L839.9999999999999,90.96966620992856L845.6,151.24192969864987L851.2,97.72584292786172L856.8000000000001,116.92232546527777L862.4,114.27226416942938L868,100.56406994089195L873.6,142.19073837573194L879.1999999999999,61.86392889158935L884.8,99.38554630212235L890.4000000000001,122.99425218518229L896,99.38554630212235L901.6,107.51609606245376L907.2,125.97352973299496L912.8,103.115462703324L918.4,107.51609606245376L924,122.99425218518229L929.5999999999999,63.05118661905044L935.2,127.2391116468217L940.8000000000001,90.96966620992856L946.4,116.92232546527777L952,87.51885252268107L957.6,122.99425218518229L963.1999999999999,97.72584292786172L968.8,74.8677702452195L974.4,82.24768287404385L980.0000000000001,111.83744923389571L985.6,94.064265388112L991.2,65.70125290239474L996.8000000000001,107.51609606245376L1002.4,130.37415425529582L1008,80.18906040174625L1013.5999999999999,86.02458359277534L1019.1999999999999,139.54068731319526L1024.8000000000002,62.41589004754968L1030.4,107.51609606245376L1036,151.24192969864987L1041.6,111.83744923389571L1047.2,97.72584292786172L1052.8,94.064265388112L1058.3999999999999,82.24768287404385L1064,164.2087867059559L1069.6000000000001,151.24192969864987L1075.2,112.78726201824941L1080.8,119.21734878616263L1086.4,84.65803916914541L1092,164.2087867059559L1097.6,151.24192969864987L1103.2,130.37415425529582L1108.8,66.96683477084122L1114.3999999999999,107.51609606245376L1120,94.064265388112L1125.6000000000001,84.65803916914541L1131.2,97.72584292786172L1136.8,97.72584292786172L1142.4,100.56406994089195L1148,119.21734878616263L1153.6,97.72584292786172L1159.1999999999998,82.24768287404385L1164.8,130.37415425529582L1170.4,151.24192969864987L1176,151.24192969864987L1181.6,97.72584292786172L1187.2,82.24768287404385L1192.8,90.96966620992856L1198.3999999999999,122.99425218518229L1204,107.51609606245376L1209.6000000000001,162.39874907975482L1215.2,102.12647833014711L1220.8,151.24192969864987L1226.4,84.65803916914541L1232,90.96966620992856L1237.6,114.27226416942938L1243.2,82.24768287404385L1248.8,87.51885252268107L1254.4,151.24192969864987L1260,95.21452320400113L1265.6000000000001,130.37415425529582L1271.2,74.8677702452195L1276.8,63.79026778683408L1282.3999999999999,112.78726201824941L1288,119.21734878616263L1293.6,114.27226416942938L1299.2,114.27226416942938L1304.8,139.54068731319526L1310.4,74.8677702452195L1316,111.83744923389571L1321.6,102.12647833014711L1327.2,112.78726201824941L1332.8,73.19649135258601L1338.3999999999999,116.92232546527777L1344,130.37415425529582" style="fill: none;" fill="none"></path></g><g><path stroke="rgb(0, 119, 187)" stroke-width="2px" d="M117.60000000000001,243.09424365039172L123.2,386.4723780625344L128.8,336.6746094868836L134.4,220.2361890312672L140,248.483871905311L145.6,370.9942130055123L151.20000000000002,386.4723780625344L156.8,273.75228509372096L162.4,188.21159471733947L168,181.25956879999012L173.60000000000002,164.2087867059559L179.20000000000002,194.96776262010263L184.79999999999998,234.77567754914094L190.4,134.69550008437255L196,207.9346058090338L201.60000000000002,119.21734878616263L207.2,161.03220463291896L212.8,199.36840644047814L218.4,199.36840644047814L224,220.2361890312672L229.6,296.610343286563L235.20000000000002,183.26652860735763L240.79999999999998,141.0349398295267L246.4,137.5337356402896L252,194.96776262010263L257.6,220.2361890312672L263.2,204.75802397424505L268.8,234.77567754914094L274.4,220.2361890312672L280,181.25956879999012L285.6,111.83744923389571L291.2,161.03220463291896L296.8,162.39874907975482L302.40000000000003,97.72584292786172L308,164.2087867059559L313.6,230.0264568181013L319.2,127.2391116468217L324.8,170.43842045561635L330.4,243.09424365039172L336,130.37415425529582L341.6,193.05678184405576L347.20000000000005,73.19649135258601L352.8,176.51034229144028L358.40000000000003,210.02919886433432L364,122.99425218518229L369.59999999999997,164.2087867059559L375.19999999999993,137.5337356402896L380.8,132.7845050815267L386.4,151.24192969864987L392,132.7845050815267L397.59999999999997,183.26652860735763L403.20000000000005,119.21734878616263L408.8,199.36840644047814L414.4,120.25333273736516L419.99999999999994,164.2087867059559L425.6,141.0349398295267L431.2,111.83744923389571L436.8,141.0349398295267L442.4,207.9346058090338L448,141.0349398295267L453.6,107.51609606245376L459.2,116.92232546527777L464.79999999999995,100.56406994089195L470.40000000000003,76.85805461912452L476,76.85805461912452L481.59999999999997,90.96966620992856L487.2,176.51034229144028L492.8,134.69550008437255L498.40000000000003,141.0349398295267L504,181.25956879999012L509.59999999999997,112.78726201824941L515.2,95.21452320400113L520.8,107.51609606245376L526.4,111.83744923389571L532,130.37415425529582L537.6,95.21452320400113L543.2,97.72584292786172L548.8,114.27226416942938L554.4,68.53948851787379L560,64.66078029487545L565.6,130.37415425529582L571.2,114.27226416942938L576.8,107.51609606245376L582.4,164.2087867059559L588,119.21734878616263L593.6,181.25956879999012L599.1999999999999,86.02458359277534L604.8000000000001,90.96966620992856L610.4,139.54068731319526L616,122.99425218518229L621.6,132.7845050815267L627.2,94.064265388112L632.8000000000001,63.79026778683408L638.4,107.51609606245376L644,87.51885252268107L649.6,107.51609606245376L655.2,90.96966620992856L660.8,125.97352973299496L666.4,64.66078029487545L672,151.24192969864987L677.6,107.51609606245376L683.2,90.96966620992856L688.8,76.85805461912452L694.4000000000001,102.12647833014711L700,82.24768287404385L705.6,84.65803916914541L711.1999999999999,65.70125290239474L716.8000000000001,127.2391116468217L722.4,151.24192969864987L728,74.8677702452195L733.6,137.5337356402896L739.1999999999999,103.115462703324L744.8,107.51609606245376L750.3999999999999,63.79026778683408L756.0000000000001,73.19649135258601L761.6,90.96966620992856L767.2,141.0349398295267L772.8,74.8677702452195L778.4,103.115462703324L784,79.26842132854443L789.5999999999999,97.72584292786172L795.1999999999999,122.99425218518229L800.8000000000001,95.21452320400113L806.4000000000001,76.85805461912452L812,63.05118661905044L817.6,76.85805461912452L823.1999999999999,90.96966620992856L828.8,74.8677702452195L834.4,66.96683477084122L839.9999999999999,107.51609606245376L845.6,61.86392889158935L851.2,114.27226416942938L856.8000000000001,97.72584292786172L862.4,103.115462703324L868,82.24768287404385L873.6,66.96683477084122L879.1999999999999,63.79026778683408L884.8,97.72584292786172L890.4000000000001,54L896,66.96683477084122L901.6,82.24768287404385L907.2,107.51609606245376L912.8,63.05118661905044L918.4,82.24768287404385L924,95.21452320400113L929.5999999999999,63.79026778683408L935.2,82.24768287404385L940.8000000000001,65.70125290239474L946.4,87.51885252268107L952,54L957.6,76.85805461912452L963.1999999999999,54L968.8,82.24768287404385L974.4,64.66078029487545L980.0000000000001,90.96966620992856L985.6,54L991.2,74.8677702452195L996.8000000000001,86.02458359277534L1002.4,65.70125290239474L1008,65.70125290239474L1013.5999999999999,70.54643002270211L1019.1999999999999,87.51885252268107L1024.8000000000002,54L1030.4,86.02458359277534L1036,54L1041.6,64.66078029487545L1047.2,65.70125290239474L1052.8,82.24768287404385L1058.3999999999999,79.26842132854443L1064,54L1069.6000000000001,64.66078029487545L1075.2,71.77318264621425L1080.8,69.47815254901099L1086.4,54L1092,73.19649135258601L1097.6,66.96683477084122L1103.2,74.8677702452195L1108.8,54L1114.3999999999999,65.70125290239474L1120,54L1125.6000000000001,54L1131.2,82.24768287404385L1136.8,63.79026778683408L1142.4,82.24768287404385L1148,63.79026778683408L1153.6,54L1159.1999999999998,54L1164.8,54L1170.4,64.66078029487545L1176,63.05118661905044L1181.6,68.53948851787379L1187.2,54L1192.8,54L1198.3999999999999,54L1204,54L1209.6000000000001,54L1215.2,62.41589004754968L1220.8,54L1226.4,68.53948851787379L1232,65.70125290239474L1237.6,63.79026778683408L1243.2,54L1248.8,54L1254.4,54L1260,54L1265.6000000000001,54L1271.2,63.79026778683408L1276.8,66.96683477084122L1282.3999999999999,65.70125290239474L1288,54L1293.6,54L1299.2,54L1304.8,54L1310.4,71.77318264621425L1316,54L1321.6,76.85805461912452L1327.2,63.79026778683408L1332.8,54L1338.3999999999999,63.79026778683408L1344,79.26842132854443" style="fill: none;" fill="none"></path></g><g><path stroke="rgb(255, 112, 67)" stroke-width="2px" d="M117.60000000000001,220.2361890312672L123.2,199.36840644047814L128.8,342.74653132270754L134.4,179.48961972012873L140,194.96776262010263L145.6,199.36840644047814L151.20000000000002,342.74653132270754L156.8,139.54068731319526L162.4,141.0349398295267L168,370.9942130055123L173.60000000000002,102.12647833014711L179.20000000000002,151.24192969864987L184.79999999999998,151.24192969864987L190.4,130.37415425529582L196,95.21452320400113L201.60000000000002,64.66078029487545L207.2,74.8677702452195L212.8,119.21734878616263L218.4,54L224,64.66078029487545L229.6,64.66078029487545L235.20000000000002,54L240.79999999999998,54L246.4,54L252,54L257.6,54L263.2,54L268.8,54L274.4,54L280,54L285.6,54L291.2,54L296.8,54L302.40000000000003,54L308,54L313.6,54L319.2,54L324.8,54L330.4,54L336,54L341.6,54L347.20000000000005,54L352.8,54L358.40000000000003,54L364,54L369.59999999999997,54L375.19999999999993,54L380.8,54L386.4,54L392,54L397.59999999999997,54L403.20000000000005,54L408.8,54L414.4,54L419.99999999999994,54L425.6,54L431.2,54L436.8,54L442.4,54L448,64.66078029487545L453.6,54L459.2,54L464.79999999999995,54L470.40000000000003,54L476,54L481.59999999999997,54L487.2,54L492.8,54L498.40000000000003,54L504,54L509.59999999999997,54L515.2,73.19649135258601L520.8,54L526.4,73.19649135258601L532,54L537.6,54L543.2,54L548.8,65.70125290239474L554.4,54L560,54L565.6,54L571.2,54L576.8,54L582.4,54L588,54L593.6,54L599.1999999999999,54L604.8000000000001,54L610.4,54L616,63.05118661905044L621.6,76.85805461912452L627.2,90.96966620992856L632.8000000000001,54L638.4,54L644,54L649.6,61.37990207011342L655.2,54L660.8,54L666.4,54L672,54L677.6,65.70125290239474L683.2,54L688.8,54L694.4000000000001,54L700,54L705.6,54L711.1999999999999,54L716.8000000000001,54L722.4,54L728,54L733.6,54L739.1999999999999,54L744.8,54L750.3999999999999,54L756.0000000000001,54L761.6,54L767.2,54L772.8,54L778.4,54L784,54L789.5999999999999,54L795.1999999999999,54L800.8000000000001,54L806.4000000000001,54L812,54L817.6,54L823.1999999999999,54L828.8,54L834.4,54L839.9999999999999,54L845.6,54L851.2,54L856.8000000000001,54L862.4,54L868,54L873.6,54L879.1999999999999,54L884.8,76.85805461912452L890.4000000000001,54L896,54L901.6,54L907.2,54L912.8,54L918.4,54L924,54L929.5999999999999,54L935.2,54L940.8000000000001,54L946.4,54L952,54L957.6,54L963.1999999999999,54L968.8,54L974.4,54L980.0000000000001,54L985.6,54L991.2,54L996.8000000000001,54L1002.4,54L1008,54L1013.5999999999999,54L1019.1999999999999,54L1024.8000000000002,54L1030.4,54L1036,54L1041.6,54L1047.2,54L1052.8,54L1058.3999999999999,54L1064,54L1069.6000000000001,54L1075.2,54L1080.8,54L1086.4,54L1092,54L1097.6,54L1103.2,54L1108.8,54L1114.3999999999999,54L1120,54L1125.6000000000001,54L1131.2,54L1136.8,54L1142.4,54L1148,54L1153.6,54L1159.1999999999998,54L1164.8,54L1170.4,54L1176,54L1181.6,54L1187.2,54L1192.8,54L1198.3999999999999,54L1204,54L1209.6000000000001,54L1215.2,54L1220.8,54L1226.4,54L1232,54L1237.6,54L1243.2,54L1248.8,54L1254.4,54L1260,54L1265.6000000000001,54L1271.2,54L1276.8,54L1282.3999999999999,54L1288,54L1293.6,54L1299.2,54L1304.8,54L1310.4,54L1316,54L1321.6,54L1327.2,54L1332.8,54L1338.3999999999999,54L1344,54" style="fill: none;" fill="none"></path></g><g><path stroke="rgb(51, 187, 238)" stroke-width="2px" d="M117.60000000000001,61.86392889158935L123.2,54L128.8,54L134.4,66.96683477084122L140,54L145.6,54L151.20000000000002,54L156.8,54L162.4,63.05118661905044L168,64.66078029487545L173.60000000000002,54L179.20000000000002,54L184.79999999999998,76.85805461912452L190.4,71.77318264621425L196,66.96683477084122L201.60000000000002,151.24192969864987L207.2,66.96683477084122L212.8,64.66078029487545L218.4,54L224,54L229.6,54L235.20000000000002,54L240.79999999999998,64.66078029487545L246.4,61.86392889158935L252,65.70125290239474L257.6,64.66078029487545L263.2,66.96683477084122L268.8,122.99425218518229L274.4,54L280,54L285.6,65.70125290239474L291.2,54L296.8,54L302.40000000000003,54L308,64.66078029487545L313.6,63.05118661905044L319.2,63.79026778683408L324.8,54L330.4,54L336,54L341.6,90.96966620992856L347.20000000000005,54L352.8,65.70125290239474L358.40000000000003,54L364,63.05118661905044L369.59999999999997,54L375.19999999999993,54L380.8,54L386.4,54L392,63.79026778683408L397.59999999999997,54L403.20000000000005,64.66078029487545L408.8,54L414.4,70.54643002270211L419.99999999999994,90.96966620992856L425.6,61.86392889158935L431.2,54L436.8,70.54643002270211L442.4,54L448,54L453.6,54L459.2,54L464.79999999999995,54L470.40000000000003,54L476,54L481.59999999999997,54L487.2,54L492.8,82.24768287404385L498.40000000000003,54L504,54L509.59999999999997,54L515.2,54L520.8,63.05118661905044L526.4,54L532,54L537.6,54L543.2,54L548.8,79.26842132854443L554.4,54L560,54L565.6,70.54643002270211L571.2,60.571040650229406L576.8,60.952026211655436L582.4,54L588,62.41589004754968L593.6,76.85805461912452L599.1999999999999,65.70125290239474L604.8000000000001,54L610.4,54L616,54L621.6,54L627.2,54L632.8000000000001,54L638.4,54L644,54L649.6,54L655.2,54L660.8,54L666.4,54L672,54L677.6,54L683.2,54L688.8,54L694.4000000000001,54L700,54L705.6,54L711.1999999999999,54L716.8000000000001,54L722.4,76.85805461912452L728,54L733.6,54L739.1999999999999,54L744.8,54L750.3999999999999,68.53948851787379L756.0000000000001,54L761.6,54L767.2,54L772.8,54L778.4,54L784,54L789.5999999999999,54L795.1999999999999,54L800.8000000000001,54L806.4000000000001,54L812,54L817.6,54L823.1999999999999,54L828.8,54L834.4,54L839.9999999999999,54L845.6,54L851.2,54L856.8000000000001,54L862.4,54L868,54L873.6,54L879.1999999999999,54L884.8,54L890.4000000000001,54L896,54L901.6,54L907.2,54L912.8,54L918.4,54L924,63.05118661905044L929.5999999999999,54L935.2,54L940.8000000000001,54L946.4,54L952,54L957.6,54L963.1999999999999,54L968.8,54L974.4,54L980.0000000000001,54L985.6,54L991.2,54L996.8000000000001,54L1002.4,54L1008,54L1013.5999999999999,54L1019.1999999999999,54L1024.8000000000002,54L1030.4,54L1036,54L1041.6,54L1047.2,54L1052.8,54L1058.3999999999999,54L1064,54L1069.6000000000001,54L1075.2,54L1080.8,54L1086.4,54L1092,54L1097.6,54L1103.2,54L1108.8,54L1114.3999999999999,54L1120,54L1125.6000000000001,54L1131.2,54L1136.8,54L1142.4,54L1148,54L1153.6,54L1159.1999999999998,54L1164.8,54L1170.4,54L1176,54L1181.6,54L1187.2,54L1192.8,54L1198.3999999999999,54L1204,54L1209.6000000000001,54L1215.2,54" style="fill: none;" fill="none"></path></g><g><path stroke="rgb(238, 51, 119)" stroke-width="2px" d="M117.60000000000001,134.69550008437255L123.2,125.97352973299496L128.8,151.24192969864987L134.4,176.51034229144028L140,132.7845050815267L145.6,70.54643002270211L151.20000000000002,139.54068731319526L156.8,188.21159471733947L162.4,116.92232546527777L168,87.51885252268107L173.60000000000002,139.54068731319526L179.20000000000002,119.21734878616263L184.79999999999998,90.96966620992856L190.4,84.65803916914541L196,90.96966620992856L201.60000000000002,63.79026778683408L207.2,63.05118661905044L212.8,63.05118661905044L218.4,54L224,71.77318264621425L229.6,68.53948851787379L235.20000000000002,54L240.79999999999998,54L246.4,54L252,54L257.6,54L263.2,63.05118661905044L268.8,54L274.4,54L280,68.53948851787379L285.6,54L291.2,54L296.8,54L302.40000000000003,54L308,54L313.6,54L319.2,54L324.8,54L330.4,116.92232546527777L336,54L341.6,54L347.20000000000005,54L352.8,61.86392889158935L358.40000000000003,54L364,68.53948851787379L369.59999999999997,62.41589004754968L375.19999999999993,54L380.8,54L386.4,54L392,54L397.59999999999997,54L403.20000000000005,54L408.8,54L414.4,54L419.99999999999994,54L425.6,54L431.2,54L436.8,54L442.4,54L448,70.54643002270211L453.6,54L459.2,66.96683477084122L464.79999999999995,54L470.40000000000003,54L476,54L481.59999999999997,54L487.2,64.66078029487545L492.8,54L498.40000000000003,54L504,54L509.59999999999997,54L515.2,54L520.8,54L526.4,54L532,54L537.6,54L543.2,54L548.8,54L554.4,54L560,54L565.6,54L571.2,54L576.8,54L582.4,54L588,54L593.6,54L599.1999999999999,54L604.8000000000001,54L610.4,54L616,54L621.6,54L627.2,54L632.8000000000001,54L638.4,54L644,54L649.6,97.72584292786172L655.2,54L660.8,54L666.4,54L672,54L677.6,54L683.2,54L688.8,54L694.4000000000001,54L700,54L705.6,54L711.1999999999999,54L716.8000000000001,54L722.4,54L728,54L733.6,54L739.1999999999999,54L744.8,54L750.3999999999999,54L756.0000000000001,54L761.6,54L767.2,54L772.8,54L778.4,54L784,54L789.5999999999999,54L795.1999999999999,54L800.8000000000001,54L806.4000000000001,54L812,54L817.6,54L823.1999999999999,54L828.8,54L834.4,54L839.9999999999999,54L845.6,54L851.2,54L856.8000000000001,54L862.4,54L868,54L873.6,54L879.1999999999999,54L884.8,54L890.4000000000001,54L896,54L901.6,54L907.2,54L912.8,54L918.4,54L924,54L929.5999999999999,54L935.2,54L940.8000000000001,54L946.4,54L952,54L957.6,54L963.1999999999999,54L968.8,54L974.4,54L980.0000000000001,54L985.6,54L991.2,54L996.8000000000001,54L1002.4,54L1008,54L1013.5999999999999,54L1019.1999999999999,54L1024.8000000000002,54L1030.4,54L1036,54L1041.6,54L1047.2,54L1052.8,54L1058.3999999999999,54L1064,54L1069.6000000000001,54L1075.2,54L1080.8,54L1086.4,54L1092,54L1097.6,54L1103.2,54L1108.8,54L1114.3999999999999,54L1120,54L1125.6000000000001,54L1131.2,54L1136.8,54L1142.4,54L1148,54L1153.6,54L1159.1999999999998,54L1164.8,54L1170.4,54L1176,54L1181.6,54L1187.2,54L1192.8,54L1198.3999999999999,54L1204,54L1209.6000000000001,54L1215.2,54L1220.8,54L1226.4,54L1232,54L1237.6,54L1243.2,54L1248.8,54L1254.4,54L1260,54L1265.6000000000001,54L1271.2,54L1276.8,54L1282.3999999999999,54L1288,54L1293.6,54L1299.2,54L1304.8,54L1310.4,54L1316,54L1321.6,54L1327.2,54L1332.8,54L1338.3999999999999,54L1344,54" style="fill: none;" fill="none"></path></g></g></g></g></g></g><g transform="translate(40, 378)" clip-path="url(#clip_1)"><clipPath id="clip_1"><rect width="1456" height="22"></rect></clipPath><g><g><line x1="0" y1="0" x2="0" y2="5" style="visibility: inherit;" fill="rgb(0, 0, 0)" stroke="rgb(204, 204, 204)" stroke-width="1px"></line><line x1="112" y1="0" x2="112" y2="5" style="visibility: inherit;" fill="rgb(0, 0, 0)" stroke="rgb(204, 204, 204)" stroke-width="1px"></line><line x1="224" y1="0" x2="224" y2="5" style="visibility: inherit;" fill="rgb(0, 0, 0)" stroke="rgb(204, 204, 204)" stroke-width="1px"></line><line x1="336" y1="0" x2="336" y2="5" style="visibility: inherit;" fill="rgb(0, 0, 0)" stroke="rgb(204, 204, 204)" stroke-width="1px"></line><line x1="448" y1="0" x2="448" y2="5" style="visibility: inherit;" fill="rgb(0, 0, 0)" stroke="rgb(204, 204, 204)" stroke-width="1px"></line><line x1="560" y1="0" x2="560" y2="5" style="visibility: inherit;" fill="rgb(0, 0, 0)" stroke="rgb(204, 204, 204)" stroke-width="1px"></line><line x1="672" y1="0" x2="672" y2="5" style="visibility: inherit;" fill="rgb(0, 0, 0)" stroke="rgb(204, 204, 204)" stroke-width="1px"></line><line x1="784" y1="0" x2="784" y2="5" style="visibility: inherit;" fill="rgb(0, 0, 0)" stroke="rgb(204, 204, 204)" stroke-width="1px"></line><line x1="896" y1="0" x2="896" y2="5" style="visibility: inherit;" fill="rgb(0, 0, 0)" stroke="rgb(204, 204, 204)" stroke-width="1px"></line><line x1="1008" y1="0" x2="1008" y2="5" style="visibility: inherit;" fill="rgb(0, 0, 0)" stroke="rgb(204, 204, 204)" stroke-width="1px"></line><line x1="1120" y1="0" x2="1120" y2="5" style="visibility: inherit;" fill="rgb(0, 0, 0)" stroke="rgb(204, 204, 204)" stroke-width="1px"></line><line x1="1232" y1="0" x2="1232" y2="5" style="visibility: inherit;" fill="rgb(0, 0, 0)" stroke="rgb(204, 204, 204)" stroke-width="1px"></line><line x1="1344" y1="0" x2="1344" y2="5" style="visibility: inherit;" fill="rgb(0, 0, 0)" stroke="rgb(204, 204, 204)" stroke-width="1px"></line><line x1="1456" y1="0" x2="1456" y2="5" style="visibility: inherit;" fill="rgb(0, 0, 0)" stroke="rgb(204, 204, 204)" stroke-width="1px"></line></g><g transform="translate(0, 8)"><text x="0" y="0" dx="0em" dy="0.95em" style="text-anchor: middle; visibility: hidden; font-family: &quot;Helvetica Neue&quot;, sans-serif; font-size: 12px; font-weight: 200;" fill="rgb(50, 49, 63)" stroke="none" stroke-width="1px">-2k</text><text x="112" y="0" dx="0em" dy="0.95em" style="text-anchor: middle; visibility: inherit; font-family: &quot;Helvetica Neue&quot;, sans-serif; font-size: 12px; font-weight: 200;" fill="rgb(50, 49, 63)" stroke="none" stroke-width="1px">0</text><text x="224" y="0" dx="0em" dy="0.95em" style="text-anchor: middle; visibility: inherit; font-family: &quot;Helvetica Neue&quot;, sans-serif; font-size: 12px; font-weight: 200;" fill="rgb(50, 49, 63)" stroke="none" stroke-width="1px">2k</text><text x="336" y="0" dx="0em" dy="0.95em" style="text-anchor: middle; visibility: inherit; font-family: &quot;Helvetica Neue&quot;, sans-serif; font-size: 12px; font-weight: 200;" fill="rgb(50, 49, 63)" stroke="none" stroke-width="1px">4k</text><text x="448" y="0" dx="0em" dy="0.95em" style="text-anchor: middle; visibility: inherit; font-family: &quot;Helvetica Neue&quot;, sans-serif; font-size: 12px; font-weight: 200;" fill="rgb(50, 49, 63)" stroke="none" stroke-width="1px">6k</text><text x="560" y="0" dx="0em" dy="0.95em" style="text-anchor: middle; visibility: inherit; font-family: &quot;Helvetica Neue&quot;, sans-serif; font-size: 12px; font-weight: 200;" fill="rgb(50, 49, 63)" stroke="none" stroke-width="1px">8k</text><text x="672" y="0" dx="0em" dy="0.95em" style="text-anchor: middle; visibility: inherit; font-family: &quot;Helvetica Neue&quot;, sans-serif; font-size: 12px; font-weight: 200;" fill="rgb(50, 49, 63)" stroke="none" stroke-width="1px">10k</text><text x="784" y="0" dx="0em" dy="0.95em" style="text-anchor: middle; visibility: inherit; font-family: &quot;Helvetica Neue&quot;, sans-serif; font-size: 12px; font-weight: 200;" fill="rgb(50, 49, 63)" stroke="none" stroke-width="1px">12k</text><text x="896" y="0" dx="0em" dy="0.95em" style="text-anchor: middle; visibility: inherit; font-family: &quot;Helvetica Neue&quot;, sans-serif; font-size: 12px; font-weight: 200;" fill="rgb(50, 49, 63)" stroke="none" stroke-width="1px">14k</text><text x="1008" y="0" dx="0em" dy="0.95em" style="text-anchor: middle; visibility: inherit; font-family: &quot;Helvetica Neue&quot;, sans-serif; font-size: 12px; font-weight: 200;" fill="rgb(50, 49, 63)" stroke="none" stroke-width="1px">16k</text><text x="1120" y="0" dx="0em" dy="0.95em" style="text-anchor: middle; visibility: inherit; font-family: &quot;Helvetica Neue&quot;, sans-serif; font-size: 12px; font-weight: 200;" fill="rgb(50, 49, 63)" stroke="none" stroke-width="1px">18k</text><text x="1232" y="0" dx="0em" dy="0.95em" style="text-anchor: middle; visibility: inherit; font-family: &quot;Helvetica Neue&quot;, sans-serif; font-size: 12px; font-weight: 200;" fill="rgb(50, 49, 63)" stroke="none" stroke-width="1px">20k</text><text x="1344" y="0" dx="0em" dy="0.95em" style="text-anchor: middle; visibility: inherit; font-family: &quot;Helvetica Neue&quot;, sans-serif; font-size: 12px; font-weight: 200;" fill="rgb(50, 49, 63)" stroke="none" stroke-width="1px">22k</text><text x="1456" y="0" dx="0em" dy="0.95em" style="text-anchor: middle; visibility: hidden; font-family: &quot;Helvetica Neue&quot;, sans-serif; font-size: 12px; font-weight: 200;" fill="rgb(50, 49, 63)" stroke="none" stroke-width="1px">24k</text></g><line x1="0" y1="0" x2="1456" y2="0" fill="rgb(0, 0, 0)" stroke="rgb(204, 204, 204)" stroke-width="1px"></line></g></g></g></g></svg>